# Blender v3.1.2 OBJ File: 'drzwi2.blend'
# www.blender.org
mtllib drzwi3.mtl
o Drzwi.NR3_Cube.046
v -0.077690 -3.000000 0.000000
v -0.077690 3.000000 0.000000
v 4.300000 -3.000000 0.200000
v 4.300000 3.000000 0.200000
v -0.077690 3.000000 0.200000
v -0.077690 -3.000000 0.200000
v -4.300000 -3.000000 0.200000
v -4.300000 3.000000 0.200000
v 4.300000 -3.000000 0.000000
v 4.300000 3.000000 0.000000
v -4.300000 -3.000000 0.000000
v -4.300000 3.000000 0.000000
v -0.077690 0.430560 0.342353
v 4.300000 0.430560 0.342353
v 4.300000 -0.424524 0.342353
v -4.300000 0.430560 0.342353
v -4.300000 -0.424524 0.342353
v -0.077690 0.430560 0.200000
v -0.077690 -0.424524 0.200000
v 4.300000 -0.424524 0.200000
v 4.300000 0.430560 0.200000
v -4.300000 -0.424524 0.200000
v -4.300000 0.430560 0.200000
v -4.300000 -0.424524 0.000000
v -4.300000 0.430560 0.000000
v 4.300000 0.430560 0.000000
v 4.300000 -0.424524 0.000000
v -4.300000 1.356333 0.000000
v -4.300000 2.331171 0.000000
v 4.300000 2.331171 0.000000
v 4.300000 1.356333 0.000000
v -4.300000 1.356333 0.200000
v -4.300000 2.331171 0.200000
v -0.077690 2.331171 0.200000
v -0.077690 1.356333 0.200000
v 4.300000 2.331171 0.200000
v 4.300000 1.356333 0.200000
v -4.300000 -2.430915 0.000000
v -4.300000 -1.288795 0.000000
v 4.300000 -1.288795 0.000000
v 4.300000 -2.430915 0.000000
v 4.300000 -2.430915 0.200000
v 4.300000 -1.288795 0.200000
v -4.300000 -1.288795 0.200000
v -4.300000 -2.430915 0.200000
v -0.077690 -1.288795 0.200000
v -0.077690 -2.430915 0.200000
v -0.077690 -0.424524 0.342353
v 4.300000 2.331171 0.342353
v 4.300000 1.356333 0.342353
v -4.300000 1.356333 0.342353
v -4.300000 2.331171 0.342353
v -0.077690 2.331171 0.342353
v -0.077690 1.356333 0.342353
v 4.300000 -2.430915 0.342353
v 4.300000 -1.288795 0.342353
v -0.077690 -1.288795 0.342353
v -0.077690 -2.430915 0.342353
v -4.300000 -1.288795 0.342353
v -4.300000 -2.430915 0.342353
v 4.300000 -3.000000 -0.200000
v 4.300000 3.000000 -0.200000
v -0.077690 3.000000 -0.200000
v -0.077690 -3.000000 -0.200000
v -4.300000 -3.000000 -0.200000
v -4.300000 3.000000 -0.200000
v -0.077690 0.430560 -0.342353
v 4.300000 0.430560 -0.342353
v 4.300000 -0.424524 -0.342353
v -4.300000 0.430560 -0.342353
v -4.300000 -0.424524 -0.342353
v -0.077690 0.430560 -0.200000
v -0.077690 -0.424524 -0.200000
v 4.300000 -0.424524 -0.200000
v 4.300000 0.430560 -0.200000
v -4.300000 -0.424524 -0.200000
v -4.300000 0.430560 -0.200000
v -4.300000 1.356333 -0.200000
v -4.300000 2.331171 -0.200000
v -0.077690 2.331171 -0.200000
v -0.077690 1.356333 -0.200000
v 4.300000 2.331171 -0.200000
v 4.300000 1.356333 -0.200000
v 4.300000 -2.430915 -0.200000
v 4.300000 -1.288795 -0.200000
v -4.300000 -1.288795 -0.200000
v -4.300000 -2.430915 -0.200000
v -0.077690 -1.288795 -0.200000
v -0.077690 -2.430915 -0.200000
v -0.077690 -0.424524 -0.342353
v 4.300000 2.331171 -0.342353
v 4.300000 1.356333 -0.342353
v -4.300000 1.356333 -0.342353
v -4.300000 2.331171 -0.342353
v -0.077690 2.331171 -0.342353
v -0.077690 1.356333 -0.342353
v 4.300000 -2.430915 -0.342353
v 4.300000 -1.288795 -0.342353
v -0.077690 -1.288795 -0.342353
v -0.077690 -2.430915 -0.342353
v -4.300000 -1.288795 -0.342353
v -4.300000 -2.430915 -0.342353
vt 0.413680 0.500000
vt 0.375000 0.625000
vt 0.375000 0.500000
vt 0.482312 0.377258
vt 0.461268 0.500000
vt 0.461268 0.377258
vt 0.413680 0.250000
vt 0.375000 0.377258
vt 0.375000 0.250000
vt 0.556514 0.125000
vt 0.517940 0.250000
vt 0.517940 0.125000
vt 0.413680 0.377258
vt 0.747742 0.500000
vt 0.625000 0.625000
vt 0.625000 0.500000
vt 0.875000 0.500000
vt 0.747742 0.625000
vt 0.252258 0.625000
vt 0.252258 0.500000
vt 0.517940 0.377258
vt 0.482312 0.250000
vt 0.517940 0.250000
vt 0.125000 0.625000
vt 0.125000 0.500000
vt 0.556514 0.377258
vt 0.517940 0.500000
vt 0.517940 0.377258
vt 0.625000 0.377258
vt 0.597132 0.500000
vt 0.597132 0.377258
vt 0.517940 0.625000
vt 0.482312 0.500000
vt 0.556514 0.500000
vt 0.556514 0.500000
vt 0.482312 0.125000
vt 0.556514 0.250000
vt 0.625000 0.125000
vt 0.597132 0.250000
vt 0.597132 0.125000
vt 0.625000 0.250000
vt 0.597132 0.625000
vt 0.482312 0.250000
vt 0.597132 0.500000
vt 0.461268 0.250000
vt 0.461268 0.125000
vt 0.413680 0.125000
vt 0.375000 0.125000
vt 0.413680 0.377258
vt 0.597132 0.377258
vt 0.461268 0.625000
vt 0.517940 0.500000
vt 0.482312 0.377258
vt 0.556514 0.250000
vt 0.597132 0.250000
vt 0.556514 0.377258
vt 0.461268 0.377258
vt 0.413680 0.250000
vt 0.461268 0.250000
vt 0.461268 0.500000
vt 0.482312 0.500000
vt 0.413680 0.500000
vt 0.413680 0.500000
vt 0.375000 0.500000
vt 0.461268 0.500000
vt 0.482312 0.377258
vt 0.461268 0.377258
vt 0.375000 0.377258
vt 0.413680 0.250000
vt 0.375000 0.250000
vt 0.517940 0.250000
vt 0.413680 0.377258
vt 0.747742 0.500000
vt 0.625000 0.500000
vt 0.875000 0.500000
vt 0.252258 0.500000
vt 0.482312 0.250000
vt 0.517940 0.377258
vt 0.517940 0.250000
vt 0.125000 0.500000
vt 0.517940 0.500000
vt 0.556514 0.377258
vt 0.517940 0.377258
vt 0.597132 0.500000
vt 0.625000 0.377258
vt 0.597132 0.377258
vt 0.482312 0.500000
vt 0.556514 0.500000
vt 0.556514 0.500000
vt 0.556514 0.250000
vt 0.597132 0.250000
vt 0.625000 0.250000
vt 0.482312 0.250000
vt 0.597132 0.500000
vt 0.461268 0.250000
vt 0.413680 0.377258
vt 0.597132 0.377258
vt 0.482312 0.377258
vt 0.517940 0.500000
vt 0.556514 0.250000
vt 0.597132 0.250000
vt 0.556514 0.377258
vt 0.413680 0.250000
vt 0.461268 0.377258
vt 0.461268 0.250000
vt 0.461268 0.500000
vt 0.482312 0.500000
vt 0.413680 0.500000
vt 0.413680 0.625000
vt 0.875000 0.625000
vt 0.482312 0.625000
vt 0.556514 0.625000
vn -1.0000 0.0000 0.0000
vn -0.0000 0.0000 1.0000
vn 1.0000 0.0000 0.0000
vn 0.0000 1.0000 0.0000
vn 0.0000 -1.0000 0.0000
vn 0.0000 0.0000 -1.0000
usemtl Material.037
s off
f 45/1/1 11/2/1 7/3/1
f 19/4/2 44/5/2 46/6/2
f 42/7/2 6/8/2 3/9/2
f 31/10/3 21/11/3 26/12/3
f 47/13/2 7/3/2 6/8/2
f 5/14/4 12/15/4 8/16/4
f 4/17/4 2/18/4 5/14/4
f 7/3/5 1/19/5 6/20/5
f 13/21/2 15/22/2 14/23/2
f 6/20/5 9/24/5 3/25/5
f 35/26/2 23/27/2 18/28/2
f 5/29/2 33/30/2 34/31/2
f 25/32/1 22/33/1 23/27/1
f 18/28/4 14/23/4 21/11/4
f 35/26/5 51/34/5 32/35/5
f 21/11/3 27/36/3 26/12/3
f 37/37/2 18/28/2 21/11/2
f 10/38/3 36/39/3 30/40/3
f 4/41/2 34/31/2 36/39/2
f 8/16/1 29/42/1 33/30/1
f 36/39/3 31/10/3 30/40/3
f 29/42/1 32/35/1 33/30/1
f 21/11/3 15/22/3 20/43/3
f 32/35/1 52/44/1 33/30/1
f 32/35/1 25/32/1 23/27/1
f 27/36/3 43/45/3 40/46/3
f 20/43/2 46/6/2 43/45/2
f 41/47/3 3/9/3 9/48/3
f 42/7/5 58/49/5 47/13/5
f 43/45/3 41/47/3 40/46/3
f 33/30/4 53/50/4 34/31/4
f 39/51/1 45/1/1 44/5/1
f 22/33/1 39/51/1 44/5/1
f 16/52/2 48/53/2 13/21/2
f 53/50/2 50/54/2 49/55/2
f 52/44/2 54/56/2 53/50/2
f 57/57/2 55/58/2 56/59/2
f 59/60/2 58/49/2 57/57/2
f 20/43/5 48/53/5 19/4/5
f 22/33/1 16/52/1 23/27/1
f 44/5/4 57/57/4 46/6/4
f 34/31/4 49/55/4 36/39/4
f 23/27/4 13/21/4 18/28/4
f 43/45/3 55/58/3 42/7/3
f 45/1/1 59/60/1 44/5/1
f 46/6/4 56/59/4 43/45/4
f 19/4/5 17/61/5 22/33/5
f 36/39/3 50/54/3 37/37/3
f 47/13/5 60/62/5 45/1/5
f 37/37/5 54/56/5 35/26/5
f 11/2/1 87/63/1 65/64/1
f 86/65/6 73/66/6 88/67/6
f 64/68/6 84/69/6 61/70/6
f 75/71/3 31/10/3 26/12/3
f 65/64/6 89/72/6 64/68/6
f 12/15/4 63/73/4 66/74/4
f 2/18/4 62/75/4 63/73/4
f 1/19/5 65/64/5 64/76/5
f 69/77/6 67/78/6 68/79/6
f 9/24/5 64/76/5 61/80/5
f 77/81/6 81/82/6 72/83/6
f 79/84/6 63/85/6 80/86/6
f 76/87/1 25/32/1 77/81/1
f 68/79/4 72/83/4 75/71/4
f 93/88/5 81/82/5 78/89/5
f 27/36/3 75/71/3 26/12/3
f 72/83/6 83/90/6 75/71/6
f 82/91/3 10/38/3 30/40/3
f 80/86/6 62/92/6 82/91/6
f 29/42/1 66/74/1 79/84/1
f 31/10/3 82/91/3 30/40/3
f 78/89/1 29/42/1 79/84/1
f 69/77/3 75/71/3 74/93/3
f 94/94/1 78/89/1 79/84/1
f 25/32/1 78/89/1 77/81/1
f 40/46/3 74/93/3 27/36/3
f 88/67/6 74/93/6 85/95/6
f 61/70/3 41/47/3 9/48/3
f 100/96/5 84/69/5 89/72/5
f 41/47/3 85/95/3 40/46/3
f 95/97/4 79/84/4 80/86/4
f 87/63/1 39/51/1 86/65/1
f 39/51/1 76/87/1 86/65/1
f 90/98/6 70/99/6 67/78/6
f 92/100/6 95/97/6 91/101/6
f 96/102/6 94/94/6 95/97/6
f 97/103/6 99/104/6 98/105/6
f 100/96/6 101/106/6 99/104/6
f 90/98/5 74/93/5 73/66/5
f 70/99/1 76/87/1 77/81/1
f 99/104/4 86/65/4 88/67/4
f 91/101/4 80/86/4 82/91/4
f 67/78/4 77/81/4 72/83/4
f 97/103/3 85/95/3 84/69/3
f 101/106/1 87/63/1 86/65/1
f 98/105/4 88/67/4 85/95/4
f 71/107/5 73/66/5 76/87/5
f 92/100/3 82/91/3 83/90/3
f 102/108/5 89/72/5 87/63/5
f 96/102/5 83/90/5 81/82/5
f 45/1/1 38/109/1 11/2/1
f 19/4/2 22/33/2 44/5/2
f 42/7/2 47/13/2 6/8/2
f 31/10/3 37/37/3 21/11/3
f 47/13/2 45/1/2 7/3/2
f 5/14/4 2/18/4 12/15/4
f 4/17/4 10/110/4 2/18/4
f 7/3/5 11/2/5 1/19/5
f 13/21/2 48/53/2 15/22/2
f 6/20/5 1/19/5 9/24/5
f 35/26/2 32/35/2 23/27/2
f 5/29/2 8/16/2 33/30/2
f 25/32/1 24/111/1 22/33/1
f 18/28/4 13/21/4 14/23/4
f 35/26/5 54/56/5 51/34/5
f 21/11/3 20/43/3 27/36/3
f 37/37/2 35/26/2 18/28/2
f 10/38/3 4/41/3 36/39/3
f 4/41/2 5/29/2 34/31/2
f 8/16/1 12/15/1 29/42/1
f 36/39/3 37/37/3 31/10/3
f 29/42/1 28/112/1 32/35/1
f 21/11/3 14/23/3 15/22/3
f 32/35/1 51/34/1 52/44/1
f 32/35/1 28/112/1 25/32/1
f 27/36/3 20/43/3 43/45/3
f 20/43/2 19/4/2 46/6/2
f 41/47/3 42/7/3 3/9/3
f 42/7/5 55/58/5 58/49/5
f 43/45/3 42/7/3 41/47/3
f 33/30/4 52/44/4 53/50/4
f 39/51/1 38/109/1 45/1/1
f 22/33/1 24/111/1 39/51/1
f 16/52/2 17/61/2 48/53/2
f 53/50/2 54/56/2 50/54/2
f 52/44/2 51/34/2 54/56/2
f 57/57/2 58/49/2 55/58/2
f 59/60/2 60/62/2 58/49/2
f 20/43/5 15/22/5 48/53/5
f 22/33/1 17/61/1 16/52/1
f 44/5/4 59/60/4 57/57/4
f 34/31/4 53/50/4 49/55/4
f 23/27/4 16/52/4 13/21/4
f 43/45/3 56/59/3 55/58/3
f 45/1/1 60/62/1 59/60/1
f 46/6/4 57/57/4 56/59/4
f 19/4/5 48/53/5 17/61/5
f 36/39/3 49/55/3 50/54/3
f 47/13/5 58/49/5 60/62/5
f 37/37/5 50/54/5 54/56/5
f 11/2/1 38/109/1 87/63/1
f 86/65/6 76/87/6 73/66/6
f 64/68/6 89/72/6 84/69/6
f 75/71/3 83/90/3 31/10/3
f 65/64/6 87/63/6 89/72/6
f 12/15/4 2/18/4 63/73/4
f 2/18/4 10/110/4 62/75/4
f 1/19/5 11/2/5 65/64/5
f 69/77/6 90/98/6 67/78/6
f 9/24/5 1/19/5 64/76/5
f 77/81/6 78/89/6 81/82/6
f 79/84/6 66/74/6 63/85/6
f 76/87/1 24/111/1 25/32/1
f 68/79/4 67/78/4 72/83/4
f 93/88/5 96/102/5 81/82/5
f 27/36/3 74/93/3 75/71/3
f 72/83/6 81/82/6 83/90/6
f 82/91/3 62/92/3 10/38/3
f 80/86/6 63/85/6 62/92/6
f 29/42/1 12/15/1 66/74/1
f 31/10/3 83/90/3 82/91/3
f 78/89/1 28/112/1 29/42/1
f 69/77/3 68/79/3 75/71/3
f 94/94/1 93/88/1 78/89/1
f 25/32/1 28/112/1 78/89/1
f 40/46/3 85/95/3 74/93/3
f 88/67/6 73/66/6 74/93/6
f 61/70/3 84/69/3 41/47/3
f 100/96/5 97/103/5 84/69/5
f 41/47/3 84/69/3 85/95/3
f 95/97/4 94/94/4 79/84/4
f 87/63/1 38/109/1 39/51/1
f 39/51/1 24/111/1 76/87/1
f 90/98/6 71/107/6 70/99/6
f 92/100/6 96/102/6 95/97/6
f 96/102/6 93/88/6 94/94/6
f 97/103/6 100/96/6 99/104/6
f 100/96/6 102/108/6 101/106/6
f 90/98/5 69/77/5 74/93/5
f 70/99/1 71/107/1 76/87/1
f 99/104/4 101/106/4 86/65/4
f 91/101/4 95/97/4 80/86/4
f 67/78/4 70/99/4 77/81/4
f 97/103/3 98/105/3 85/95/3
f 101/106/1 102/108/1 87/63/1
f 98/105/4 99/104/4 88/67/4
f 71/107/5 90/98/5 73/66/5
f 92/100/3 91/101/3 82/91/3
f 102/108/5 100/96/5 89/72/5
f 96/102/5 92/100/5 83/90/5
