# Blender v3.1.2 OBJ File: 'Swiat-3.blend1'
# www.blender.org
mtllib generatorSzklo.mtl
o Generator_szklo_Cylinder.001
v -0.000188 -3.414244 2.152193
v -0.373973 -3.414244 2.119492
v -0.736400 -3.414244 2.022379
v -1.076459 -3.414244 1.863808
v -1.383815 -3.414244 1.648594
v -1.649131 -3.414244 1.383278
v -1.864344 -3.414244 1.075922
v -2.022916 -3.414244 0.735864
v -2.120028 -3.414244 0.373437
v -2.152730 -3.414244 -0.000349
v -2.120028 -3.414244 -0.374135
v -2.022916 -3.414244 -0.736562
v -1.864344 -3.414244 -1.076621
v -1.649131 -3.414244 -1.383977
v -1.383815 -3.414244 -1.649293
v -1.076459 -3.414244 -1.864506
v -0.736400 -3.414244 -2.023078
v -0.373974 -3.414244 -2.120190
v -0.000187 -3.414244 -2.152891
v 0.373598 -3.414244 -2.120190
v 0.736025 -3.414244 -2.023078
v 1.076084 -3.414244 -1.864506
v 1.383439 -3.414244 -1.649293
v 1.648756 -3.414244 -1.383976
v 1.863969 -3.414244 -1.076620
v 2.022541 -3.414244 -0.736562
v 2.119653 -3.414244 -0.374135
v 2.152354 -3.414244 -0.000349
v 2.119653 -3.414244 0.373436
v 2.022541 -3.414244 0.735863
v 1.863969 -3.414244 1.075921
v 1.648756 -3.414244 1.383278
v 1.383440 -3.414244 1.648594
v 1.076084 -3.414244 1.863807
v 0.736026 -3.414244 2.022379
v 0.373597 -3.414244 2.119492
v -0.000188 3.414197 2.152193
v -0.373973 3.414197 2.119492
v -0.736400 3.414197 2.022379
v -1.076459 3.414197 1.863808
v -1.383815 3.414197 1.648594
v -1.649131 3.414197 1.383278
v -1.864344 3.414197 1.075922
v -2.022916 3.414197 0.735864
v -2.120028 3.414197 0.373437
v -2.152730 3.414197 -0.000349
v -2.120028 3.414197 -0.374135
v -2.022916 3.414197 -0.736562
v -1.864344 3.414197 -1.076621
v -1.649131 3.414197 -1.383977
v -1.383815 3.414197 -1.649293
v -1.076459 3.414197 -1.864506
v -0.736401 3.414197 -2.023078
v -0.373974 3.414197 -2.120190
v -0.000188 3.414197 -2.152891
v 0.373598 3.414197 -2.120190
v 0.736025 3.414197 -2.023078
v 1.076083 3.414197 -1.864506
v 1.383439 3.414197 -1.649293
v 1.648756 3.414197 -1.383976
v 1.863969 3.414197 -1.076620
v 2.022541 3.414197 -0.736562
v 2.119653 3.414197 -0.374135
v 2.152354 3.414197 -0.000349
v 2.119653 3.414197 0.373436
v 2.022541 3.414197 0.735863
v 1.863969 3.414197 1.075921
v 1.648756 3.414197 1.383278
v 1.383440 3.414197 1.648594
v 1.076084 3.414197 1.863807
v 0.736026 3.414197 2.022379
v 0.373597 3.414197 2.119492
v 0.001705 -3.451034 -0.000473
v 0.011806 3.452895 0.025621
vt 0.108001 0.224962
vt 0.105810 0.250000
vt 0.105810 0.250000
vt 0.360456 0.157317
vt 0.342684 0.139544
vt 0.342684 0.139544
vt 0.250000 0.394190
vt 0.275039 0.392000
vt 0.275039 0.392000
vt 0.108001 0.275039
vt 0.108001 0.275039
vt 0.322095 0.125128
vt 0.322095 0.125128
vt 0.299316 0.385495
vt 0.299316 0.385495
vt 0.114506 0.299316
vt 0.114506 0.299316
vt 0.299316 0.114506
vt 0.299316 0.114506
vt 0.322095 0.374872
vt 0.322095 0.374872
vt 0.125128 0.322096
vt 0.125128 0.322096
vt 0.275039 0.108001
vt 0.275039 0.108001
vt 0.342684 0.360456
vt 0.342684 0.360456
vt 0.139544 0.342684
vt 0.139544 0.342684
vt 0.250000 0.105810
vt 0.250000 0.105810
vt 0.360456 0.342684
vt 0.360456 0.342684
vt 0.157317 0.360457
vt 0.157317 0.360457
vt 0.224962 0.108001
vt 0.224962 0.108001
vt 0.374872 0.322095
vt 0.374872 0.322095
vt 0.177905 0.374873
vt 0.177905 0.374873
vt 0.200684 0.114506
vt 0.200684 0.114506
vt 0.385494 0.299316
vt 0.385494 0.299316
vt 0.200684 0.385495
vt 0.200684 0.385495
vt 0.177905 0.125128
vt 0.177905 0.125128
vt 0.391999 0.275038
vt 0.391999 0.275038
vt 0.224962 0.392000
vt 0.224962 0.392000
vt 0.157317 0.139544
vt 0.157317 0.139544
vt 0.394190 0.250000
vt 0.394190 0.250000
vt 0.250000 0.394190
vt 0.139544 0.157317
vt 0.139544 0.157317
vt 0.391999 0.224962
vt 0.391999 0.224962
vt 0.125128 0.177905
vt 0.125128 0.177905
vt 0.385494 0.200684
vt 0.385494 0.200684
vt 0.114506 0.200684
vt 0.114506 0.200684
vt 0.374872 0.177905
vt 0.374872 0.177905
vt 0.108001 0.224962
vt 0.360456 0.157317
vt 0.177905 0.374873
vt 0.200684 0.114506
vt 0.385494 0.299316
vt 0.200684 0.385495
vt 0.177905 0.125128
vt 0.391999 0.275038
vt 0.224962 0.392000
vt 0.157317 0.139544
vt 0.394190 0.250000
vt 0.139544 0.157317
vt 0.391999 0.224962
vt 0.125128 0.177905
vt 0.385494 0.200684
vt 0.114506 0.200684
vt 0.374872 0.177905
vt 0.108001 0.224962
vt 0.360456 0.157317
vt 0.250000 0.394190
vt 0.105810 0.250000
vt 0.342684 0.139544
vt 0.275039 0.392000
vt 0.108001 0.275039
vt 0.322095 0.125128
vt 0.299316 0.385495
vt 0.114506 0.299316
vt 0.299316 0.114506
vt 0.322095 0.374872
vt 0.125128 0.322096
vt 0.275039 0.108001
vt 0.342684 0.360456
vt 0.139544 0.342684
vt 0.250000 0.105810
vt 0.360456 0.342684
vt 0.157317 0.360457
vt 0.224962 0.108001
vt 0.374872 0.322095
vt 0.391999 0.224962
vt 0.125128 0.177905
vt 0.385494 0.200684
vt 0.114506 0.200684
vt 0.374872 0.177905
vt 0.108001 0.224962
vt 0.360456 0.157317
vt 0.105810 0.250000
vt 0.342684 0.139544
vt 0.275039 0.392000
vt 0.108001 0.275039
vt 0.322095 0.125128
vt 0.299316 0.385495
vt 0.114506 0.299316
vt 0.299316 0.114506
vt 0.322095 0.374872
vt 0.125128 0.322096
vt 0.275039 0.108001
vt 0.342684 0.360456
vt 0.139544 0.342684
vt 0.250000 0.105810
vt 0.360456 0.342684
vt 0.157317 0.360457
vt 0.224962 0.108001
vt 0.374872 0.322095
vt 0.177905 0.374873
vt 0.200684 0.114506
vt 0.385494 0.299316
vt 0.200684 0.385495
vt 0.177905 0.125128
vt 0.391999 0.275038
vt 0.224962 0.392000
vt 0.157317 0.139544
vt 0.394190 0.250000
vt 0.250000 0.394190
vt 0.139544 0.157317
vn 0.9962 0.0000 -0.0872
vn -0.7071 0.0000 -0.7071
vn -0.0872 -0.0000 0.9962
vn 0.9962 0.0000 0.0872
vn -0.5736 -0.0000 -0.8192
vn -0.2588 -0.0000 0.9659
vn 0.9659 0.0000 0.2588
vn -0.4226 -0.0000 -0.9063
vn -0.4226 0.0000 0.9063
vn 0.9063 0.0000 0.4226
vn -0.2588 0.0000 -0.9659
vn -0.5736 -0.0000 0.8192
vn 0.8192 0.0000 0.5736
vn -0.0872 -0.0000 -0.9962
vn -0.7071 -0.0000 0.7071
vn 0.7071 0.0000 0.7071
vn 0.0872 0.0000 -0.9962
vn -0.8192 0.0000 0.5736
vn 0.5736 0.0000 0.8192
vn 0.2588 0.0000 -0.9659
vn -0.9063 0.0000 0.4226
vn 0.4226 0.0000 0.9063
vn 0.4226 0.0000 -0.9063
vn -0.9659 0.0000 0.2588
vn 0.2588 0.0000 0.9659
vn 0.5736 0.0000 -0.8192
vn -0.9962 0.0000 0.0872
vn 0.0872 0.0000 0.9962
vn 0.7071 0.0000 -0.7071
vn -0.9962 0.0000 -0.0872
vn 0.8192 0.0000 -0.5736
vn -0.9659 0.0000 -0.2588
vn 0.9063 0.0000 -0.4226
vn -0.9063 0.0000 -0.4226
vn 0.9659 0.0000 -0.2588
vn -0.8192 -0.0000 -0.5736
vn 0.0073 -0.9999 0.0156
vn 0.0073 -0.9999 -0.0156
vn -0.0166 -0.9999 0.0044
vn 0.0044 -0.9999 0.0166
vn 0.0098 -0.9999 -0.0141
vn -0.0171 -0.9999 0.0015
vn 0.0015 -0.9999 0.0171
vn 0.0121 -0.9999 -0.0121
vn -0.0171 -0.9999 -0.0015
vn 0.0141 -0.9999 -0.0098
vn -0.0166 -0.9999 -0.0044
vn 0.0156 -0.9999 -0.0073
vn -0.0155 -0.9999 -0.0072
vn 0.0166 -0.9999 -0.0044
vn -0.0140 -0.9999 -0.0098
vn 0.0171 -0.9999 -0.0015
vn -0.0121 -0.9999 -0.0121
vn -0.0015 -0.9999 0.0171
vn 0.0171 -0.9999 0.0015
vn -0.0098 -0.9999 -0.0140
vn -0.0044 -0.9999 0.0166
vn 0.0166 -0.9999 0.0044
vn -0.0072 -0.9999 -0.0155
vn -0.0072 -0.9999 0.0155
vn 0.0156 -0.9999 0.0073
vn -0.0044 -0.9999 -0.0166
vn -0.0098 -0.9999 0.0140
vn 0.0141 -0.9999 0.0098
vn -0.0015 -0.9999 -0.0171
vn -0.0121 -0.9999 0.0121
vn 0.0121 -0.9999 0.0121
vn 0.0015 -0.9999 -0.0171
vn -0.0140 -0.9999 0.0098
vn 0.0098 -0.9999 0.0141
vn 0.0044 -0.9999 -0.0166
vn -0.0155 -0.9999 0.0072
vn -0.0179 0.9998 -0.0016
vn 0.0147 0.9998 -0.0103
vn -0.0173 0.9998 -0.0046
vn 0.0164 0.9998 -0.0076
vn -0.0162 0.9998 -0.0075
vn 0.0175 0.9998 -0.0047
vn -0.0146 0.9998 -0.0102
vn 0.0181 0.9998 -0.0016
vn -0.0126 0.9998 -0.0126
vn -0.0016 0.9998 0.0182
vn 0.0181 0.9998 0.0016
vn -0.0102 0.9998 -0.0146
vn -0.0047 0.9998 0.0176
vn 0.0176 0.9998 0.0047
vn -0.0075 0.9998 -0.0161
vn -0.0077 0.9998 0.0165
vn 0.0165 0.9998 0.0077
vn -0.0046 0.9998 -0.0172
vn -0.0104 0.9998 0.0149
vn 0.0150 0.9998 0.0105
vn -0.0016 0.9998 -0.0178
vn -0.0128 0.9998 0.0128
vn 0.0129 0.9998 0.0129
vn 0.0016 0.9998 -0.0178
vn -0.0148 0.9998 0.0104
vn 0.0105 0.9998 0.0150
vn 0.0046 0.9998 -0.0173
vn -0.0164 0.9998 0.0076
vn 0.0077 0.9998 0.0166
vn 0.0076 0.9998 -0.0162
vn -0.0174 0.9998 0.0047
vn 0.0047 0.9998 0.0177
vn 0.0103 0.9998 -0.0147
vn -0.0179 0.9998 0.0016
vn 0.0016 0.9998 0.0182
vn 0.0127 0.9998 -0.0127
usemtl None
s off
f 27/1/1 64/2/1 28/3/1
f 14/4/2 51/5/2 15/6/2
f 1/7/3 38/8/3 2/9/3
f 28/3/4 65/10/4 29/11/4
f 15/6/5 52/12/5 16/13/5
f 2/9/6 39/14/6 3/15/6
f 29/11/7 66/16/7 30/17/7
f 16/13/8 53/18/8 17/19/8
f 3/15/9 40/20/9 4/21/9
f 30/17/10 67/22/10 31/23/10
f 17/19/11 54/24/11 18/25/11
f 4/21/12 41/26/12 5/27/12
f 31/23/13 68/28/13 32/29/13
f 18/25/14 55/30/14 19/31/14
f 5/27/15 42/32/15 6/33/15
f 32/29/16 69/34/16 33/35/16
f 20/36/17 55/30/17 56/37/17
f 6/33/18 43/38/18 7/39/18
f 33/35/19 70/40/19 34/41/19
f 20/36/20 57/42/20 21/43/20
f 7/39/21 44/44/21 8/45/21
f 34/41/22 71/46/22 35/47/22
f 21/43/23 58/48/23 22/49/23
f 8/45/24 45/50/24 9/51/24
f 35/47/25 72/52/25 36/53/25
f 22/49/26 59/54/26 23/55/26
f 9/51/27 46/56/27 10/57/27
f 36/53/28 37/58/28 1/7/28
f 23/55/29 60/59/29 24/60/29
f 10/57/30 47/61/30 11/62/30
f 24/60/31 61/63/31 25/64/31
f 11/62/32 48/65/32 12/66/32
f 25/64/33 62/67/33 26/68/33
f 12/66/34 49/69/34 13/70/34
f 26/68/35 63/71/35 27/1/35
f 13/70/36 50/72/36 14/4/36
f 34/41/37 35/47/37 73/73/37
f 21/43/38 22/49/38 73/74/38
f 8/45/39 9/51/39 73/75/39
f 35/47/40 36/53/40 73/76/40
f 22/49/41 23/55/41 73/77/41
f 9/51/42 10/57/42 73/78/42
f 36/53/43 1/7/43 73/79/43
f 23/55/44 24/60/44 73/80/44
f 10/57/45 11/62/45 73/81/45
f 24/60/46 25/64/46 73/82/46
f 11/62/47 12/66/47 73/83/47
f 25/64/48 26/68/48 73/84/48
f 12/66/49 13/70/49 73/85/49
f 26/68/50 27/1/50 73/86/50
f 13/70/51 14/4/51 73/87/51
f 27/1/52 28/3/52 73/88/52
f 14/4/53 15/6/53 73/89/53
f 1/7/54 2/9/54 73/90/54
f 28/3/55 29/11/55 73/91/55
f 15/6/56 16/13/56 73/92/56
f 2/9/57 3/15/57 73/93/57
f 29/11/58 30/17/58 73/94/58
f 16/13/59 17/19/59 73/95/59
f 3/15/60 4/21/60 73/96/60
f 30/17/61 31/23/61 73/97/61
f 17/19/62 18/25/62 73/98/62
f 4/21/63 5/27/63 73/99/63
f 31/23/64 32/29/64 73/100/64
f 18/25/65 19/31/65 73/101/65
f 5/27/66 6/33/66 73/102/66
f 32/29/67 33/35/67 73/103/67
f 19/31/68 20/36/68 73/104/68
f 6/33/69 7/39/69 73/105/69
f 33/35/70 34/41/70 73/106/70
f 20/36/71 21/43/71 73/107/71
f 7/39/72 8/45/72 73/108/72
f 47/61/73 46/56/73 74/109/73
f 61/63/74 60/59/74 74/110/74
f 48/65/75 47/61/75 74/111/75
f 62/67/76 61/63/76 74/112/76
f 49/69/77 48/65/77 74/113/77
f 63/71/78 62/67/78 74/114/78
f 50/72/79 49/69/79 74/115/79
f 64/2/80 63/71/80 74/116/80
f 51/5/81 50/72/81 74/117/81
f 38/8/82 37/58/82 74/118/82
f 65/10/83 64/2/83 74/119/83
f 52/12/84 51/5/84 74/120/84
f 39/14/85 38/8/85 74/121/85
f 66/16/86 65/10/86 74/122/86
f 53/18/87 52/12/87 74/123/87
f 40/20/88 39/14/88 74/124/88
f 67/22/89 66/16/89 74/125/89
f 54/24/90 53/18/90 74/126/90
f 41/26/91 40/20/91 74/127/91
f 68/28/92 67/22/92 74/128/92
f 55/30/93 54/24/93 74/129/93
f 42/32/94 41/26/94 74/130/94
f 69/34/95 68/28/95 74/131/95
f 56/37/96 55/30/96 74/132/96
f 43/38/97 42/32/97 74/133/97
f 70/40/98 69/34/98 74/134/98
f 57/42/99 56/37/99 74/135/99
f 44/44/100 43/38/100 74/136/100
f 71/46/101 70/40/101 74/137/101
f 58/48/102 57/42/102 74/138/102
f 45/50/103 44/44/103 74/139/103
f 72/52/104 71/46/104 74/140/104
f 59/54/105 58/48/105 74/141/105
f 46/56/106 45/50/106 74/142/106
f 37/58/107 72/52/107 74/143/107
f 60/59/108 59/54/108 74/144/108
f 27/1/1 63/71/1 64/2/1
f 14/4/2 50/72/2 51/5/2
f 1/7/3 37/58/3 38/8/3
f 28/3/4 64/2/4 65/10/4
f 15/6/5 51/5/5 52/12/5
f 2/9/6 38/8/6 39/14/6
f 29/11/7 65/10/7 66/16/7
f 16/13/8 52/12/8 53/18/8
f 3/15/9 39/14/9 40/20/9
f 30/17/10 66/16/10 67/22/10
f 17/19/11 53/18/11 54/24/11
f 4/21/12 40/20/12 41/26/12
f 31/23/13 67/22/13 68/28/13
f 18/25/14 54/24/14 55/30/14
f 5/27/15 41/26/15 42/32/15
f 32/29/16 68/28/16 69/34/16
f 20/36/17 19/31/17 55/30/17
f 6/33/18 42/32/18 43/38/18
f 33/35/19 69/34/19 70/40/19
f 20/36/20 56/37/20 57/42/20
f 7/39/21 43/38/21 44/44/21
f 34/41/22 70/40/22 71/46/22
f 21/43/23 57/42/23 58/48/23
f 8/45/24 44/44/24 45/50/24
f 35/47/25 71/46/25 72/52/25
f 22/49/26 58/48/26 59/54/26
f 9/51/27 45/50/27 46/56/27
f 36/53/28 72/52/28 37/58/28
f 23/55/29 59/54/29 60/59/29
f 10/57/30 46/56/30 47/61/30
f 24/60/31 60/59/31 61/63/31
f 11/62/32 47/61/32 48/65/32
f 25/64/33 61/63/33 62/67/33
f 12/66/34 48/65/34 49/69/34
f 26/68/35 62/67/35 63/71/35
f 13/70/36 49/69/36 50/72/36
