# Blender v3.1.2 OBJ File: 'drzw.blend'
# www.blender.org
mtllib prowadnica.mtl
o Cube.001_Cube
v -0.500000 -2.976761 -3.678853
v -0.500000 3.177732 -3.678853
v -0.500000 -2.976761 -3.813536
v -0.500000 2.995074 -3.996195
v 0.500000 -2.976761 -3.678853
v 0.500000 2.995074 -3.496194
v 0.500000 -2.976761 -3.813536
v 0.500000 2.995074 -3.813536
v -0.500000 3.312415 -3.496194
v -0.500000 3.312415 -3.813536
v 0.500000 3.312415 -3.813536
v 0.500000 3.312415 -3.496194
v 0.166667 -3.342078 -3.996195
v -0.166667 -3.342078 -3.996195
v -0.166667 2.995074 -3.996195
v 0.166667 2.995074 -3.996195
v -0.166667 -3.342078 -3.496194
v 0.166667 -3.342078 -3.496194
v 0.166667 2.995074 -3.496194
v -0.166667 2.995074 -3.496194
v -0.166667 3.495074 -3.996195
v 0.166667 3.495074 -3.996195
v 0.166667 3.495074 -3.496194
v -0.166667 3.495074 -3.496194
v -0.166667 -3.342078 -3.630963
v 0.166667 -3.342078 -3.630963
v 0.166667 2.995074 -3.630963
v -0.166667 2.995074 -3.630963
v 0.166667 3.091065 -3.496194
v -0.166667 3.091065 -3.496194
v 0.166667 3.091065 -3.630963
v -0.166667 3.091065 -3.630963
v -0.500000 -2.970431 3.675688
v -0.500000 3.184062 3.675688
v -0.500000 -2.970431 3.810371
v -0.500000 3.001404 3.993030
v 0.500000 -2.970431 3.675688
v 0.500000 3.001404 3.493029
v 0.500000 -2.970431 3.810371
v 0.500000 3.001404 3.810371
v -0.500000 3.318745 3.493029
v -0.500000 3.318745 3.810371
v 0.500000 3.318745 3.810371
v 0.500000 3.318745 3.493029
v 0.166667 -3.335748 3.993030
v -0.166667 -3.335748 3.993030
v -0.166667 3.001404 3.993030
v 0.166667 3.001404 3.993030
v -0.166667 -3.335748 3.493029
v 0.166667 -3.335748 3.493029
v 0.166667 3.001404 3.493029
v -0.166667 3.001404 3.493029
v -0.166667 3.501404 3.993030
v 0.166667 3.501404 3.993030
v 0.166667 3.501404 3.493029
v -0.166667 3.501404 3.493029
v -0.166667 -3.335748 3.627798
v 0.166667 -3.335748 3.627798
v 0.166667 3.001404 3.627798
v -0.166667 3.001404 3.627798
v 0.166667 3.097395 3.493029
v -0.166667 3.097395 3.493029
v 0.166667 3.097395 3.627798
v -0.166667 3.097395 3.627798
v -0.500000 -3.342078 -3.996195
v -0.500000 -3.342078 -3.496194
v -0.500000 2.995074 -3.496194
v -0.500000 2.995074 -3.813536
v 0.500000 2.995074 -3.996195
v 0.500000 -3.342078 -3.996195
v 0.500000 -3.342078 -3.496194
v 0.500000 3.177732 -3.678853
v -0.500000 3.495074 -3.496194
v -0.500000 3.495074 -3.996195
v 0.500000 3.495074 -3.996195
v 0.500000 3.495074 -3.496194
v -0.500000 -3.335748 3.993030
v -0.500000 -3.335748 3.493029
v -0.500000 3.001404 3.493029
v -0.500000 3.001404 3.810371
v 0.500000 3.001404 3.993030
v 0.500000 -3.335748 3.993030
v 0.500000 -3.335748 3.493029
v 0.500000 3.184062 3.675688
v -0.500000 3.501404 3.493029
v -0.500000 3.501404 3.993030
v 0.500000 3.501404 3.993030
v 0.500000 3.501404 3.493029
v -0.343247 3.177732 -3.678853
v -0.343247 2.995074 -3.813536
v 0.343247 2.995074 -3.813536
v 0.343247 3.177732 -3.678853
v 0.343247 3.312415 -3.496194
v -0.343247 3.312415 -3.496194
v -0.343247 3.184062 3.675688
v -0.343247 3.001404 3.810371
v 0.343247 3.001404 3.810371
v 0.343247 3.184062 3.675688
v 0.343247 3.318745 3.493029
v -0.343247 3.318745 3.493029
v -0.343247 -2.976761 -3.813536
v -0.343247 -2.976761 -3.678853
v 0.343247 -2.976761 -3.813536
v 0.343247 -2.976761 -3.678853
v -0.343247 3.312415 -3.813536
v 0.343247 3.312415 -3.813536
v -0.343247 -2.970431 3.810371
v -0.343247 -2.970431 3.675688
v 0.343247 -2.970431 3.810371
v 0.343247 -2.970431 3.675688
v -0.343247 3.318745 3.810371
v 0.343247 3.318745 3.810371
vt 0.765585 0.425995
vt 0.765585 0.425995
vt 0.765585 0.425995
vt 0.765585 0.337846
vt 0.699474 0.359883
vt 0.699474 0.337846
vt 0.765585 0.269619
vt 0.765585 0.324266
vt 0.765585 0.324266
vt 0.765585 0.470069
vt 0.699474 0.492107
vt 0.699474 0.470069
vt 0.677436 0.425995
vt 0.677436 0.359883
vt 0.703285 0.384035
vt 0.765585 0.384035
vt 0.765585 0.384035
vt 0.831697 0.359883
vt 0.809660 0.425995
vt 0.809660 0.359883
vt 0.765585 0.221655
vt 0.765585 0.401504
vt 0.765585 0.401504
vt 0.765585 0.293771
vt 0.765585 0.315808
vt 0.765585 0.315808
vt 0.765585 0.359883
vt 0.765585 0.359883
vt 0.765585 0.337846
vt 0.787623 0.359883
vt 0.765585 0.425995
vt 0.787623 0.425995
vt 0.655399 0.359883
vt 0.633362 0.425995
vt 0.633362 0.359883
vt 0.655399 0.425995
vt 0.765585 0.425995
vt 0.699474 0.448032
vt 0.699474 0.425995
vt 0.765585 0.448032
vt 0.765585 0.448032
vt 0.765585 0.448032
vt 0.699474 0.315808
vt 0.699474 0.293771
vt 0.699474 0.470069
vt 0.699474 0.448032
vt 0.765585 0.470069
vt 0.655399 0.425995
vt 0.765585 0.470069
vt 0.765585 0.448032
vt 0.765585 0.470069
vt 0.703285 0.401843
vt 0.765585 0.425995
vt 0.699474 0.359883
vt 0.765585 0.337846
vt 0.699474 0.337846
vt 0.765585 0.269619
vt 0.703285 0.269619
vt 0.703285 0.269619
vt 0.699474 0.492107
vt 0.765585 0.470069
vt 0.699474 0.470069
vt 0.677436 0.425995
vt 0.677436 0.359883
vt 0.765585 0.269619
vt 0.765585 0.269619
vt 0.809660 0.425995
vt 0.831697 0.359883
vt 0.809660 0.359883
vt 0.703285 0.384035
vt 0.703285 0.401843
vt 0.765585 0.315808
vt 0.765585 0.293771
vt 0.765585 0.315808
vt 0.765585 0.227659
vt 0.765585 0.227659
vt 0.787623 0.425995
vt 0.703285 0.251811
vt 0.765585 0.221655
vt 0.765585 0.470069
vt 0.765585 0.492107
vt 0.765585 0.492107
vt 0.765585 0.384035
vt 0.765585 0.384035
vt 0.765585 0.359883
vt 0.765585 0.359883
vt 0.765585 0.337846
vt 0.765585 0.425995
vt 0.787623 0.359883
vt 0.633362 0.425995
vt 0.655399 0.359883
vt 0.633362 0.359883
vt 0.655399 0.425995
vt 0.699474 0.448032
vt 0.765585 0.425995
vt 0.699474 0.425995
vt 0.765585 0.448032
vt 0.765585 0.448032
vt 0.765585 0.448032
vt 0.699474 0.315808
vt 0.699474 0.293771
vt 0.699474 0.470069
vt 0.699474 0.448032
vt 0.765585 0.470069
vt 0.655399 0.425995
vt 0.765585 0.448032
vt 0.765585 0.470069
vt 0.703285 0.251811
vt 0.699474 0.227659
vt 0.765585 0.227659
vt 0.769397 0.251811
vt 0.703285 0.269619
vt 0.765585 0.384035
vt 0.765585 0.293771
vt 0.765585 0.384035
vt 0.765585 0.425995
vt 0.765585 0.269619
vt 0.765585 0.227659
vt 0.699474 0.227659
vt 0.703285 0.401843
vt 0.765585 0.227659
vt 0.765585 0.293771
vt 0.765585 0.425995
vt 0.357887 0.304115
vt 0.365838 0.127916
vt 0.365837 0.304115
vt 0.366393 0.287183
vt 0.358443 0.110987
vt 0.366393 0.110987
vt 0.358443 0.297964
vt 0.366393 0.305913
vt 0.347662 0.305913
vt 0.357888 0.117135
vt 0.365838 0.109186
vt 0.129746 0.304115
vt 0.121796 0.127916
vt 0.129745 0.117135
vt 0.130301 0.110982
vt 0.122351 0.287183
vt 0.122351 0.110982
vt 0.130300 0.297964
vt 0.122351 0.305913
vt 0.121796 0.109185
vt 0.347107 0.109186
vt 0.140526 0.109185
vt 0.703285 0.384035
vt 0.765585 0.384035
vt 0.765585 0.227659
vt 0.703285 0.269619
vt 0.703285 0.401843
vt 0.765585 0.384035
vt 0.765585 0.425995
vt 0.703285 0.251811
vt 0.765585 0.269619
vt 0.765585 0.269619
vt 0.765585 0.269619
vt 0.765585 0.425995
vt 0.703285 0.251811
vt 0.703285 0.384035
vt 0.831697 0.425995
vt 0.677436 0.425995
vt 0.831697 0.425995
vt 0.677436 0.425995
vt 0.121796 0.304115
vt 0.141081 0.305913
vt 0.769397 0.251811
vn 0.0000 1.0000 -0.0009
vn 0.0000 0.0000 -1.0000
vn 0.0000 -1.0000 0.0000
vn 0.0000 0.0000 1.0000
vn 0.0000 1.0000 0.0000
vn -1.0000 0.0000 0.0000
vn 1.0000 0.0000 0.0000
vn 0.0000 -1.0000 0.0009
usemtl None
s off
f 72/1/1 98/2/1 84/3/1
f 16/4/2 70/5/2 13/6/2
f 10/7/3 94/8/3 9/9/3
f 20/10/4 66/11/4 17/12/4
f 70/5/3 18/13/3 13/14/3
f 39/15/2 97/16/2 40/17/2
f 74/18/5 24/19/5 21/20/5
f 34/21/1 89/22/1 2/23/1
f 4/24/2 21/25/2 15/26/2
f 16/4/2 75/27/2 69/28/2
f 15/26/2 22/29/2 16/4/2
f 22/30/5 76/31/5 75/27/5
f 21/20/5 23/32/5 22/30/5
f 14/33/3 66/34/3 65/35/3
f 13/14/3 17/36/3 14/33/3
f 6/37/4 18/38/4 71/39/4
f 19/40/6 31/41/6 27/42/6
f 4/24/2 14/43/2 65/44/2
f 15/26/2 13/6/2 14/43/2
f 27/42/4 25/45/4 26/46/4
f 17/12/7 28/47/7 20/10/7
f 18/13/5 25/48/5 17/36/5
f 19/40/6 26/46/6 18/38/6
f 30/49/3 31/41/3 29/50/3
f 27/42/4 32/51/4 28/47/4
f 28/47/7 30/49/7 20/10/7
f 5/52/2 92/53/2 72/1/2
f 82/54/4 48/55/4 45/56/4
f 80/57/2 107/58/2 35/59/2
f 78/60/2 52/61/2 49/62/2
f 50/63/3 82/54/3 45/64/3
f 42/65/2 96/66/2 80/57/2
f 56/67/5 86/68/5 53/69/5
f 7/70/5 104/71/5 5/52/5
f 53/72/4 36/73/4 47/74/4
f 85/75/1 24/19/1 73/76/1
f 55/77/1 76/31/1 23/32/1
f 33/78/4 95/79/4 34/21/4
f 29/50/8 62/80/8 30/49/8
f 56/67/1 23/32/1 24/19/1
f 20/10/8 79/81/8 67/82/8
f 40/17/2 112/83/2 43/84/2
f 87/85/4 48/55/4 81/86/4
f 54/87/4 47/74/4 48/55/4
f 88/88/5 54/89/5 87/85/5
f 55/77/5 53/69/5 54/89/5
f 78/90/3 46/91/3 77/92/3
f 49/93/3 45/64/3 46/91/3
f 50/94/2 38/95/2 83/96/2
f 63/97/6 51/98/6 59/99/6
f 46/100/4 36/73/4 77/101/4
f 45/56/4 47/74/4 46/100/4
f 57/102/2 59/99/2 58/103/2
f 60/104/7 49/62/7 52/61/7
f 57/105/5 50/63/5 49/93/5
f 58/103/6 51/98/6 50/94/6
f 6/37/8 51/98/8 19/40/8
f 63/97/3 62/80/3 61/106/3
f 64/107/2 59/99/2 60/104/2
f 30/49/7 52/61/7 20/10/7
f 62/80/7 60/104/7 52/61/7
f 29/50/6 51/98/6 61/106/6
f 1/108/6 65/44/6 66/109/6
f 1/108/6 67/110/6 2/111/6
f 3/112/6 4/24/6 65/44/6
f 7/70/7 69/28/7 8/113/7
f 5/52/7 70/5/7 7/70/7
f 5/52/7 6/37/7 71/39/7
f 10/7/6 73/76/6 74/114/6
f 11/115/7 76/31/7 12/116/7
f 11/115/7 69/28/7 75/27/7
f 10/7/6 4/24/6 68/117/6
f 33/78/6 77/101/6 35/59/6
f 33/78/6 79/118/6 78/119/6
f 35/59/6 36/73/6 80/57/6
f 39/15/7 81/86/7 82/54/7
f 39/15/7 83/96/7 37/120/7
f 37/120/7 38/95/7 84/3/7
f 42/65/6 85/75/6 41/121/6
f 43/84/7 88/88/7 87/85/7
f 43/84/7 81/86/7 40/17/7
f 42/65/6 36/73/6 86/122/6
f 2/23/6 79/118/6 34/21/6
f 72/1/7 38/95/7 6/37/7
f 41/121/6 73/76/6 9/9/6
f 44/123/7 76/31/7 88/88/7
f 102/124/6 90/125/6 101/126/6
f 91/127/7 104/128/7 103/129/7
f 92/130/7 106/131/7 93/132/7
f 89/133/6 105/134/6 90/125/6
f 108/135/6 96/136/6 95/137/6
f 110/138/7 97/139/7 109/140/7
f 98/141/7 112/142/7 97/139/7
f 111/143/6 95/137/6 96/136/6
f 93/132/7 98/141/7 92/130/7
f 94/144/6 95/137/6 100/145/6
f 37/120/5 109/146/5 39/15/5
f 12/116/3 106/147/3 11/115/3
f 9/9/8 100/148/8 41/121/8
f 1/108/5 101/149/5 3/112/5
f 84/3/4 110/150/4 37/120/4
f 11/115/4 91/151/4 8/113/4
f 44/123/8 93/152/8 12/116/8
f 2/111/2 102/153/2 1/108/2
f 41/121/3 111/154/3 42/65/3
f 68/117/4 105/155/4 10/7/4
f 3/112/4 90/156/4 68/117/4
f 43/84/3 99/157/3 44/123/3
f 35/59/5 108/158/5 33/78/5
f 8/113/4 103/159/4 7/70/4
f 72/1/1 92/53/1 98/2/1
f 16/4/2 69/28/2 70/5/2
f 10/7/3 105/155/3 94/8/3
f 20/10/4 67/82/4 66/11/4
f 70/5/3 71/39/3 18/13/3
f 39/15/2 109/146/2 97/16/2
f 74/18/5 73/160/5 24/19/5
f 34/21/1 95/79/1 89/22/1
f 4/24/2 74/114/2 21/25/2
f 16/4/2 22/29/2 75/27/2
f 15/26/2 21/25/2 22/29/2
f 22/30/5 23/32/5 76/31/5
f 21/20/5 24/19/5 23/32/5
f 14/33/3 17/36/3 66/34/3
f 13/14/3 18/13/3 17/36/3
f 6/37/4 19/40/4 18/38/4
f 19/40/6 29/50/6 31/41/6
f 4/24/2 15/26/2 14/43/2
f 15/26/2 16/4/2 13/6/2
f 27/42/4 28/47/4 25/45/4
f 17/12/7 25/45/7 28/47/7
f 18/13/5 26/161/5 25/48/5
f 19/40/6 27/42/6 26/46/6
f 30/49/3 32/51/3 31/41/3
f 27/42/4 31/41/4 32/51/4
f 28/47/7 32/51/7 30/49/7
f 5/52/2 104/71/2 92/53/2
f 82/54/4 81/86/4 48/55/4
f 80/57/2 96/66/2 107/58/2
f 78/60/2 79/81/2 52/61/2
f 50/63/3 83/96/3 82/54/3
f 42/65/2 111/154/2 96/66/2
f 56/67/5 85/162/5 86/68/5
f 7/70/5 103/159/5 104/71/5
f 53/72/4 86/122/4 36/73/4
f 85/75/1 56/67/1 24/19/1
f 55/77/1 88/88/1 76/31/1
f 33/78/4 108/158/4 95/79/4
f 29/50/8 61/106/8 62/80/8
f 56/67/1 55/77/1 23/32/1
f 20/10/8 52/61/8 79/81/8
f 40/17/2 97/16/2 112/83/2
f 87/85/4 54/87/4 48/55/4
f 54/87/4 53/72/4 47/74/4
f 88/88/5 55/77/5 54/89/5
f 55/77/5 56/67/5 53/69/5
f 78/90/3 49/93/3 46/91/3
f 49/93/3 50/63/3 45/64/3
f 50/94/2 51/98/2 38/95/2
f 63/97/6 61/106/6 51/98/6
f 46/100/4 47/74/4 36/73/4
f 45/56/4 48/55/4 47/74/4
f 57/102/2 60/104/2 59/99/2
f 60/104/7 57/102/7 49/62/7
f 57/105/5 58/163/5 50/63/5
f 58/103/6 59/99/6 51/98/6
f 6/37/8 38/95/8 51/98/8
f 63/97/3 64/107/3 62/80/3
f 64/107/2 63/97/2 59/99/2
f 30/49/7 62/80/7 52/61/7
f 62/80/7 64/107/7 60/104/7
f 29/50/6 19/40/6 51/98/6
f 1/108/6 3/112/6 65/44/6
f 1/108/6 66/109/6 67/110/6
f 3/112/6 68/117/6 4/24/6
f 7/70/7 70/5/7 69/28/7
f 5/52/7 71/39/7 70/5/7
f 5/52/7 72/1/7 6/37/7
f 10/7/6 9/9/6 73/76/6
f 11/115/7 75/27/7 76/31/7
f 11/115/7 8/113/7 69/28/7
f 10/7/6 74/114/6 4/24/6
f 33/78/6 78/119/6 77/101/6
f 33/78/6 34/21/6 79/118/6
f 35/59/6 77/101/6 36/73/6
f 39/15/7 40/17/7 81/86/7
f 39/15/7 82/54/7 83/96/7
f 37/120/7 83/96/7 38/95/7
f 42/65/6 86/122/6 85/75/6
f 43/84/7 44/123/7 88/88/7
f 43/84/7 87/85/7 81/86/7
f 42/65/6 80/57/6 36/73/6
f 2/23/6 67/82/6 79/118/6
f 72/1/7 84/3/7 38/95/7
f 41/121/6 85/75/6 73/76/6
f 44/123/7 12/116/7 76/31/7
f 102/124/6 89/133/6 90/125/6
f 91/127/7 92/130/7 104/128/7
f 92/130/7 91/127/7 106/131/7
f 89/133/6 94/144/6 105/134/6
f 108/135/6 107/164/6 96/136/6
f 110/138/7 98/141/7 97/139/7
f 98/141/7 99/165/7 112/142/7
f 111/143/6 100/145/6 95/137/6
f 93/132/7 99/165/7 98/141/7
f 94/144/6 89/133/6 95/137/6
f 37/120/5 110/150/5 109/146/5
f 12/116/3 93/152/3 106/147/3
f 9/9/8 94/8/8 100/148/8
f 1/108/5 102/153/5 101/149/5
f 84/3/4 98/2/4 110/150/4
f 11/115/4 106/147/4 91/151/4
f 44/123/8 99/157/8 93/152/8
f 2/111/2 89/166/2 102/153/2
f 41/121/3 100/148/3 111/154/3
f 68/117/4 90/156/4 105/155/4
f 3/112/4 101/149/4 90/156/4
f 43/84/3 112/83/3 99/157/3
f 35/59/5 107/58/5 108/158/5
f 8/113/4 91/151/4 103/159/4
