# Blender v3.1.2 OBJ File: 'drzwi1.blend'
# www.blender.org
mtllib drzwi2.mtl
o Drzwi.NR2_Cube.047
v -0.200000 -3.000000 -4.750000
v -0.200000 3.000000 -4.750000
v -0.200000 -3.000000 4.750000
v -0.200000 3.000000 4.750000
v 0.000000 -3.000000 4.750000
v 0.000000 3.000000 4.750000
v 0.000000 -3.000000 -4.750000
v 0.000000 3.000000 -4.750000
v 0.000000 -3.000000 -2.809085
v 0.000000 -3.000000 -3.851754
v 0.000000 3.000000 -3.851754
v 0.000000 3.000000 -2.809085
v -0.200000 3.000000 -2.809085
v -0.200000 3.000000 -3.851754
v -0.200000 -3.000000 -3.851754
v -0.200000 -3.000000 -2.809085
v 0.000000 3.000000 -1.762717
v 0.000000 3.000000 -0.277289
v -0.200000 3.000000 -1.762717
v -0.200000 3.000000 -0.277289
v -0.200000 -3.000000 -0.277289
v -0.200000 -3.000000 -1.762717
v 0.000000 -3.000000 -0.277289
v 0.000000 -3.000000 -1.762717
v 0.000000 -3.000000 2.141195
v 0.000000 -3.000000 0.861823
v -0.200000 -3.000000 0.861823
v -0.200000 -3.000000 2.141195
v 0.000000 3.000000 0.861823
v 0.000000 3.000000 2.141195
v -0.200000 3.000000 0.861823
v -0.200000 3.000000 2.141195
v 0.000000 3.000000 2.948604
v 0.000000 3.000000 3.987779
v -0.200000 3.000000 3.987779
v -0.200000 3.000000 2.948604
v -0.200000 -3.000000 2.948604
v -0.200000 -3.000000 3.987779
v 0.000000 -3.000000 3.987779
v 0.000000 -3.000000 2.948604
v 0.000000 1.335417 4.750000
v 0.000000 -1.341902 4.750000
v 0.000000 -1.341902 -4.750000
v 0.000000 1.335417 -4.750000
v -0.200000 -1.341902 -4.750000
v -0.200000 1.335417 -4.750000
v -0.200000 -1.341902 4.750000
v -0.200000 1.335417 4.750000
v -0.200000 1.335417 -3.851754
v -0.200000 -1.341902 -3.851754
v -0.200000 -1.341902 -2.809085
v -0.200000 1.335417 -2.809085
v -0.200000 1.335417 -1.762717
v -0.200000 -1.341902 -1.762717
v -0.200000 1.335417 -0.277289
v -0.200000 -1.341902 -0.277289
v -0.200000 1.335417 0.861823
v -0.200000 -1.341902 0.861823
v -0.200000 -1.341902 2.141195
v -0.200000 1.335417 2.141195
v -0.200000 1.335417 2.948604
v -0.200000 -1.341902 2.948604
v -0.200000 -1.341902 3.987779
v -0.200000 1.335417 3.987779
v -0.378967 -3.000000 -3.851754
v -0.378967 -3.000000 -4.750000
v -0.378967 3.000000 -4.750000
v -0.378967 3.000000 -3.851754
v -0.378967 3.000000 -2.809085
v -0.378967 3.000000 -1.762717
v -0.378967 -3.000000 -2.809085
v -0.378967 -3.000000 -1.762717
v -0.378967 -3.000000 0.861823
v -0.378967 -3.000000 -0.277289
v -0.378967 3.000000 0.861823
v -0.378967 3.000000 -0.277289
v -0.378967 3.000000 3.987779
v -0.378967 3.000000 4.750000
v -0.378967 3.000000 2.141195
v -0.378967 3.000000 2.948604
v -0.378967 -3.000000 2.141195
v -0.378967 -3.000000 2.948604
v -0.378967 -3.000000 3.987779
v -0.378967 -3.000000 4.750000
v -0.378967 1.335417 2.948604
v -0.378967 -1.341902 2.948604
v -0.378967 -1.341902 3.987779
v -0.378967 1.335417 3.987779
v -0.378967 1.335417 0.861823
v -0.378967 -1.341902 0.861823
v -0.378967 -1.341902 2.141195
v -0.378967 1.335417 2.141195
v -0.378967 1.335417 -0.277289
v -0.378967 -1.341902 -0.277289
v -0.378967 1.335417 4.750000
v -0.378967 -1.341902 4.750000
v -0.378967 1.335417 -1.762717
v -0.378967 -1.341902 -1.762717
v -0.378967 1.335417 -3.851754
v -0.378967 -1.341902 -3.851754
v -0.378967 -1.341902 -2.809085
v -0.378967 1.335417 -2.809085
v -0.378967 1.335417 -4.750000
v -0.378967 -1.341902 -4.750000
v 0.200000 -3.000000 -4.750000
v 0.200000 3.000000 -4.750000
v 0.200000 -3.000000 4.750000
v 0.200000 3.000000 4.750000
v 0.200000 3.000000 -2.809085
v 0.200000 3.000000 -3.851754
v 0.200000 -3.000000 -3.851754
v 0.200000 -3.000000 -2.809085
v 0.200000 3.000000 -1.762717
v 0.200000 3.000000 -0.277289
v 0.200000 -3.000000 -0.277289
v 0.200000 -3.000000 -1.762717
v 0.200000 -3.000000 0.861823
v 0.200000 -3.000000 2.141195
v 0.200000 3.000000 0.861823
v 0.200000 3.000000 2.141195
v 0.200000 3.000000 3.987779
v 0.200000 3.000000 2.948604
v 0.200000 -3.000000 2.948604
v 0.200000 -3.000000 3.987779
v 0.200000 -1.341902 -4.750000
v 0.200000 1.335417 -4.750000
v 0.200000 -1.341902 4.750000
v 0.200000 1.335417 4.750000
v 0.200000 1.335417 -3.851754
v 0.200000 -1.341902 -3.851754
v 0.200000 -1.341902 -2.809085
v 0.200000 1.335417 -2.809085
v 0.200000 1.335417 -1.762717
v 0.200000 -1.341902 -1.762717
v 0.200000 1.335417 -0.277289
v 0.200000 -1.341902 -0.277289
v 0.200000 1.335417 0.861823
v 0.200000 -1.341902 0.861823
v 0.200000 -1.341902 2.141195
v 0.200000 1.335417 2.141195
v 0.200000 1.335417 2.948604
v 0.200000 -1.341902 2.948604
v 0.200000 -1.341902 3.987779
v 0.200000 1.335417 3.987779
v 0.378967 -3.000000 -3.851754
v 0.378967 -3.000000 -4.750000
v 0.378967 3.000000 -4.750000
v 0.378967 3.000000 -3.851754
v 0.378967 3.000000 -2.809085
v 0.378967 3.000000 -1.762717
v 0.378967 -3.000000 -2.809085
v 0.378967 -3.000000 -1.762717
v 0.378967 -3.000000 0.861823
v 0.378967 -3.000000 -0.277289
v 0.378967 3.000000 0.861823
v 0.378967 3.000000 -0.277289
v 0.378967 3.000000 3.987779
v 0.378967 3.000000 4.750000
v 0.378967 3.000000 2.141195
v 0.378967 3.000000 2.948604
v 0.378967 -3.000000 2.141195
v 0.378967 -3.000000 2.948604
v 0.378967 -3.000000 3.987779
v 0.378967 -3.000000 4.750000
v 0.378967 1.335417 2.948604
v 0.378967 -1.341902 2.948604
v 0.378967 -1.341902 3.987779
v 0.378967 1.335417 3.987779
v 0.378967 1.335417 0.861823
v 0.378967 -1.341902 0.861823
v 0.378967 -1.341902 2.141195
v 0.378967 1.335417 2.141195
v 0.378967 1.335417 -0.277289
v 0.378967 -1.341902 -0.277289
v 0.378967 1.335417 4.750000
v 0.378967 -1.341902 4.750000
v 0.378967 1.335417 -1.762717
v 0.378967 -1.341902 -1.762717
v 0.378967 1.335417 -3.851754
v 0.378967 -1.341902 -3.851754
v 0.378967 -1.341902 -2.809085
v 0.378967 1.335417 -2.809085
v 0.378967 1.335417 -4.750000
v 0.378967 -1.341902 -4.750000
vt 0.480326 0.750000
vt 0.375000 0.875000
vt 0.375000 0.750000
vt 0.375000 0.500000
vt 0.250000 0.522355
vt 0.250000 0.500000
vt 0.591881 0.609755
vt 0.480326 0.609755
vt 0.480326 0.609755
vt 0.480326 0.500000
vt 0.375000 0.500000
vt 0.750000 0.589468
vt 0.625000 0.609755
vt 0.625000 0.589468
vt 0.375000 0.726362
vt 0.250000 0.750000
vt 0.250000 0.726362
vt 0.625000 0.589468
vt 0.750000 0.726362
vt 0.625000 0.750000
vt 0.625000 0.726362
vt 0.591881 0.726362
vt 0.625000 0.698923
vt 0.375000 0.698923
vt 0.750000 0.698923
vt 0.375000 0.546867
vt 0.480326 0.522355
vt 0.480326 0.546867
vt 0.375000 0.648845
vt 0.250000 0.698923
vt 0.250000 0.648845
vt 0.750000 0.648845
vt 0.625000 0.648845
vt 0.375000 0.609755
vt 0.750000 0.609755
vt 0.591881 0.648845
vt 0.591881 0.546867
vt 0.625000 0.522355
vt 0.625000 0.546867
vt 0.480326 0.698923
vt 0.480326 0.726362
vt 0.375000 0.589468
vt 0.480326 0.561538
vt 0.480326 0.589468
vt 0.750000 0.561537
vt 0.591881 0.589468
vt 0.625000 0.561537
vt 0.250000 0.589468
vt 0.375000 0.561537
vt 0.250000 0.609755
vt 0.750000 0.546867
vt 0.250000 0.561537
vt 0.250000 0.546867
vt 0.375000 0.522355
vt 0.750000 0.522355
vt 0.750000 0.500000
vt 0.625000 0.500000
vt 0.591881 0.609755
vt 0.375000 0.609755
vt 0.591881 0.561538
vt 0.591881 0.561538
vt 0.480326 0.561538
vt 0.480326 0.589468
vt 0.591881 0.546867
vt 0.591881 0.875000
vt 0.591881 0.750000
vt 0.591881 0.589468
vt 0.480326 0.648845
vt 0.625000 0.375000
vt 0.591881 0.500000
vt 0.591881 0.375000
vt 0.480326 0.648845
vt 0.375000 0.546867
vt 0.591881 0.522355
vt 0.591881 0.522355
vt 0.591881 0.698923
vt 0.591881 0.698923
vt 0.480326 0.375000
vt 0.375000 0.375000
vt 0.375000 0.698923
vt 0.375000 0.648845
vt 0.480326 0.500000
vt 0.375000 0.522355
vt 0.480326 0.726362
vt 0.375000 0.750000
vt 0.375000 0.726362
vt 0.480326 0.546867
vt 0.375000 0.561537
vt 0.625000 0.500000
vt 0.591881 0.500000
vt 0.625000 0.546867
vt 0.375000 0.589468
vt 0.625000 0.648845
vt 0.591881 0.648845
vt 0.625000 0.726362
vt 0.591881 0.750000
vt 0.591881 0.726362
vt 0.480326 0.522355
vt 0.480326 0.698923
vt 0.480326 0.750000
vt 0.625000 0.750000
vt 0.625000 0.522355
vt 0.625000 0.698923
vt 0.625000 0.609755
vt 0.625000 0.561537
vt 0.480326 0.750000
vt 0.375000 0.750000
vt 0.375000 0.500000
vt 0.480326 0.609755
vt 0.591881 0.609755
vt 0.480326 0.609755
vt 0.375000 0.500000
vt 0.480326 0.500000
vt 0.625000 0.609755
vt 0.625000 0.589468
vt 0.375000 0.726362
vt 0.625000 0.589468
vt 0.625000 0.750000
vt 0.625000 0.726362
vt 0.625000 0.698923
vt 0.591881 0.726362
vt 0.375000 0.698923
vt 0.480326 0.522355
vt 0.375000 0.546867
vt 0.480326 0.546867
vt 0.375000 0.648845
vt 0.625000 0.648845
vt 0.375000 0.609755
vt 0.591881 0.648845
vt 0.625000 0.522355
vt 0.591881 0.546867
vt 0.625000 0.546867
vt 0.480326 0.698923
vt 0.480326 0.726362
vt 0.480326 0.589468
vt 0.375000 0.561537
vt 0.375000 0.589468
vt 0.625000 0.561537
vt 0.591881 0.589468
vt 0.375000 0.522355
vt 0.625000 0.500000
vt 0.591881 0.609755
vt 0.375000 0.609755
vt 0.591881 0.561538
vt 0.591881 0.561538
vt 0.480326 0.561538
vt 0.480326 0.561538
vt 0.480326 0.589468
vt 0.591881 0.546867
vt 0.591881 0.750000
vt 0.591881 0.589468
vt 0.480326 0.648845
vt 0.591881 0.500000
vt 0.480326 0.648845
vt 0.375000 0.546867
vt 0.591881 0.522355
vt 0.591881 0.522355
vt 0.591881 0.698923
vt 0.591881 0.698923
vt 0.375000 0.698923
vt 0.375000 0.648845
vt 0.375000 0.522355
vt 0.480326 0.500000
vt 0.375000 0.750000
vt 0.480326 0.726362
vt 0.375000 0.726362
vt 0.375000 0.561537
vt 0.480326 0.546867
vt 0.625000 0.500000
vt 0.591881 0.500000
vt 0.625000 0.546867
vt 0.375000 0.589468
vt 0.625000 0.648845
vt 0.591881 0.648845
vt 0.591881 0.750000
vt 0.625000 0.726362
vt 0.591881 0.726362
vt 0.480326 0.522355
vt 0.480326 0.698923
vt 0.480326 0.750000
vt 0.625000 0.750000
vt 0.625000 0.522355
vt 0.625000 0.698923
vt 0.625000 0.609755
vt 0.625000 0.561537
vt 0.480326 0.875000
vt 0.750000 0.750000
vt 0.625000 0.875000
vn 0.0000 0.0000 -1.0000
vn 0.0000 -1.0000 0.0000
vn 0.0000 -0.0000 1.0000
vn 0.0000 1.0000 0.0000
vn -1.0000 0.0000 0.0000
vn 1.0000 0.0000 0.0000
usemtl Material.035
s off
f 45/1/1 7/2/1 1/3/1
f 3/4/2 39/5/2 5/6/2
f 55/7/3 94/8/3 56/9/3
f 47/10/3 84/11/3 3/4/3
f 29/12/4 20/13/4 31/14/4
f 15/15/2 7/16/2 10/17/2
f 20/13/4 75/18/4 31/14/4
f 11/19/4 2/20/4 14/21/4
f 49/22/5 13/23/5 14/21/5
f 10/17/2 16/24/2 15/15/2
f 14/21/4 12/25/4 11/19/4
f 37/26/5 63/27/5 62/28/5
f 22/29/2 9/30/2 24/31/2
f 17/32/4 13/23/4 19/33/4
f 24/31/2 21/34/2 22/29/2
f 19/33/4 18/35/4 17/32/4
f 53/36/5 20/13/5 19/33/5
f 61/37/5 35/38/5 36/39/5
f 15/15/5 51/40/5 50/41/5
f 27/42/5 59/43/5 58/44/5
f 31/14/4 30/45/4 29/12/4
f 57/46/5 32/47/5 31/14/5
f 26/48/2 28/49/2 27/42/2
f 27/42/2 23/50/2 26/48/2
f 33/51/4 32/47/4 36/39/4
f 37/26/2 25/52/2 40/53/2
f 40/53/2 38/54/2 37/26/2
f 36/39/4 34/55/4 33/51/4
f 6/56/4 35/38/4 4/57/4
f 57/46/2 93/58/2 55/7/2
f 27/42/2 74/59/2 21/34/2
f 57/46/4 92/60/4 60/61/4
f 60/61/3 91/62/3 59/43/3
f 59/43/2 90/63/2 58/44/2
f 36/39/3 85/64/3 61/37/3
f 2/20/1 44/65/1 46/66/1
f 58/44/1 89/67/1 57/46/1
f 22/29/5 56/9/5 54/68/5
f 6/69/3 48/70/3 41/71/3
f 51/40/4 98/72/4 54/68/4
f 62/28/3 82/73/3 37/26/3
f 55/7/5 58/44/5 57/46/5
f 64/74/5 47/10/5 48/70/5
f 60/61/5 62/28/5 61/37/5
f 61/37/4 88/75/4 64/74/4
f 53/36/2 102/76/2 52/77/2
f 44/65/1 45/1/1 46/66/1
f 46/66/5 50/41/5 49/22/5
f 52/77/5 54/68/5 53/36/5
f 48/70/3 42/78/3 41/71/3
f 42/78/3 3/4/3 5/79/3
f 98/72/5 71/80/5 72/81/5
f 96/82/5 83/83/5 84/11/5
f 100/84/5 66/85/5 65/86/5
f 86/87/5 81/88/5 82/73/5
f 75/18/5 93/58/5 89/67/5
f 78/89/5 88/75/5 95/90/5
f 80/91/5 92/60/5 85/64/5
f 90/63/5 74/59/5 73/92/5
f 70/93/5 102/76/5 97/94/5
f 68/95/5 103/96/5 99/97/5
f 87/98/5 85/64/5 86/87/5
f 90/63/5 92/60/5 89/67/5
f 94/8/5 97/94/5 98/72/5
f 101/99/5 99/97/5 100/84/5
f 15/15/2 66/85/2 1/3/2
f 56/9/4 90/63/4 58/44/4
f 2/20/4 68/95/4 14/21/4
f 4/57/3 95/90/3 48/70/3
f 1/3/1 104/100/1 45/1/1
f 48/70/2 88/75/2 64/74/2
f 63/27/4 96/82/4 47/10/4
f 46/66/1 67/101/1 2/20/1
f 61/37/2 92/60/2 60/61/2
f 59/43/4 86/87/4 62/28/4
f 50/41/3 65/86/3 15/15/3
f 54/68/1 97/94/1 53/36/1
f 14/21/3 99/97/3 49/22/3
f 56/9/2 98/72/2 54/68/2
f 38/54/1 87/98/1 63/27/1
f 53/36/4 93/58/4 55/7/4
f 35/38/4 78/89/4 4/57/4
f 64/74/1 77/102/1 35/38/1
f 50/41/1 99/97/1 49/22/1
f 16/24/1 101/99/1 51/40/1
f 51/40/2 100/84/2 50/41/2
f 32/47/4 80/91/4 36/39/4
f 13/23/4 70/93/4 19/33/4
f 52/77/1 69/103/1 13/23/1
f 52/77/3 101/99/3 51/40/3
f 19/33/3 97/94/3 53/36/3
f 49/22/4 102/76/4 52/77/4
f 37/26/2 81/88/2 28/49/2
f 22/29/2 71/80/2 16/24/2
f 54/68/3 72/81/3 22/29/3
f 3/4/2 83/83/2 38/54/2
f 21/34/1 94/8/1 56/9/1
f 55/7/1 76/104/1 20/13/1
f 58/44/3 73/92/3 27/42/3
f 62/28/1 85/64/1 61/37/1
f 31/14/3 89/67/3 57/46/3
f 49/22/2 103/96/2 46/66/2
f 63/27/2 86/87/2 62/28/2
f 28/49/1 91/62/1 59/43/1
f 45/1/4 100/84/4 50/41/4
f 64/74/3 87/98/3 63/27/3
f 60/61/1 79/105/1 32/47/1
f 7/2/1 125/106/1 105/107/1
f 39/5/2 107/108/2 5/6/2
f 174/109/3 135/110/3 136/111/3
f 164/112/3 127/113/3 107/108/3
f 114/114/4 29/12/4 119/115/4
f 7/16/2 111/116/2 10/17/2
f 155/117/4 114/114/4 119/115/4
f 106/118/4 11/19/4 110/119/4
f 109/120/6 129/121/6 110/119/6
f 112/122/2 10/17/2 111/116/2
f 12/25/4 110/119/4 11/19/4
f 143/123/6 123/124/6 142/125/6
f 9/30/2 116/126/2 24/31/2
f 109/120/4 17/32/4 113/127/4
f 115/128/2 24/31/2 116/126/2
f 18/35/4 113/127/4 17/32/4
f 114/114/6 133/129/6 113/127/6
f 121/130/6 141/131/6 122/132/6
f 131/133/6 111/116/6 130/134/6
f 138/135/6 118/136/6 117/137/6
f 30/45/4 119/115/4 29/12/4
f 120/138/6 137/139/6 119/115/6
f 118/136/2 26/48/2 117/137/2
f 23/50/2 117/137/2 26/48/2
f 120/138/4 33/51/4 122/132/4
f 25/52/2 123/124/2 40/53/2
f 124/140/2 40/53/2 123/124/2
f 34/55/4 122/132/4 33/51/4
f 121/130/4 6/56/4 108/141/4
f 173/142/2 137/139/2 135/110/2
f 154/143/2 117/137/2 115/128/2
f 172/144/4 137/139/4 140/145/4
f 171/146/3 140/145/3 139/147/3
f 170/148/2 139/147/2 138/135/2
f 165/149/3 122/132/3 141/131/3
f 44/65/1 106/118/1 126/150/1
f 169/151/1 138/135/1 137/139/1
f 136/111/6 116/126/6 134/152/6
f 128/153/3 6/69/3 41/71/3
f 178/154/4 131/133/4 134/152/4
f 162/155/3 142/125/3 123/124/3
f 138/135/6 135/110/6 137/139/6
f 127/113/6 144/156/6 128/153/6
f 142/125/6 140/145/6 141/131/6
f 168/157/4 141/131/4 144/156/4
f 182/158/2 133/129/2 132/159/2
f 125/106/1 44/65/1 126/150/1
f 130/134/6 126/150/6 129/121/6
f 134/152/6 132/159/6 133/129/6
f 42/78/3 128/153/3 41/71/3
f 107/108/3 42/78/3 5/79/3
f 151/160/6 178/154/6 152/161/6
f 163/162/6 176/163/6 164/112/6
f 146/164/6 180/165/6 145/166/6
f 161/167/6 166/168/6 162/155/6
f 173/142/6 155/117/6 169/151/6
f 168/157/6 158/169/6 175/170/6
f 172/144/6 160/171/6 165/149/6
f 153/172/6 174/109/6 170/148/6
f 182/158/6 150/173/6 177/174/6
f 183/175/6 148/176/6 179/177/6
f 165/149/6 167/178/6 166/168/6
f 169/151/6 171/146/6 170/148/6
f 177/174/6 174/109/6 178/154/6
f 179/177/6 181/179/6 180/165/6
f 146/164/2 111/116/2 105/107/2
f 170/148/4 136/111/4 138/135/4
f 148/176/4 106/118/4 110/119/4
f 175/170/3 108/141/3 128/153/3
f 184/180/1 105/107/1 125/106/1
f 168/157/2 128/153/2 144/156/2
f 176/163/4 143/123/4 127/113/4
f 147/181/1 126/150/1 106/118/1
f 172/144/2 141/131/2 140/145/2
f 166/168/4 139/147/4 142/125/4
f 145/166/3 130/134/3 111/116/3
f 177/174/1 134/152/1 133/129/1
f 179/177/3 110/119/3 129/121/3
f 178/154/2 136/111/2 134/152/2
f 167/178/1 124/140/1 143/123/1
f 173/142/4 133/129/4 135/110/4
f 158/169/4 121/130/4 108/141/4
f 157/182/1 144/156/1 121/130/1
f 179/177/1 130/134/1 129/121/1
f 181/179/1 112/122/1 131/133/1
f 180/165/2 131/133/2 130/134/2
f 160/171/4 120/138/4 122/132/4
f 150/173/4 109/120/4 113/127/4
f 149/183/1 132/159/1 109/120/1
f 181/179/3 132/159/3 131/133/3
f 177/174/3 113/127/3 133/129/3
f 182/158/4 129/121/4 132/159/4
f 161/167/2 123/124/2 118/136/2
f 151/160/2 116/126/2 112/122/2
f 152/161/3 134/152/3 116/126/3
f 163/162/2 107/108/2 124/140/2
f 174/109/1 115/128/1 136/111/1
f 156/184/1 135/110/1 114/114/1
f 153/172/3 138/135/3 117/137/3
f 165/149/1 142/125/1 141/131/1
f 169/151/3 119/115/3 137/139/3
f 183/175/2 129/121/2 126/150/2
f 166/168/2 143/123/2 142/125/2
f 171/146/1 118/136/1 139/147/1
f 180/165/4 125/106/4 130/134/4
f 167/178/3 144/156/3 143/123/3
f 159/185/1 140/145/1 120/138/1
f 45/1/1 43/186/1 7/2/1
f 3/4/2 38/54/2 39/5/2
f 55/7/3 93/58/3 94/8/3
f 47/10/3 96/82/3 84/11/3
f 29/12/4 18/35/4 20/13/4
f 15/15/2 1/3/2 7/16/2
f 20/13/4 76/104/4 75/18/4
f 11/19/4 8/187/4 2/20/4
f 49/22/5 52/77/5 13/23/5
f 10/17/2 9/30/2 16/24/2
f 14/21/4 13/23/4 12/25/4
f 37/26/5 38/54/5 63/27/5
f 22/29/2 16/24/2 9/30/2
f 17/32/4 12/25/4 13/23/4
f 24/31/2 23/50/2 21/34/2
f 19/33/4 20/13/4 18/35/4
f 53/36/5 55/7/5 20/13/5
f 61/37/5 64/74/5 35/38/5
f 15/15/5 16/24/5 51/40/5
f 27/42/5 28/49/5 59/43/5
f 31/14/4 32/47/4 30/45/4
f 57/46/5 60/61/5 32/47/5
f 26/48/2 25/52/2 28/49/2
f 27/42/2 21/34/2 23/50/2
f 33/51/4 30/45/4 32/47/4
f 37/26/2 28/49/2 25/52/2
f 40/53/2 39/5/2 38/54/2
f 36/39/4 35/38/4 34/55/4
f 6/56/4 34/55/4 35/38/4
f 57/46/2 89/67/2 93/58/2
f 27/42/2 73/92/2 74/59/2
f 57/46/4 89/67/4 92/60/4
f 60/61/3 92/60/3 91/62/3
f 59/43/2 91/62/2 90/63/2
f 36/39/3 80/91/3 85/64/3
f 2/20/1 8/188/1 44/65/1
f 58/44/1 90/63/1 89/67/1
f 22/29/5 21/34/5 56/9/5
f 6/69/3 4/57/3 48/70/3
f 51/40/4 101/99/4 98/72/4
f 62/28/3 86/87/3 82/73/3
f 55/7/5 56/9/5 58/44/5
f 64/74/5 63/27/5 47/10/5
f 60/61/5 59/43/5 62/28/5
f 61/37/4 85/64/4 88/75/4
f 53/36/2 97/94/2 102/76/2
f 44/65/1 43/186/1 45/1/1
f 46/66/5 45/1/5 50/41/5
f 52/77/5 51/40/5 54/68/5
f 48/70/3 47/10/3 42/78/3
f 42/78/3 47/10/3 3/4/3
f 98/72/5 101/99/5 71/80/5
f 96/82/5 87/98/5 83/83/5
f 100/84/5 104/100/5 66/85/5
f 86/87/5 91/62/5 81/88/5
f 75/18/5 76/104/5 93/58/5
f 78/89/5 77/102/5 88/75/5
f 80/91/5 79/105/5 92/60/5
f 90/63/5 94/8/5 74/59/5
f 70/93/5 69/103/5 102/76/5
f 68/95/5 67/101/5 103/96/5
f 87/98/5 88/75/5 85/64/5
f 90/63/5 91/62/5 92/60/5
f 94/8/5 93/58/5 97/94/5
f 101/99/5 102/76/5 99/97/5
f 15/15/2 65/86/2 66/85/2
f 56/9/4 94/8/4 90/63/4
f 2/20/4 67/101/4 68/95/4
f 4/57/3 78/89/3 95/90/3
f 1/3/1 66/85/1 104/100/1
f 48/70/2 95/90/2 88/75/2
f 63/27/4 87/98/4 96/82/4
f 46/66/1 103/96/1 67/101/1
f 61/37/2 85/64/2 92/60/2
f 59/43/4 91/62/4 86/87/4
f 50/41/3 100/84/3 65/86/3
f 54/68/1 98/72/1 97/94/1
f 14/21/3 68/95/3 99/97/3
f 56/9/2 94/8/2 98/72/2
f 38/54/1 83/83/1 87/98/1
f 53/36/4 97/94/4 93/58/4
f 35/38/4 77/102/4 78/89/4
f 64/74/1 88/75/1 77/102/1
f 50/41/1 100/84/1 99/97/1
f 16/24/1 71/80/1 101/99/1
f 51/40/2 101/99/2 100/84/2
f 32/47/4 79/105/4 80/91/4
f 13/23/4 69/103/4 70/93/4
f 52/77/1 102/76/1 69/103/1
f 52/77/3 102/76/3 101/99/3
f 19/33/3 70/93/3 97/94/3
f 49/22/4 99/97/4 102/76/4
f 37/26/2 82/73/2 81/88/2
f 22/29/2 72/81/2 71/80/2
f 54/68/3 98/72/3 72/81/3
f 3/4/2 84/11/2 83/83/2
f 21/34/1 74/59/1 94/8/1
f 55/7/1 93/58/1 76/104/1
f 58/44/3 90/63/3 73/92/3
f 62/28/1 86/87/1 85/64/1
f 31/14/3 75/18/3 89/67/3
f 49/22/2 99/97/2 103/96/2
f 63/27/2 87/98/2 86/87/2
f 28/49/1 81/88/1 91/62/1
f 45/1/4 104/100/4 100/84/4
f 64/74/3 88/75/3 87/98/3
f 60/61/1 92/60/1 79/105/1
f 7/2/1 43/186/1 125/106/1
f 39/5/2 124/140/2 107/108/2
f 174/109/3 173/142/3 135/110/3
f 164/112/3 176/163/3 127/113/3
f 114/114/4 18/35/4 29/12/4
f 7/16/2 105/107/2 111/116/2
f 155/117/4 156/184/4 114/114/4
f 106/118/4 8/187/4 11/19/4
f 109/120/6 132/159/6 129/121/6
f 112/122/2 9/30/2 10/17/2
f 12/25/4 109/120/4 110/119/4
f 143/123/6 124/140/6 123/124/6
f 9/30/2 112/122/2 116/126/2
f 109/120/4 12/25/4 17/32/4
f 115/128/2 23/50/2 24/31/2
f 18/35/4 114/114/4 113/127/4
f 114/114/6 135/110/6 133/129/6
f 121/130/6 144/156/6 141/131/6
f 131/133/6 112/122/6 111/116/6
f 138/135/6 139/147/6 118/136/6
f 30/45/4 120/138/4 119/115/4
f 120/138/6 140/145/6 137/139/6
f 118/136/2 25/52/2 26/48/2
f 23/50/2 115/128/2 117/137/2
f 120/138/4 30/45/4 33/51/4
f 25/52/2 118/136/2 123/124/2
f 124/140/2 39/5/2 40/53/2
f 34/55/4 121/130/4 122/132/4
f 121/130/4 34/55/4 6/56/4
f 173/142/2 169/151/2 137/139/2
f 154/143/2 153/172/2 117/137/2
f 172/144/4 169/151/4 137/139/4
f 171/146/3 172/144/3 140/145/3
f 170/148/2 171/146/2 139/147/2
f 165/149/3 160/171/3 122/132/3
f 44/65/1 8/188/1 106/118/1
f 169/151/1 170/148/1 138/135/1
f 136/111/6 115/128/6 116/126/6
f 128/153/3 108/141/3 6/69/3
f 178/154/4 181/179/4 131/133/4
f 162/155/3 166/168/3 142/125/3
f 138/135/6 136/111/6 135/110/6
f 127/113/6 143/123/6 144/156/6
f 142/125/6 139/147/6 140/145/6
f 168/157/4 165/149/4 141/131/4
f 182/158/2 177/174/2 133/129/2
f 125/106/1 43/186/1 44/65/1
f 130/134/6 125/106/6 126/150/6
f 134/152/6 131/133/6 132/159/6
f 42/78/3 127/113/3 128/153/3
f 107/108/3 127/113/3 42/78/3
f 151/160/6 181/179/6 178/154/6
f 163/162/6 167/178/6 176/163/6
f 146/164/6 184/180/6 180/165/6
f 161/167/6 171/146/6 166/168/6
f 173/142/6 156/184/6 155/117/6
f 168/157/6 157/182/6 158/169/6
f 172/144/6 159/185/6 160/171/6
f 153/172/6 154/143/6 174/109/6
f 182/158/6 149/183/6 150/173/6
f 183/175/6 147/181/6 148/176/6
f 165/149/6 168/157/6 167/178/6
f 169/151/6 172/144/6 171/146/6
f 177/174/6 173/142/6 174/109/6
f 179/177/6 182/158/6 181/179/6
f 146/164/2 145/166/2 111/116/2
f 170/148/4 174/109/4 136/111/4
f 148/176/4 147/181/4 106/118/4
f 175/170/3 158/169/3 108/141/3
f 184/180/1 146/164/1 105/107/1
f 168/157/2 175/170/2 128/153/2
f 176/163/4 167/178/4 143/123/4
f 147/181/1 183/175/1 126/150/1
f 172/144/2 165/149/2 141/131/2
f 166/168/4 171/146/4 139/147/4
f 145/166/3 180/165/3 130/134/3
f 177/174/1 178/154/1 134/152/1
f 179/177/3 148/176/3 110/119/3
f 178/154/2 174/109/2 136/111/2
f 167/178/1 163/162/1 124/140/1
f 173/142/4 177/174/4 133/129/4
f 158/169/4 157/182/4 121/130/4
f 157/182/1 168/157/1 144/156/1
f 179/177/1 180/165/1 130/134/1
f 181/179/1 151/160/1 112/122/1
f 180/165/2 181/179/2 131/133/2
f 160/171/4 159/185/4 120/138/4
f 150/173/4 149/183/4 109/120/4
f 149/183/1 182/158/1 132/159/1
f 181/179/3 182/158/3 132/159/3
f 177/174/3 150/173/3 113/127/3
f 182/158/4 179/177/4 129/121/4
f 161/167/2 162/155/2 123/124/2
f 151/160/2 152/161/2 116/126/2
f 152/161/3 178/154/3 134/152/3
f 163/162/2 164/112/2 107/108/2
f 174/109/1 154/143/1 115/128/1
f 156/184/1 173/142/1 135/110/1
f 153/172/3 170/148/3 138/135/3
f 165/149/1 166/168/1 142/125/1
f 169/151/3 155/117/3 119/115/3
f 183/175/2 179/177/2 129/121/2
f 166/168/2 167/178/2 143/123/2
f 171/146/1 161/167/1 118/136/1
f 180/165/4 184/180/4 125/106/4
f 167/178/3 168/157/3 144/156/3
f 159/185/1 172/144/1 140/145/1
