# Blender v2.91.0 OBJ File: ''
# www.blender.org
o Sphere.001
v -0.397678 -0.502616 0.029925
v 0.381806 -1.978218 -0.103685
v -0.465623 -0.348489 0.353858
v 1.985824 -4.818365 0.519522
v 1.916993 -5.033180 0.623785
v 1.929465 -5.044856 0.606958
v -0.577878 -0.280636 0.029925
v -0.465623 -0.348489 -0.294008
v 0.283631 -1.789414 -0.640532
v 0.315065 -1.863793 -0.448586
v 2.695634 -4.461619 0.444667
v 2.625520 -4.853063 0.586625
v 2.727127 -4.839128 0.537395
v -0.304424 -0.140514 0.581037
v -0.047806 -0.355064 0.554061
v -0.001300 0.014823 0.677796
v -0.647098 0.066615 0.029925
v -0.559064 -0.046038 0.353858
v -0.528620 0.333556 0.230125
v -0.304424 -0.140514 -0.521187
v -0.559064 -0.046038 -0.294009
v -0.327201 0.211811 -0.494215
v 1.708355 -3.759957 -0.358842
v 0.660947 -1.729213 -0.817176
v 0.911428 -1.652710 -0.816711
v 1.708355 -3.759957 0.322364
v 1.014632 -1.541012 0.030625
v 0.884638 -1.581874 0.086775
v -0.327201 0.211811 0.554064
v -0.528620 0.333556 -0.170276
v -0.001300 0.014823 -0.617948
v 1.041113 -1.595372 -0.759323
v 2.023438 -3.611848 -0.218440
v 0.301825 0.170160 0.581037
v 0.613503 0.041208 0.353858
v 0.373860 0.432030 0.353858
v -0.252629 0.505293 0.370527
v 0.029145 0.394419 0.554061
v 0.047962 0.629015 0.230124
v -0.252629 0.505293 -0.310678
v -0.296755 0.591404 0.029925
v 0.047962 0.629015 -0.170275
v 0.301825 0.170160 -0.521187
v 0.029145 0.394419 -0.494212
v 0.373860 0.432030 -0.294008
v 0.736984 -0.092871 0.029925
v 0.613503 0.041208 -0.294009
v 0.575278 0.310282 0.029925
v 0.333836 0.569280 0.029925
v 1.210873 -1.506540 -0.639589
v 1.246176 -1.485720 -0.445978
v 0.364384 -0.206210 -0.494215
v 0.364384 -0.206210 0.554064
v 2.023438 -3.611848 0.181962
v 1.243783 -1.479172 -0.287778
v 1.202227 -1.484139 -0.095515
v -0.047806 -0.355064 -0.494212
v 0.629025 -1.667323 0.087166
v 2.756071 -4.394253 -0.218440
v 2.958569 -4.639720 0.054890
v 2.958569 -4.639720 -0.092243
v 1.774315 -3.859265 -0.018239
v 1.725818 -3.786249 -0.268667
v 1.934849 -3.699831 -0.147248
v 1.356496 -3.852690 -0.218439
v 0.514843 -1.756425 -0.761318
v 1.504093 -3.855012 -0.147717
v 1.494019 -3.854854 0.116066
v 0.345361 -1.921651 -0.283272
v 1.356496 -3.852690 0.181961
v 0.531399 -1.797662 0.022991
v 2.361981 -4.591173 -0.639838
v 2.698984 -4.739975 -0.721943
v 2.379444 -4.617465 -0.549663
v 1.427775 -4.907425 0.181961
v 1.443569 -5.148548 -0.077193
v 1.443569 -5.148548 0.042408
v 1.727313 -3.788499 0.224471
v 1.931404 -3.703251 0.108001
v 1.798858 -4.862967 -0.487160
v 1.792309 -5.044295 -0.692702
v 1.843450 -5.044679 -0.673109
v 2.628916 -4.855749 0.552300
v 2.603600 -4.553022 0.370707
v 2.399508 -4.638269 0.487176
v 2.717420 -4.844173 0.511462
v 2.380551 -4.609728 0.585069
v 1.828075 -5.071996 0.564294
v 1.752530 -4.884721 0.411118
v 1.966866 -4.789823 0.617415
v 1.763158 -5.071112 0.563832
v 1.615008 -4.882556 0.477012
v 1.481949 -5.150712 0.022725
v 1.484761 -5.150870 -0.056068
v 1.575372 -4.909747 -0.147717
v 1.427775 -4.907425 -0.218439
v 1.565299 -4.909589 0.116066
v 1.914226 -5.028956 -0.731600
v 1.920277 -5.033306 -0.706618
v 2.003120 -4.767911 -0.698285
v 2.020583 -4.794203 -0.608110
v 1.651262 -4.860644 -0.557882
v 2.763469 -4.718163 -0.689196
v 2.693597 -4.733339 -0.746262
v 2.790798 -4.695956 -0.708396
v 2.677064 -4.443065 -0.499436
v 2.588475 -4.531047 -0.428244
v 2.912782 -4.649958 -0.066083
v 2.756071 -4.394253 0.181962
v 2.911001 -4.650356 0.027712
v 2.667483 -4.482235 -0.147248
v 2.664037 -4.485656 0.108001
v 2.453243 -4.018468 0.108001
v 2.456688 -4.015047 -0.147248
v 2.545276 -3.927065 0.181962
v 2.545276 -3.927065 -0.218440
v 2.217936 -4.269650 0.566092
v 2.198978 -4.241108 0.663986
v 2.422027 -4.184402 0.449623
v 2.514061 -4.092999 0.523583
v 1.528837 -4.470507 0.558391
v 1.880696 -4.377774 0.698794
v 1.666360 -4.472672 0.492497
v 1.899654 -4.406316 0.600901
v 1.340943 -4.542805 -0.147717
v 1.330869 -4.542646 0.116066
v 1.193346 -4.540483 -0.218439
v 1.193346 -4.540483 0.181961
v 1.503794 -4.406992 -0.609388
v 1.651391 -4.409315 -0.538666
v 1.873116 -4.340551 -0.659616
v 1.855653 -4.314259 -0.749791
v 2.220545 -4.209219 -0.539839
v 2.429576 -4.122801 -0.418420
v 2.203082 -4.182927 -0.630014
v 2.518165 -4.034819 -0.489612
vt 0.181819 0.000000
vt 0.178644 0.078731
vt 0.136365 0.078731
vt 0.298856 0.157461
vt 0.272728 0.157461
vt 0.298856 0.157461
vt 0.909091 0.000000
vt 0.954545 0.078731
vt 0.863636 0.078731
vt 0.727273 0.000000
vt 0.772727 0.078731
vt 0.681818 0.078731
vt 0.545455 0.000000
vt 0.553528 0.078731
vt 0.526986 0.031989
vt 0.318182 0.236191
vt 0.272728 0.157461
vt 0.318182 0.236191
vt 0.090910 0.157461
vt 0.181819 0.157461
vt 0.136365 0.236191
vt 0.818182 0.157461
vt 0.909091 0.157461
vt 0.863636 0.236191
vt 0.636364 0.157461
vt 0.727273 0.157461
vt 0.681818 0.236191
vt 0.454546 0.157461
vt 0.508766 0.157461
vt 0.481499 0.204145
vt 0.272728 0.157461
vt 0.262904 0.236191
vt 0.244869 0.205714
vt 0.045455 0.236191
vt 0.772727 0.236191
vt 0.590909 0.236191
vt 0.462919 0.236191
vt 0.409092 0.236191
vt 0.181819 0.314921
vt 0.272728 0.314921
vt 0.227273 0.393651
vt 0.000000 0.314921
vt 0.090910 0.314921
vt 0.045455 0.393651
vt 0.727273 0.314921
vt 0.818182 0.314921
vt 0.772727 0.393651
vt 0.545455 0.314921
vt 0.636364 0.314921
vt 0.590909 0.393651
vt 0.363637 0.314921
vt 0.454546 0.314921
vt 0.409092 0.393651
vt 0.500000 0.393651
vt 0.454546 0.472382
vt 0.681818 0.393651
vt 0.636364 0.472382
vt 0.863636 0.393651
vt 0.818182 0.472382
vt 0.909091 0.314921
vt 0.136365 0.393651
vt 0.090910 0.472382
vt 0.318182 0.393651
vt 0.272728 0.472382
vt 0.435288 0.281564
vt 0.381628 0.283759
vt 0.500000 0.236191
vt 0.227273 0.236191
vt 0.318182 0.236191
vt 0.345730 0.283905
vt 0.291708 0.282047
vt 0.545455 0.157461
vt 0.954545 0.236191
vt 1.000000 0.157461
vt 0.216856 0.157461
vt 0.409091 0.236191
vt 0.318182 0.236191
vt 0.409092 0.236191
vt 0.363637 0.157461
vt 0.430478 0.157461
vt 0.392928 0.208194
vt 0.500000 0.078731
vt 0.527243 0.125917
vt 0.590909 0.078731
vt 0.393034 0.106542
vt 0.333144 0.104644
vt 0.344383 0.033349
vt 0.409092 0.078731
vt 0.318182 0.078731
vt 0.200567 0.124989
vt 0.227273 0.078731
vt 0.201073 0.033349
vt 0.382106 0.031989
vt 0.363637 0.000000
vt 0.454546 0.157461
vt 0.430478 0.157461
vt 0.430478 0.157461
vt 0.318183 0.078731
vt 0.409092 0.078731
vt 0.318182 0.078731
vt 0.298856 0.157461
vt 0.334975 0.207106
vt 0.393034 0.106542
vt 0.409092 0.078731
vt 0.393034 0.106542
vt 0.298856 0.157461
vt 0.334975 0.207106
vt 0.298856 0.157461
vt 0.334975 0.207106
vt 0.272728 0.157461
vt 0.333144 0.104644
vt 0.333144 0.104644
vt 0.272728 0.157461
vt 0.227273 0.078731
vt 0.318182 0.078731
vt 0.318182 0.078731
vt 0.333144 0.104644
vt 0.393034 0.106542
vt 0.393034 0.106542
vt 0.409092 0.078731
vt 0.333144 0.104644
vt 0.454546 0.157461
vt 0.430478 0.157461
vt 0.454546 0.157461
vt 0.430478 0.157461
vt 0.500000 0.078731
vt 0.500000 0.078730
vt 0.392928 0.208194
vt 0.454546 0.157461
vt 0.409092 0.236191
vt 0.409091 0.236191
vt 0.392928 0.208194
vt 0.392928 0.208194
vt 0.318182 0.236191
vt 0.334975 0.207106
vt 0.392928 0.208194
vt 0.334975 0.207106
vt 0.334975 0.207106
vt 0.392928 0.208194
vt 0.318182 0.236191
vt 0.409091 0.236191
vt 0.298856 0.157461
vt 0.272728 0.157461
vt 0.334975 0.207106
vt 0.318182 0.236191
vt 0.318182 0.078731
vt 0.227273 0.078731
vt 0.272728 0.157461
vt 0.333144 0.104644
vt 0.298856 0.157461
vt 0.393034 0.106542
vt 0.333144 0.104644
vt 0.409092 0.078731
vt 0.318183 0.078731
vt 0.500000 0.078731
vt 0.393034 0.106542
vt 0.430478 0.157461
vt 0.454546 0.157461
vt 0.430478 0.157461
vt 0.392928 0.208194
vt 0.454546 0.157461
vt 0.409091 0.236191
vt 0.409091 0.078730
vt 0.227273 0.078731
vt 0.409091 0.078730
vn -0.8516 -0.5242 0.0052
vn -0.7808 -0.4133 0.4685
vn -0.7333 -0.4472 0.5121
vn 0.8731 -0.0447 -0.4855
vn 0.2162 -0.3038 0.9279
vn 0.7130 -0.6964 0.0818
vn -0.9131 -0.4077 0.0000
vn -0.7866 -0.3766 -0.4893
vn -0.7428 -0.3461 -0.5731
vn -0.8862 -0.4629 -0.0191
vn 0.9380 0.3448 -0.0339
vn -0.0938 -0.6295 0.7713
vn 0.8492 -0.3760 0.3707
vn -0.4495 -0.2244 0.8646
vn -0.1448 -0.3903 0.9092
vn -0.0084 0.0032 0.9999
vn -0.9968 0.0799 0.0000
vn -0.8678 -0.0442 0.4949
vn -0.8139 0.4920 0.3090
vn -0.4495 -0.2244 -0.8646
vn -0.8678 -0.0442 -0.4949
vn -0.5030 0.3040 -0.8090
vn 0.0457 0.0710 -0.9964
vn -0.1621 -0.0832 -0.9832
vn 0.1772 0.0620 -0.9822
vn -0.0426 0.2093 0.9769
vn 0.4629 0.0925 0.8816
vn 0.2187 -0.0295 0.9753
vn -0.5030 0.3040 0.8090
vn -0.8139 0.4920 -0.3090
vn -0.0084 0.0032 -0.9999
vn 0.4187 0.1671 -0.8926
vn 0.7131 0.4486 -0.5387
vn 0.4339 0.2673 0.8604
vn 0.7962 0.2612 0.5457
vn 0.5634 0.6594 0.4977
vn -0.3879 0.7570 0.5257
vn 0.0470 0.5859 0.8090
vn 0.0760 0.9480 0.3090
vn -0.3879 0.7570 -0.5257
vn -0.4560 0.8900 0.0000
vn 0.0760 0.9480 -0.3090
vn 0.4339 0.2673 -0.8604
vn 0.0470 0.5859 -0.8090
vn 0.5634 0.6594 -0.4977
vn 0.9351 0.3527 0.0338
vn 0.7702 0.3651 -0.5228
vn 0.8449 0.5348 0.0000
vn 0.5173 0.8558 0.0000
vn 0.7372 0.3022 -0.6043
vn 0.9284 0.3533 -0.1152
vn 0.2704 0.1169 -0.9556
vn 0.3829 -0.1238 0.9154
vn 0.6556 0.4923 0.5725
vn 0.9353 0.3421 0.0905
vn 0.8013 0.2679 0.5348
vn -0.2171 -0.1391 -0.9662
vn -0.0956 -0.2081 0.9734
vn 0.4330 0.0880 -0.8971
vn 0.7446 -0.3573 0.5637
vn 0.7442 -0.3570 -0.5646
vn 0.3717 -0.9283 0.0000
vn 0.3440 -0.8907 0.2971
vn 0.1214 -0.9764 0.1784
vn -0.7555 -0.3025 -0.5810
vn -0.3770 -0.1788 -0.9088
vn 0.5055 -0.8522 0.1346
vn 0.5098 -0.8460 -0.1562
vn -0.8856 -0.4642 0.0145
vn -0.7532 -0.1885 0.6301
vn -0.3544 -0.2623 0.8975
vn -0.5852 -0.3587 -0.7272
vn 0.0354 -0.9985 0.0418
vn -0.5699 -0.6905 0.4454
vn -0.3157 -0.2923 0.9027
vn -0.4823 -0.7066 -0.5178
vn -0.4814 -0.7054 0.5202
vn 0.3348 -0.8832 -0.3283
vn 0.1506 -0.9738 -0.1701
vn 0.0673 -0.3077 0.9491
vn -0.6205 -0.6774 -0.3950
vn 0.0945 -0.9185 0.3840
vn -0.2842 -0.9057 -0.3144
vn 0.1190 -0.1113 -0.9866
vn -0.6862 -0.5034 -0.5251
vn 0.5097 -0.6331 -0.5825
vn -0.5013 -0.4103 0.7618
vn 0.2070 -0.9500 -0.2336
vn 0.0135 -0.2229 -0.9747
vn 0.5898 -0.0451 0.8063
vn -0.5437 -0.8077 0.2279
vn -0.9324 -0.3527 -0.0791
vn 0.5284 -0.7877 0.3167
vn 0.5409 -0.7878 -0.2944
vn 0.8671 0.0154 -0.4979
vn -0.3151 -0.2941 -0.9023
vn 0.8479 0.0178 0.5298
vn 0.2927 -0.4773 -0.8285
vn 0.6280 -0.7704 0.1094
vn 0.6209 0.0421 -0.7828
vn 0.8998 -0.0687 0.4308
vn -0.9063 -0.4159 0.0746
vn 0.5063 -0.7906 0.3443
vn -0.0345 -0.3950 -0.9180
vn 0.9239 0.0018 -0.3825
vn 0.9279 0.3699 0.0456
vn 0.1857 -0.3458 0.9197
vn -0.2075 -0.9295 -0.3049
vn 0.4336 0.0867 0.8969
vn -0.2116 -0.9312 0.2966
vn -0.6178 -0.6026 -0.5052
vn -0.6234 -0.6099 0.4892
vn -0.6321 -0.5554 0.5403
vn -0.6243 -0.5488 -0.5559
vn 0.4561 0.4001 0.7949
vn 0.4561 0.4001 -0.7949
vn -0.7016 -0.5678 -0.4304
vn -0.4212 -0.1306 0.8975
vn 0.1253 -0.0503 -0.9908
vn 0.7985 0.5605 0.2194
vn -0.9440 -0.1986 0.2634
vn 0.4150 0.2520 0.8742
vn 0.0120 -0.1556 -0.9877
vn 0.9172 0.1519 -0.3682
vn 0.7982 0.1546 -0.5821
vn 0.7773 0.1490 0.6113
vn -0.6426 -0.1204 -0.7566
vn -0.6426 -0.1204 0.7566
vn -0.9440 -0.2048 -0.2587
vn 0.0375 -0.2348 0.9713
vn 0.9121 0.1856 0.3655
vn 0.3814 0.3194 -0.8674
vn -0.6635 -0.5814 0.4708
vn 0.1924 -0.1158 0.9744
vn -0.4475 -0.0724 -0.8913
vn 0.8019 0.5797 -0.1448
s 1
f 1/1/1 2/2/2 3/3/3
f 4/4/4 5/5/5 6/6/6
f 1/7/1 3/8/3 7/9/7
f 1/10/1 7/11/7 8/12/8
f 1/13/1 9/14/9 10/15/10
f 11/16/11 12/17/12 13/18/13
f 14/19/14 15/20/15 16/21/16
f 17/22/17 18/23/18 19/24/19
f 20/25/20 21/26/21 22/27/22
f 23/28/23 24/29/24 25/30/25
f 26/31/26 27/32/27 28/33/28
f 14/19/14 16/21/16 29/34/29
f 17/22/17 19/24/19 30/35/30
f 20/25/20 22/27/22 31/36/31
f 23/28/23 32/37/32 33/38/33
f 34/39/34 35/40/35 36/41/36
f 37/42/37 38/43/38 39/44/39
f 40/45/40 41/46/41 42/47/42
f 43/48/43 44/49/44 45/50/45
f 46/51/46 47/52/47 48/53/48
f 48/53/48 45/54/45 49/55/49
f 48/53/48 47/52/47 45/54/45
f 47/52/47 43/48/43 45/54/45
f 45/50/45 42/56/42 49/57/49
f 45/50/45 44/49/44 42/56/42
f 44/49/44 40/45/40 42/56/42
f 42/47/42 39/58/39 49/59/49
f 42/47/42 41/46/41 39/58/39
f 41/46/41 37/60/37 39/58/39
f 39/44/39 36/61/36 49/62/49
f 39/44/39 38/43/38 36/61/36
f 38/43/38 34/39/34 36/61/36
f 36/41/36 48/63/48 49/64/49
f 36/41/36 35/40/35 48/63/48
f 35/40/35 46/51/46 48/63/48
f 33/38/33 50/65/50 51/66/51
f 33/38/33 32/37/32 50/65/50
f 52/67/52 43/48/43 47/52/47
f 31/36/31 44/49/44 43/48/43
f 31/36/31 22/27/22 44/49/44
f 22/27/22 40/45/40 44/49/44
f 30/35/30 41/46/41 40/45/40
f 30/35/30 19/24/19 41/46/41
f 19/24/19 37/60/37 41/46/41
f 29/34/29 38/43/38 37/42/37
f 29/34/29 16/21/16 38/43/38
f 16/21/16 34/39/34 38/43/38
f 53/68/53 35/40/35 34/39/34
f 27/32/27 35/40/35 53/68/53
f 54/69/54 55/70/55 56/71/56
f 52/67/52 31/36/31 43/48/43
f 52/67/52 57/72/57 31/36/31
f 57/72/57 20/25/20 31/36/31
f 22/27/22 30/35/30 40/45/40
f 22/27/22 21/26/21 30/35/30
f 21/26/21 17/22/17 30/35/30
f 19/24/19 29/73/29 37/60/37
f 19/24/19 18/23/18 29/73/29
f 18/23/18 14/74/14 29/73/29
f 16/21/16 53/68/53 34/39/34
f 16/21/16 15/20/15 53/68/53
f 58/75/58 53/68/53 15/20/15
f 33/38/33 55/70/55 54/69/54
f 59/76/59 60/77/60 61/78/61
f 62/79/62 63/80/63 64/81/64
f 65/82/65 24/29/24 23/28/23
f 65/82/65 9/14/9 66/83/66
f 8/84/8 20/25/20 57/72/57
f 8/12/8 21/26/21 20/25/20
f 8/12/8 7/11/7 21/26/21
f 7/11/7 17/22/17 21/26/21
f 7/9/7 18/23/18 17/22/17
f 7/9/7 3/8/3 18/23/18
f 3/8/3 14/74/14 18/23/18
f 62/79/62 67/85/67 63/80/63
f 62/79/62 68/86/68 67/85/67
f 69/87/69 65/88/65 70/89/70
f 3/3/3 15/20/15 14/19/14
f 3/3/3 71/90/71 15/20/15
f 26/31/26 71/90/71 70/91/70
f 28/33/28 58/75/58 26/31/26
f 24/29/24 66/83/66 57/72/57
f 50/65/50 52/67/52 47/52/47
f 71/90/71 58/75/58 15/20/15
f 24/29/24 52/67/52 25/30/25
f 56/71/56 27/32/27 54/69/54
f 71/90/71 2/2/2 70/91/70
f 55/70/55 51/66/51 46/51/46
f 9/14/9 57/72/57 66/83/66
f 51/66/51 47/52/47 46/51/46
f 2/2/2 69/92/69 70/91/70
f 10/93/10 69/87/69 1/94/1
f 10/15/10 9/14/9 65/82/65
f 28/33/28 27/32/27 53/68/53
f 56/71/56 46/51/46 35/40/35
f 32/37/32 25/30/25 52/67/52
f 72/95/72 73/96/73 74/97/74
f 75/98/75 76/99/76 77/100/77
f 78/101/78 68/86/68 62/79/62
f 79/102/79 78/101/78 62/79/62
f 64/81/64 79/102/79 62/79/62
f 80/103/80 81/104/81 82/105/82
f 83/106/83 13/18/13 12/17/12
f 84/107/84 83/106/83 85/108/85
f 84/107/84 13/18/13 86/109/86
f 85/108/85 12/17/12 87/110/87
f 5/5/5 88/111/88 6/6/6
f 4/4/4 88/111/88 89/112/89
f 90/113/90 91/114/91 5/5/5
f 89/112/89 91/115/91 92/116/92
f 93/117/93 76/99/76 94/118/94
f 95/119/95 76/99/76 96/120/96
f 97/121/97 77/100/77 93/117/93
f 97/121/97 94/118/94 95/119/95
f 82/105/82 98/122/98 99/123/99
f 100/124/100 99/123/99 98/122/98
f 80/103/80 99/123/99 101/125/101
f 100/124/100 81/126/81 102/127/102
f 103/128/103 104/129/104 105/130/105
f 106/131/106 103/128/103 105/130/105
f 106/131/106 104/129/104 72/95/72
f 107/132/107 73/96/73 103/128/103
f 60/77/60 108/133/108 61/78/61
f 109/134/109 110/135/110 60/77/60
f 59/76/59 108/133/108 111/136/111
f 111/136/111 110/135/110 112/137/112
f 64/81/64 113/138/113 79/102/79
f 33/38/33 114/139/114 64/81/64
f 54/69/54 113/138/113 115/140/115
f 54/69/54 116/141/116 33/38/33
f 26/31/26 117/142/117 118/143/118
f 54/69/54 119/144/119 79/102/79
f 79/102/79 117/142/117 78/101/78
f 54/69/54 118/143/118 120/145/120
f 68/86/68 121/146/121 70/89/70
f 26/31/26 121/147/121 122/148/122
f 78/101/78 123/149/123 68/86/68
f 26/31/26 124/150/124 78/101/78
f 68/86/68 125/151/125 67/85/67
f 70/89/70 126/152/126 68/86/68
f 65/88/65 125/151/125 127/153/127
f 65/88/65 128/154/128 70/89/70
f 23/28/23 129/155/129 65/82/65
f 63/80/63 130/156/130 131/157/131
f 23/28/23 131/157/131 132/158/132
f 65/88/65 130/156/130 67/85/67
f 64/81/64 133/159/133 134/160/134
f 33/38/33 135/161/135 23/28/23
f 33/38/33 134/160/134 136/162/136
f 23/28/23 133/159/133 63/80/63
f 133/159/133 107/132/107 134/160/134
f 135/161/135 106/131/106 72/95/72
f 134/160/134 106/131/106 136/162/136
f 133/159/133 72/95/72 74/97/74
f 132/158/132 102/127/102 129/155/129
f 130/156/130 101/125/101 131/157/131
f 131/157/131 100/124/100 132/158/132
f 130/156/130 102/163/102 80/103/80
f 125/151/125 97/121/97 95/119/95
f 126/152/126 75/98/75 97/121/97
f 125/151/125 96/120/96 127/153/127
f 127/153/127 75/98/75 128/154/128
f 123/149/123 92/116/92 121/146/121
f 121/147/121 90/113/90 122/148/122
f 123/149/123 4/4/4 89/112/89
f 124/150/124 90/113/90 4/4/4
f 113/138/113 111/136/111 112/137/112
f 114/139/114 59/76/59 111/136/111
f 113/138/113 109/134/109 115/140/115
f 115/140/115 59/76/59 116/141/116
f 117/142/117 87/110/87 118/143/118
f 119/144/119 11/16/11 84/107/84
f 119/144/119 85/108/85 117/142/117
f 120/145/120 87/110/87 11/16/11
f 1/1/1 69/92/69 2/2/2
f 4/4/4 90/113/90 5/5/5
f 1/13/1 8/84/8 9/14/9
f 11/16/11 87/110/87 12/17/12
f 26/31/26 54/69/54 27/32/27
f 23/28/23 25/30/25 32/37/32
f 27/32/27 56/71/56 35/40/35
f 58/75/58 28/33/28 53/68/53
f 33/38/33 51/66/51 55/70/55
f 59/76/59 109/134/109 60/77/60
f 65/82/65 66/83/66 24/29/24
f 69/87/69 10/93/10 65/88/65
f 3/3/3 2/2/2 71/90/71
f 26/31/26 58/75/58 71/90/71
f 50/65/50 32/37/32 52/67/52
f 24/29/24 57/72/57 52/67/52
f 9/14/9 8/84/8 57/72/57
f 51/66/51 50/65/50 47/52/47
f 56/71/56 55/70/55 46/51/46
f 72/95/72 104/129/104 73/96/73
f 75/98/75 96/120/96 76/99/76
f 80/103/80 102/163/102 81/104/81
f 83/106/83 86/109/86 13/18/13
f 84/107/84 86/109/86 83/106/83
f 84/107/84 11/16/11 13/18/13
f 85/108/85 83/106/83 12/17/12
f 5/5/5 91/115/91 88/111/88
f 4/4/4 6/6/6 88/111/88
f 90/113/90 92/164/92 91/114/91
f 89/112/89 88/111/88 91/115/91
f 93/117/93 77/100/77 76/99/76
f 95/119/95 94/118/94 76/99/76
f 97/121/97 75/98/75 77/100/77
f 97/121/97 93/117/93 94/118/94
f 82/105/82 81/104/81 98/122/98
f 100/124/100 101/125/101 99/123/99
f 80/103/80 82/105/82 99/123/99
f 100/124/100 98/122/98 81/126/81
f 103/128/103 73/96/73 104/129/104
f 106/131/106 107/132/107 103/128/103
f 106/131/106 105/130/105 104/129/104
f 107/132/107 74/97/74 73/96/73
f 60/77/60 110/135/110 108/133/108
f 109/134/109 112/137/112 110/135/110
f 59/76/59 61/78/61 108/133/108
f 111/136/111 108/133/108 110/135/110
f 64/81/64 114/139/114 113/138/113
f 33/38/33 116/141/116 114/139/114
f 54/69/54 79/102/79 113/138/113
f 54/69/54 115/140/115 116/141/116
f 26/31/26 78/101/78 117/142/117
f 54/69/54 120/145/120 119/144/119
f 79/102/79 119/144/119 117/142/117
f 54/69/54 26/31/26 118/143/118
f 68/86/68 123/149/123 121/146/121
f 26/31/26 70/91/70 121/147/121
f 78/101/78 124/150/124 123/149/123
f 26/31/26 122/148/122 124/150/124
f 68/86/68 126/152/126 125/151/125
f 70/89/70 128/154/128 126/152/126
f 65/88/65 67/85/67 125/151/125
f 65/88/65 127/153/127 128/154/128
f 23/28/23 132/158/132 129/155/129
f 63/80/63 67/85/67 130/156/130
f 23/28/23 63/80/63 131/157/131
f 65/88/65 129/165/129 130/156/130
f 64/81/64 63/80/63 133/159/133
f 33/38/33 136/162/136 135/161/135
f 33/38/33 64/81/64 134/160/134
f 23/28/23 135/161/135 133/159/133
f 133/159/133 74/97/74 107/132/107
f 135/161/135 136/162/136 106/131/106
f 134/160/134 107/132/107 106/131/106
f 133/159/133 135/161/135 72/95/72
f 132/158/132 100/124/100 102/127/102
f 130/156/130 80/103/80 101/125/101
f 131/157/131 101/125/101 100/124/100
f 130/156/130 129/165/129 102/163/102
f 125/151/125 126/152/126 97/121/97
f 126/152/126 128/154/128 75/98/75
f 125/151/125 95/119/95 96/120/96
f 127/153/127 96/120/96 75/98/75
f 123/149/123 89/112/89 92/116/92
f 121/147/121 92/164/92 90/113/90
f 123/149/123 124/150/124 4/4/4
f 124/150/124 122/148/122 90/113/90
f 113/138/113 114/139/114 111/136/111
f 114/139/114 116/141/116 59/76/59
f 113/138/113 112/137/112 109/134/109
f 115/140/115 109/134/109 59/76/59
f 117/142/117 85/108/85 87/110/87
f 119/144/119 120/145/120 11/16/11
f 119/144/119 84/107/84 85/108/85
f 120/145/120 118/143/118 87/110/87
