# Blender v3.0.0 OBJ File: 'Swiat (3).blend111'
# www.blender.org
mtllib bokschodow.mtl
o SchodyBok.NR1.001_Cube
v 0.254988 -2.998197 -5.400759
v 0.254988 2.998197 3.700760
v 0.254988 -2.998197 -3.700759
v 0.254988 2.998197 5.400760
v -0.254988 -2.998197 -5.400759
v -0.254988 2.998197 3.700760
v -0.254988 -2.998197 -3.700759
v -0.254988 2.998197 5.400760
vt 0.648939 0.922177
vt 0.563510 0.077824
vt 0.648939 0.001549
vt 0.235168 0.998451
vt 0.001549 0.077824
vt 0.235168 0.077824
vt 0.560412 0.077824
vt 0.474983 0.922177
vt 0.474983 0.001549
vt 0.471885 0.922177
vt 0.238266 0.001549
vt 0.471885 0.001549
vt 0.235168 0.001549
vt 0.238266 0.998451
vt 0.471885 0.998451
vt 0.563510 0.998451
vt 0.001549 0.998451
vt 0.560412 0.998451
vt 0.238266 0.922177
vt 0.001549 0.001549
vn 1.0000 0.0000 0.0000
vn 0.0000 -0.8351 0.5502
vn -1.0000 0.0000 0.0000
vn 0.0000 0.8351 -0.5502
vn 0.0000 -1.0000 0.0000
vn 0.0000 1.0000 0.0000
usemtl Material.038
s off
f 2/1/1 3/2/1 1/3/1
f 4/4/2 7/5/2 3/6/2
f 7/7/3 6/8/3 5/9/3
f 6/10/4 1/11/4 5/12/4
f 7/5/5 1/13/5 3/6/5
f 4/14/6 6/10/6 8/15/6
f 2/1/1 4/16/1 3/2/1
f 4/4/2 8/17/2 7/5/2
f 7/7/3 8/18/3 6/8/3
f 6/10/4 2/19/4 1/11/4
f 7/5/5 5/20/5 1/13/5
f 4/14/6 2/19/6 6/10/6
