# Blender v3.0.0 OBJ File: 'Swiat (3).blend11'
# www.blender.org
mtllib windowwallobj.mtl
o Okno.NR1.001_Cube.051
v -15.000000 -3.000000 -0.500000
v -15.000000 3.000000 -0.500000
v 15.000000 -3.000000 -0.500000
v 15.000000 3.000000 -0.500000
v -15.000000 -3.000000 0.500000
v -15.000000 3.000000 0.500000
v 15.000000 -3.000000 0.500000
v 15.000000 3.000000 0.500000
v -3.050474 2.135417 -0.500000
v -2.666677 2.472248 -0.500000
v -2.967959 2.274937 -0.500000
v -2.833188 2.393216 -0.500000
v 2.666678 2.472248 -0.500000
v 2.493778 2.500000 -0.500000
v 3.050474 2.135417 -0.500000
v 2.967960 2.274937 -0.500000
v 2.833189 2.393216 -0.500000
v -2.493777 2.500000 -0.500000
v -4.584216 -2.135417 -0.500000
v -4.475397 -2.393216 -0.500000
v -4.581979 -2.274937 -0.500000
v -4.280697 -2.472248 -0.500000
v -4.027520 -2.500000 -0.500000
v 4.280697 -2.472248 -0.500000
v 4.027520 -2.500000 -0.500000
v 4.584216 -2.135417 -0.500000
v 4.475397 -2.393216 -0.500000
v 4.581979 -2.274937 -0.500000
v -3.050474 2.135417 0.500000
v -2.967959 2.274937 0.500000
v -2.833188 2.393216 0.500000
v -2.493777 2.500000 0.500000
v -2.666677 2.472248 0.500000
v 2.493778 2.500000 0.500000
v 2.666678 2.472248 0.500000
v 3.050474 2.135417 0.500000
v 2.967960 2.274937 0.500000
v 2.833189 2.393216 0.500000
v -4.581979 -2.274937 0.500000
v -4.584216 -2.135417 0.500000
v -4.280697 -2.472248 0.500000
v -4.027520 -2.500000 0.500000
v -4.475397 -2.393216 0.500000
v 4.581979 -2.274937 0.500000
v 4.584216 -2.135417 0.500000
v 4.475397 -2.393216 0.500000
v 4.027520 -2.500000 0.500000
v 4.280697 -2.472248 0.500000
v -6.327551 -2.500000 -0.500000
v -6.090067 -2.486308 -0.500000
v -5.939198 -2.464319 -0.500000
v -6.184006 -2.500000 -0.500000
v -5.706044 -2.362706 -0.500000
v -6.184006 -2.500000 0.500000
v -6.090067 -2.486308 0.500000
v -5.939198 -2.464319 0.500000
v -12.044383 -2.031250 -0.500000
v -11.866817 -2.362706 -0.500000
v -11.998236 -2.210633 -0.500000
v -5.409503 -2.031250 -0.500000
v -5.520040 -2.210633 -0.500000
v -11.438137 -2.500000 -0.500000
v -11.670137 -2.464319 -0.500000
v -5.706044 -2.362706 0.500000
v -5.520040 -2.210633 0.500000
v -12.044383 2.031250 -0.500000
v -11.985428 2.210633 -0.500000
v -11.566269 2.464319 -0.500000
v -11.817535 2.362706 -0.500000
v -3.951272 2.031250 -0.500000
v -5.409503 -2.031250 0.500000
v -11.269879 2.500000 -0.500000
v -4.557518 2.500000 -0.500000
v -4.557518 2.500000 0.500000
v -3.945838 2.210633 -0.500000
v -4.273936 2.464319 0.500000
v -4.273936 2.464319 -0.500000
v -4.059143 2.362706 -0.500000
v -4.059143 2.362706 0.500000
v -6.327551 -2.500000 0.500000
v -3.945838 2.210633 0.500000
v -12.044383 -2.031250 0.500000
v -3.951272 2.031250 0.500000
v -11.670137 -2.464319 0.500000
v -11.866817 -2.362706 0.500000
v -11.998236 -2.210633 0.500000
v -11.438137 -2.500000 0.500000
v -12.044383 2.031250 0.500000
v -11.985428 2.210633 0.500000
v -11.817535 2.362706 0.500000
v -11.566269 2.464319 0.500000
v -11.269879 2.500000 0.500000
v 5.409503 -2.031250 -0.500000
v 5.409503 -2.031250 0.500000
v 5.520040 -2.210633 -0.500000
v 5.939198 -2.464319 -0.500000
v 6.090067 -2.486308 -0.500000
v 6.327551 -2.500000 -0.500000
v 5.706044 -2.362706 -0.500000
v 11.670137 -2.464319 -0.500000
v 11.438137 -2.500000 -0.500000
v 11.998236 -2.210633 -0.500000
v 12.044383 -2.031250 -0.500000
v 11.866817 -2.362706 -0.500000
v 6.184006 -2.500000 -0.500000
v 6.090067 -2.486308 0.500000
v 6.184006 -2.500000 0.500000
v 5.939198 -2.464319 0.500000
v 5.706044 -2.362706 0.500000
v 3.951272 2.031250 -0.500000
v 11.817535 2.362706 -0.500000
v 11.566269 2.464319 -0.500000
v 12.044383 2.031250 -0.500000
v 11.985428 2.210633 -0.500000
v 11.269879 2.500000 -0.500000
v 5.520040 -2.210633 0.500000
v 3.945838 2.210633 -0.500000
v 4.059143 2.362706 -0.500000
v 4.273936 2.464319 -0.500000
v 4.557518 2.500000 0.500000
v 4.557518 2.500000 -0.500000
v 4.273936 2.464319 0.500000
v 6.327551 -2.500000 0.500000
v 4.059143 2.362706 0.500000
v 12.044383 -2.031250 0.500000
v 11.866817 -2.362706 0.500000
v 11.998236 -2.210633 0.500000
v 3.945838 2.210633 0.500000
v 11.438137 -2.500000 0.500000
v 11.670137 -2.464319 0.500000
v 3.951272 2.031250 0.500000
v 11.566269 2.464319 0.500000
v 12.044383 2.031250 0.500000
v 11.985428 2.210633 0.500000
v 11.817535 2.362706 0.500000
v 11.269879 2.500000 0.500000
vt 0.383355 0.997257
vt 0.438406 0.975556
vt 0.443158 0.977002
vt 0.559269 0.774444
vt 0.524696 0.774444
vt 0.383355 0.754188
vt 0.503466 0.246535
vt 0.746535 0.003465
vt 0.746535 0.246535
vt 0.183565 0.273721
vt 0.148521 0.273721
vt 0.005254 0.253465
vt 0.005253 0.496535
vt 0.061054 0.474833
vt 0.065871 0.476279
vt 0.003465 0.746535
vt 0.246535 0.503465
vt 0.246535 0.746535
vt 0.496535 0.003465
vt 0.253465 0.246535
vt 0.253466 0.003465
vt 0.246535 0.003465
vt 0.003465 0.246535
vt 0.003465 0.003465
vt 0.690130 0.496535
vt 0.517111 0.253465
vt 0.690130 0.253465
vt 0.992010 0.746535
vt 0.951600 0.503465
vt 0.992010 0.503465
vt 0.440130 0.503465
vt 0.267111 0.746535
vt 0.267111 0.503465
vt 0.941217 0.746535
vt 0.943268 0.503465
vt 0.943268 0.746535
vt 0.453775 0.503465
vt 0.450573 0.746535
vt 0.450573 0.503465
vt 0.445782 0.746535
vt 0.445782 0.503465
vt 0.440130 0.746535
vt 0.993411 0.746535
vt 0.993411 0.503465
vt 0.256667 0.503465
vt 0.253465 0.746535
vt 0.253465 0.503465
vt 0.261459 0.503465
vt 0.256667 0.746535
vt 0.261459 0.746535
vt 0.873901 0.746535
vt 0.875952 0.503465
vt 0.875952 0.746535
vt 0.700574 0.253465
vt 0.703775 0.496535
vt 0.700574 0.496535
vt 0.695782 0.253465
vt 0.695782 0.496535
vt 0.951600 0.746535
vt 0.950199 0.503465
vt 0.503466 0.253465
vt 0.506667 0.496535
vt 0.503466 0.496535
vt 0.506667 0.253465
vt 0.511459 0.496535
vt 0.511459 0.253465
vt 0.517111 0.496535
vt 0.941217 0.503465
vt 0.642828 0.746535
vt 0.478250 0.503465
vt 0.642828 0.503465
vt 0.919704 0.253465
vt 0.974090 0.496535
vt 0.919704 0.496535
vt 0.892828 0.253465
vt 0.728250 0.496535
vt 0.728250 0.253465
vt 0.168057 0.996535
vt 0.167296 0.753465
vt 0.168057 0.753465
vt 0.910372 0.253465
vt 0.906255 0.496535
vt 0.906255 0.253465
vt 0.900095 0.496535
vt 0.900095 0.253465
vt 0.892828 0.496535
vt 0.974090 0.253465
vt 0.976387 0.496535
vt 0.710706 0.253465
vt 0.714822 0.496535
vt 0.710706 0.496535
vt 0.714822 0.253465
vt 0.720983 0.496535
vt 0.720983 0.253465
vt 0.122846 0.996535
vt 0.124725 0.753465
vt 0.124725 0.996535
vt 0.656256 0.503465
vt 0.660372 0.746535
vt 0.656256 0.746535
vt 0.650095 0.503465
vt 0.650095 0.746535
vt 0.917303 0.253465
vt 0.460706 0.503465
vt 0.464822 0.746535
vt 0.460706 0.746535
vt 0.464822 0.503465
vt 0.470983 0.746535
vt 0.470983 0.503465
vt 0.478250 0.746535
vt 0.166133 0.996535
vt 0.684848 0.503465
vt 0.849426 0.746535
vt 0.684848 0.746535
vt 0.005763 0.753465
vt 0.060149 0.996535
vt 0.005763 0.996535
vt 0.935587 0.246535
vt 0.771010 0.003465
vt 0.935587 0.003465
vt 0.070703 0.996535
vt 0.069481 0.753465
vt 0.070703 0.753465
vt 0.949015 0.003465
vt 0.953132 0.246535
vt 0.949015 0.246535
vt 0.942855 0.246535
vt 0.003465 0.753465
vt 0.753466 0.003465
vt 0.757582 0.246535
vt 0.753466 0.246535
vt 0.757582 0.003465
vt 0.763743 0.246535
vt 0.763743 0.003465
vt 0.771010 0.246535
vt 0.114035 0.996535
vt 0.115915 0.753465
vt 0.115915 0.996535
vt 0.866970 0.503465
vt 0.862854 0.746535
vt 0.862854 0.503465
vt 0.856693 0.746535
vt 0.856693 0.503465
vt 0.849426 0.503465
vt 0.062550 0.996535
vt 0.060149 0.753465
vt 0.062550 0.753465
vt 0.671420 0.503465
vt 0.667303 0.746535
vt 0.667303 0.503465
vt 0.677581 0.503465
vt 0.671420 0.746535
vt 0.677581 0.746535
vt 0.072628 0.996535
vt 0.071464 0.753465
vt 0.072628 0.753465
vt 0.528621 0.775889
vt 0.526202 0.774999
vt 0.552089 0.778770
vt 0.532359 0.780006
vt 0.550380 0.783562
vt 0.535341 0.786167
vt 0.550344 0.789214
vt 0.537113 0.793434
vt 0.560492 0.958012
vt 0.574933 0.962232
vt 0.560579 0.965279
vt 0.576256 0.967884
vt 0.558762 0.971440
vt 0.578417 0.972676
vt 0.555318 0.975556
vt 0.581087 0.975877
vt 0.550772 0.977002
vt 0.583858 0.977002
vt 0.864324 0.997257
vt 0.663821 0.977002
vt 0.697299 0.783562
vt 0.695590 0.778770
vt 0.715320 0.780006
vt 0.721477 0.774999
vt 0.719059 0.775889
vt 0.697335 0.789214
vt 0.712338 0.786167
vt 0.710566 0.793434
vt 0.672746 0.962232
vt 0.687187 0.958012
vt 0.671423 0.967884
vt 0.687100 0.965279
vt 0.669262 0.972676
vt 0.688917 0.971440
vt 0.666592 0.975877
vt 0.692361 0.975556
vt 0.696907 0.977002
vt 0.804521 0.977002
vt 0.807219 0.774444
vt 0.725285 0.774444
vt 0.864324 0.754188
vt 0.522394 0.774444
vt 0.440460 0.774444
vt 0.436740 0.775889
vt 0.810939 0.775889
vt 0.814092 0.780006
vt 0.433587 0.780006
vt 0.431480 0.786167
vt 0.816199 0.786167
vt 0.816939 0.793434
vt 0.430740 0.793434
vt 0.816939 0.958012
vt 0.430740 0.958012
vt 0.431686 0.965279
vt 0.815993 0.965279
vt 0.813302 0.971440
vt 0.434377 0.971440
vt 0.809273 0.975556
vt 0.692469 0.775568
vt 0.722983 0.774444
vt 0.688410 0.774444
vt 0.555210 0.775568
vt 0.503466 0.003465
vt 0.347984 0.274276
vt 0.321745 0.278047
vt 0.318581 0.274846
vt 0.349511 0.273721
vt 0.314466 0.273721
vt 0.492778 0.253466
vt 0.351844 0.273721
vt 0.146188 0.273721
vt 0.176287 0.278047
vt 0.150047 0.274276
vt 0.179451 0.274846
vt 0.152499 0.275167
vt 0.156288 0.279283
vt 0.174555 0.282839
vt 0.159311 0.285444
vt 0.174518 0.288491
vt 0.161107 0.292711
vt 0.184804 0.457289
vt 0.199443 0.461509
vt 0.184893 0.464556
vt 0.200784 0.467161
vt 0.183051 0.470717
vt 0.202974 0.471953
vt 0.179561 0.474833
vt 0.205680 0.475155
vt 0.174952 0.476279
vt 0.208490 0.476279
vt 0.492778 0.496535
vt 0.289542 0.476279
vt 0.323477 0.282839
vt 0.341744 0.279283
vt 0.345533 0.275167
vt 0.323513 0.288491
vt 0.338721 0.285444
vt 0.336924 0.292711
vt 0.298588 0.461509
vt 0.313227 0.457289
vt 0.297247 0.467161
vt 0.313139 0.464556
vt 0.295057 0.471953
vt 0.314980 0.470717
vt 0.292351 0.475155
vt 0.318471 0.474833
vt 0.323079 0.476279
vt 0.432160 0.476279
vt 0.434895 0.273721
vt 0.063137 0.273721
vt 0.059367 0.275167
vt 0.438665 0.275167
vt 0.441861 0.279283
vt 0.056170 0.279283
vt 0.054035 0.285444
vt 0.443997 0.285444
vt 0.444747 0.292711
vt 0.053285 0.292711
vt 0.444747 0.457289
vt 0.053285 0.457289
vt 0.054243 0.464556
vt 0.443789 0.464556
vt 0.441060 0.470717
vt 0.056971 0.470717
vt 0.436977 0.474833
vt 0.003465 0.503465
vt 0.496535 0.246535
vt 0.246535 0.246535
vt 0.453775 0.746535
vt 0.873901 0.503465
vt 0.703775 0.253465
vt 0.950199 0.746535
vt 0.169279 0.753465
vt 0.169279 0.996535
vt 0.167296 0.996535
vt 0.910372 0.496535
vt 0.976387 0.253465
vt 0.122846 0.753465
vt 0.660372 0.503465
vt 0.917303 0.496535
vt 0.166133 0.753465
vt 0.071464 0.996535
vt 0.069481 0.996535
vt 0.953132 0.003465
vt 0.942855 0.003465
vt 0.003465 0.996535
vt 0.114035 0.753465
vt 0.866970 0.746535
vn -0.0000 0.0000 -1.0000
vn 1.0000 0.0000 0.0000
vn 0.0000 -0.0000 1.0000
vn -1.0000 0.0000 0.0000
vn 0.0000 -1.0000 0.0000
vn 0.0000 1.0000 0.0000
vn 0.9412 -0.3380 0.0000
vn -0.9412 -0.3380 0.0000
vn -0.1090 0.9940 0.0000
vn -0.3761 0.9266 0.0000
vn -0.7429 0.6694 0.0000
vn -0.9999 0.0160 0.0000
vn -0.1585 -0.9874 0.0000
vn -0.4288 -0.9034 0.0000
vn -0.6596 -0.7516 0.0000
vn -0.8607 -0.5091 0.0000
vn 0.1090 0.9940 0.0000
vn 0.3761 0.9266 0.0000
vn 0.7429 0.6694 0.0000
vn 0.9999 0.0160 0.0000
vn 0.1585 -0.9874 0.0000
vn 0.4288 -0.9034 0.0000
vn 0.6596 -0.7516 0.0000
vn 0.8607 -0.5091 0.0000
vn -0.9412 0.3378 0.0000
vn -0.1442 0.9895 0.0000
vn -0.3995 0.9167 0.0000
vn -0.6330 0.7742 0.0000
vn -0.8513 0.5246 0.0000
vn -0.1248 -0.9922 0.0000
vn -0.4276 -0.9040 0.0000
vn -0.8019 -0.5975 0.0000
vn -0.9995 0.0303 0.0000
vn 0.1520 0.9884 0.0000
vn 0.4590 0.8884 0.0000
vn 0.7566 0.6539 0.0000
vn 0.9685 0.2491 0.0000
vn 0.1195 -0.9928 0.0000
vn 0.3749 -0.9271 0.0000
vn 0.6713 -0.7412 0.0000
vn 0.9500 -0.3122 0.0000
vn 0.9412 0.3378 0.0000
vn 0.1442 0.9895 0.0000
vn 0.3995 0.9167 0.0000
vn 0.6330 0.7742 0.0000
vn 0.8513 0.5246 0.0000
vn 0.1248 -0.9922 0.0000
vn 0.4276 -0.9040 0.0000
vn 0.8019 -0.5975 0.0000
vn 0.9995 0.0303 0.0000
vn -0.1520 0.9884 0.0000
vn -0.4590 0.8884 0.0000
vn -0.7566 0.6539 0.0000
vn -0.9685 0.2491 0.0000
vn -0.1195 -0.9928 0.0000
vn -0.3749 -0.9271 0.0000
vn -0.6713 -0.7412 0.0000
vn -0.9500 -0.3122 0.0000
usemtl Material.061
s off
f 4/1/1 112/2/1 115/3/1
f 25/4/1 105/5/1 3/6/1
f 4/7/2 7/8/2 3/9/2
f 42/10/3 54/11/3 5/12/3
f 6/13/3 91/14/3 92/15/3
f 6/16/4 1/17/4 5/18/4
f 7/19/5 1/20/5 3/21/5
f 4/22/6 6/23/6 8/24/6
f 19/25/7 29/26/7 40/27/7
f 34/28/5 18/29/5 14/30/5
f 26/31/8 36/32/8 15/33/8
f 25/34/9 48/35/9 24/36/9
f 24/37/10 46/38/10 27/39/10
f 27/39/11 44/40/11 28/41/11
f 28/41/12 45/42/12 26/31/12
f 35/43/13 14/30/13 13/44/13
f 17/45/14 35/46/14 13/47/14
f 16/48/15 38/49/15 17/45/15
f 15/33/16 37/50/16 16/48/16
f 22/51/17 42/52/17 23/53/17
f 43/54/18 22/55/18 20/56/18
f 39/57/19 20/56/19 21/58/19
f 40/27/20 21/58/20 19/25/20
f 32/59/21 10/60/21 18/29/21
f 33/61/22 12/62/22 10/63/22
f 31/64/23 11/65/23 12/62/23
f 30/66/24 9/67/24 11/65/24
f 23/53/6 47/68/6 25/34/6
f 57/69/2 88/70/2 82/71/2
f 72/72/5 74/73/5 92/74/5
f 60/75/25 83/76/25 70/77/25
f 50/78/26 54/79/26 55/80/26
f 51/81/27 64/82/27 53/83/27
f 53/83/28 65/84/28 61/85/28
f 61/85/29 71/86/29 60/75/29
f 73/87/30 76/88/30 74/73/30
f 77/89/31 79/90/31 76/91/31
f 78/92/32 81/93/32 79/90/32
f 75/94/33 83/76/33 81/93/33
f 63/95/34 87/96/34 62/97/34
f 85/98/35 63/99/35 58/100/35
f 86/101/36 58/100/36 59/102/36
f 82/71/37 59/102/37 57/69/37
f 92/74/38 68/103/38 72/72/38
f 91/104/39 69/105/39 68/106/39
f 90/107/40 67/108/40 69/105/40
f 89/109/41 66/110/41 67/108/41
f 49/111/6 62/97/6 87/96/6
f 113/112/4 125/113/4 133/114/4
f 121/115/5 136/116/5 120/117/5
f 93/118/42 131/119/42 94/120/42
f 97/121/43 108/122/43 106/123/43
f 109/124/44 96/125/44 99/126/44
f 95/127/45 109/124/45 99/126/45
f 94/120/46 95/127/46 93/118/46
f 120/117/47 119/128/47 121/115/47
f 122/129/48 118/130/48 119/131/48
f 124/132/49 117/133/49 118/130/49
f 128/134/50 110/135/50 117/133/50
f 101/136/51 130/137/51 100/138/51
f 100/139/52 126/140/52 104/141/52
f 104/141/53 127/142/53 102/143/53
f 102/143/54 125/113/54 103/144/54
f 132/145/55 115/146/55 112/147/55
f 111/148/56 132/149/56 112/150/56
f 114/151/57 135/152/57 111/148/57
f 113/112/58 134/153/58 114/151/58
f 98/154/6 107/155/6 123/156/6
f 96/157/1 97/158/1 27/159/1
f 96/157/1 27/159/1 99/160/1
f 27/159/1 28/161/1 99/160/1
f 99/160/1 28/161/1 95/162/1
f 28/161/1 26/163/1 95/162/1
f 93/164/1 95/162/1 26/163/1
f 110/165/1 93/164/1 26/163/1
f 110/165/1 26/163/1 15/166/1
f 117/167/1 110/165/1 15/166/1
f 117/167/1 15/166/1 16/168/1
f 118/169/1 117/167/1 16/168/1
f 118/169/1 16/168/1 17/170/1
f 119/171/1 118/169/1 17/170/1
f 119/171/1 17/170/1 13/172/1
f 121/173/1 119/171/1 14/174/1
f 119/171/1 13/172/1 14/174/1
f 115/3/1 121/173/1 4/1/1
f 121/173/1 14/174/1 4/1/1
f 4/1/1 14/174/1 2/175/1
f 14/174/1 18/176/1 2/175/1
f 21/177/1 20/178/1 53/179/1
f 20/178/1 50/180/1 51/181/1
f 20/178/1 51/181/1 53/179/1
f 19/182/1 21/177/1 61/183/1
f 21/177/1 53/179/1 61/183/1
f 19/182/1 61/183/1 60/184/1
f 9/185/1 19/182/1 70/186/1
f 19/182/1 60/184/1 70/186/1
f 11/187/1 9/185/1 75/188/1
f 9/185/1 70/186/1 75/188/1
f 12/189/1 11/187/1 78/190/1
f 11/187/1 75/188/1 78/190/1
f 10/191/1 12/189/1 77/192/1
f 12/189/1 78/190/1 77/192/1
f 18/176/1 10/191/1 77/192/1
f 18/176/1 77/192/1 73/193/1
f 18/176/1 73/193/1 2/175/1
f 73/193/1 72/194/1 2/175/1
f 62/195/1 49/196/1 1/197/1
f 3/6/1 98/198/1 101/199/1
f 3/6/1 101/199/1 100/200/1
f 63/201/1 62/195/1 1/197/1
f 58/202/1 63/201/1 1/197/1
f 3/6/1 100/200/1 104/203/1
f 3/6/1 104/203/1 102/204/1
f 59/205/1 58/202/1 1/197/1
f 57/206/1 59/205/1 1/197/1
f 4/1/1 3/6/1 103/207/1
f 3/6/1 102/204/1 103/207/1
f 57/206/1 1/197/1 2/175/1
f 66/208/1 57/206/1 2/175/1
f 4/1/1 103/207/1 113/209/1
f 4/1/1 113/209/1 114/210/1
f 67/211/1 66/208/1 2/175/1
f 69/212/1 67/211/1 2/175/1
f 4/1/1 114/210/1 111/213/1
f 4/1/1 111/213/1 112/2/1
f 68/214/1 69/212/1 2/175/1
f 72/194/1 68/214/1 2/175/1
f 50/180/1 20/178/1 22/215/1
f 50/180/1 22/215/1 52/216/1
f 22/215/1 23/217/1 52/216/1
f 1/197/1 49/196/1 52/216/1
f 52/216/1 23/217/1 1/197/1
f 23/217/1 25/4/1 3/6/1
f 3/6/1 1/197/1 23/217/1
f 105/5/1 98/198/1 3/6/1
f 27/159/1 97/158/1 24/218/1
f 97/158/1 105/5/1 24/218/1
f 25/4/1 24/218/1 105/5/1
f 4/7/2 8/219/2 7/8/2
f 106/220/3 46/221/3 48/222/3
f 106/220/3 48/222/3 107/223/3
f 48/222/3 47/224/3 107/223/3
f 7/225/3 123/226/3 107/223/3
f 107/223/3 47/224/3 7/225/3
f 47/224/3 42/10/3 5/12/3
f 5/12/3 7/225/3 47/224/3
f 54/11/3 80/227/3 5/12/3
f 43/228/3 55/229/3 41/230/3
f 55/229/3 54/11/3 41/230/3
f 42/10/3 41/230/3 54/11/3
f 56/231/3 55/229/3 43/228/3
f 56/231/3 43/228/3 64/232/3
f 43/228/3 39/233/3 64/232/3
f 64/232/3 39/233/3 65/234/3
f 39/233/3 40/235/3 65/234/3
f 71/236/3 65/234/3 40/235/3
f 83/237/3 71/236/3 40/235/3
f 83/237/3 40/235/3 29/238/3
f 81/239/3 83/237/3 29/238/3
f 81/239/3 29/238/3 30/240/3
f 79/241/3 81/239/3 30/240/3
f 79/241/3 30/240/3 31/242/3
f 76/243/3 79/241/3 31/242/3
f 76/243/3 31/242/3 33/244/3
f 74/245/3 76/243/3 32/246/3
f 76/243/3 33/244/3 32/246/3
f 92/15/3 74/245/3 6/13/3
f 74/245/3 32/246/3 6/13/3
f 6/13/3 32/246/3 8/247/3
f 32/246/3 34/248/3 8/247/3
f 44/249/3 46/221/3 109/250/3
f 46/221/3 106/220/3 108/251/3
f 46/221/3 108/251/3 109/250/3
f 45/252/3 44/249/3 116/253/3
f 44/249/3 109/250/3 116/253/3
f 45/252/3 116/253/3 94/254/3
f 36/255/3 45/252/3 131/256/3
f 45/252/3 94/254/3 131/256/3
f 37/257/3 36/255/3 128/258/3
f 36/255/3 131/256/3 128/258/3
f 38/259/3 37/257/3 124/260/3
f 37/257/3 128/258/3 124/260/3
f 35/261/3 38/259/3 122/262/3
f 38/259/3 124/260/3 122/262/3
f 34/248/3 35/261/3 122/262/3
f 34/248/3 122/262/3 120/263/3
f 34/248/3 120/263/3 8/247/3
f 120/263/3 136/264/3 8/247/3
f 129/265/3 123/226/3 7/225/3
f 5/12/3 80/227/3 87/266/3
f 5/12/3 87/266/3 84/267/3
f 130/268/3 129/265/3 7/225/3
f 126/269/3 130/268/3 7/225/3
f 5/12/3 84/267/3 85/270/3
f 5/12/3 85/270/3 86/271/3
f 127/272/3 126/269/3 7/225/3
f 125/273/3 127/272/3 7/225/3
f 6/13/3 5/12/3 82/274/3
f 5/12/3 86/271/3 82/274/3
f 125/273/3 7/225/3 8/247/3
f 133/275/3 125/273/3 8/247/3
f 6/13/3 82/274/3 88/276/3
f 6/13/3 88/276/3 89/277/3
f 134/278/3 133/275/3 8/247/3
f 135/279/3 134/278/3 8/247/3
f 6/13/3 89/277/3 90/280/3
f 6/13/3 90/280/3 91/14/3
f 132/281/3 135/279/3 8/247/3
f 136/264/3 132/281/3 8/247/3
f 6/16/4 2/282/4 1/17/4
f 7/19/5 5/283/5 1/20/5
f 4/22/6 2/284/6 6/23/6
f 19/25/7 9/67/7 29/26/7
f 34/28/5 32/59/5 18/29/5
f 26/31/8 45/42/8 36/32/8
f 25/34/9 47/68/9 48/35/9
f 24/37/10 48/285/10 46/38/10
f 27/39/11 46/38/11 44/40/11
f 28/41/12 44/40/12 45/42/12
f 35/43/13 34/28/13 14/30/13
f 17/45/14 38/49/14 35/46/14
f 16/48/15 37/50/15 38/49/15
f 15/33/16 36/32/16 37/50/16
f 22/51/17 41/286/17 42/52/17
f 43/54/18 41/287/18 22/55/18
f 39/57/19 43/54/19 20/56/19
f 40/27/20 39/57/20 21/58/20
f 32/59/21 33/288/21 10/60/21
f 33/61/22 31/64/22 12/62/22
f 31/64/23 30/66/23 11/65/23
f 30/66/24 29/26/24 9/67/24
f 23/53/6 42/52/6 47/68/6
f 57/69/2 66/110/2 88/70/2
f 72/72/5 73/87/5 74/73/5
f 60/75/25 71/86/25 83/76/25
f 55/80/26 56/289/26 51/290/26
f 50/78/26 52/291/26 54/79/26
f 55/80/26 51/290/26 50/78/26
f 51/81/27 56/292/27 64/82/27
f 53/83/28 64/82/28 65/84/28
f 61/85/29 65/84/29 71/86/29
f 73/87/30 77/293/30 76/88/30
f 77/89/31 78/92/31 79/90/31
f 78/92/32 75/94/32 81/93/32
f 75/94/33 70/77/33 83/76/33
f 63/95/34 84/294/34 87/96/34
f 85/98/35 84/295/35 63/99/35
f 86/101/36 85/98/36 58/100/36
f 82/71/37 86/101/37 59/102/37
f 92/74/38 91/296/38 68/103/38
f 91/104/39 90/107/39 69/105/39
f 90/107/40 89/109/40 67/108/40
f 89/109/41 88/70/41 66/110/41
f 87/96/6 80/297/6 49/111/6
f 80/297/6 54/79/6 49/111/6
f 54/79/6 52/291/6 49/111/6
f 113/112/4 103/144/4 125/113/4
f 121/115/5 115/146/5 136/116/5
f 93/118/42 110/135/42 131/119/42
f 107/155/43 105/298/43 97/121/43
f 97/121/43 96/299/43 108/122/43
f 106/123/43 107/155/43 97/121/43
f 109/124/44 108/300/44 96/125/44
f 95/127/45 116/301/45 109/124/45
f 94/120/46 116/301/46 95/127/46
f 120/117/47 122/302/47 119/128/47
f 122/129/48 124/132/48 118/130/48
f 124/132/49 128/134/49 117/133/49
f 128/134/50 131/119/50 110/135/50
f 101/136/51 129/303/51 130/137/51
f 100/139/52 130/304/52 126/140/52
f 104/141/53 126/140/53 127/142/53
f 102/143/54 127/142/54 125/113/54
f 132/145/55 136/116/55 115/146/55
f 111/148/56 135/152/56 132/149/56
f 114/151/57 134/153/57 135/152/57
f 113/112/58 133/114/58 134/153/58
f 129/303/6 101/136/6 98/154/6
f 98/154/6 105/298/6 107/155/6
f 123/156/6 129/303/6 98/154/6
