# Blender v2.91.0 OBJ File: ''
# www.blender.org
o przelacznik_Cube.081
v -0.309009 -0.540240 -0.022504
v -0.247389 -0.443187 0.033996
v -0.309009 -0.408122 -0.022504
v 0.307815 -0.540240 -0.022504
v 0.131298 -0.508409 0.033996
v 0.073880 -0.540240 -0.022504
v -0.468756 -0.628447 0.030860
v -0.367790 -0.628447 0.030860
v 0.506548 -0.628447 0.030860
v -0.468756 -0.714882 0.030860
v 0.405581 -0.628447 0.030860
v 0.506548 0.532084 0.030860
v 0.506548 0.631818 0.030860
v -0.367790 -0.714882 0.030860
v -0.468756 0.631818 0.030860
v -0.468756 0.532084 0.030860
v 0.405581 0.631818 0.030860
v 0.405581 0.532084 0.030860
v -0.367790 0.532084 0.030860
v -0.367790 0.631818 0.030860
v 0.506548 -0.714882 0.030860
v 0.405581 -0.714882 0.030860
v -0.468756 -0.714882 -0.022504
v -0.076835 -0.540240 -0.022504
v -0.076835 -0.408122 -0.022504
v 0.308901 -0.408835 -0.022504
v 0.074032 -0.411584 -0.022504
v -0.138456 -0.443187 0.033996
v -0.247389 -0.505175 0.033996
v -0.138456 -0.505175 0.033996
v 0.250700 -0.508409 0.033996
v 0.131376 -0.442742 0.033996
v 0.251254 -0.441339 0.033996
v -0.468756 -0.714882 -0.055809
v 0.506548 -0.714882 -0.055809
v 0.506548 -0.714882 -0.022504
v 0.405581 -0.714882 -0.022504
v 0.405581 -0.714882 -0.055809
v -0.367790 -0.714882 -0.022504
v -0.367790 -0.714882 -0.055809
v -0.468756 0.631818 -0.055809
v -0.468756 0.631818 -0.022504
v 0.506548 0.631818 -0.022504
v 0.506548 0.631818 -0.055809
v 0.405581 0.631818 -0.022504
v 0.405581 0.631818 -0.055809
v -0.367790 0.631818 -0.055809
v -0.367790 0.631818 -0.022504
v -0.367790 -0.628447 -0.022504
v -0.367790 0.532084 -0.022504
v -0.367790 -0.628447 -0.055809
v -0.367790 0.532084 -0.055809
v 0.405581 -0.628447 -0.022504
v 0.405581 0.532084 -0.022504
v 0.405581 -0.628447 -0.055809
v 0.405581 0.532084 -0.055809
v 0.506548 0.532084 -0.055809
v 0.506548 -0.628447 -0.055809
v 0.506548 -0.628447 -0.022504
v 0.506548 0.532084 -0.022504
v -0.468756 -0.628447 -0.055809
v -0.468756 -0.628447 -0.022504
v -0.468756 0.532084 -0.022504
v -0.468756 0.532084 -0.055809
vt 0.219732 0.014662
vt 0.247247 0.000120
vt 0.247247 0.014662
vt 0.439376 0.454318
vt 0.461417 0.435000
vt 0.462064 0.453079
vt 0.460514 0.724471
vt 0.439691 0.748140
vt 0.439149 0.724778
vt 0.494830 0.660073
vt 0.509372 0.632895
vt 0.509372 0.660073
vt 0.424669 0.714072
vt 0.242184 0.738383
vt 0.252976 0.722188
vt 0.219732 0.047292
vt 0.247247 0.023738
vt 0.247246 0.047292
vt 0.220957 0.468216
vt 0.242337 0.467861
vt 0.247246 0.363550
vt 0.219732 0.390729
vt 0.219732 0.363550
vt 0.241844 0.447646
vt 0.457999 0.000120
vt 0.457999 0.014662
vt 0.494829 0.605380
vt 0.485754 0.632895
vt 0.485754 0.605380
vt 0.241978 0.760142
vt 0.457999 0.363550
vt 0.247246 0.390729
vt 0.494830 0.976326
vt 0.509372 0.999880
vt 0.494830 0.999880
vt 0.256825 0.478574
vt 0.485753 0.023675
vt 0.494829 0.000120
vt 0.494829 0.023675
vt 0.428581 0.470514
vt 0.457999 0.023738
vt 0.439548 0.435508
vt 0.457999 0.047293
vt 0.485513 0.023738
vt 0.485513 0.047293
vt 0.494829 0.367113
vt 0.509371 0.394628
vt 0.494829 0.394628
vt 0.220375 0.760761
vt 0.219507 0.739649
vt 0.494830 0.632895
vt 0.485753 0.394628
vt 0.485754 0.660073
vt 0.509372 0.605380
vt 0.494829 0.339935
vt 0.509371 0.367113
vt 0.509372 0.976326
vt 0.509372 0.023675
vt 0.485754 0.999880
vt 0.485754 0.976326
vt 0.485753 0.339935
vt 0.485753 0.367113
vt 0.485513 0.363550
vt 0.457999 0.390728
vt 0.485513 0.000120
vt 0.485513 0.014662
vt 0.509371 0.339935
vt 0.125307 0.723119
vt 0.134620 0.676485
vt 0.134620 0.758143
vt 0.012083 0.676485
vt 0.111722 0.723135
vt 0.012083 0.758143
vt 0.219732 0.000120
vt 0.462064 0.746570
vt 0.219732 0.023738
vt 0.219629 0.449198
vt 0.485753 0.000120
vt 0.509372 0.000120
vt 0.485513 0.390728
vt 0.125307 0.707206
vt 0.111357 0.707206
vt 0.358959 0.536490
vt 0.338767 0.550937
vt 0.327176 0.536886
vt 0.357127 0.635100
vt 0.346811 0.602584
vt 0.357127 0.587757
vt 0.337453 0.567873
vt 0.348681 0.552174
vt 0.347368 0.569110
vt 0.345868 0.620887
vt 0.336503 0.603931
vt 0.358959 0.583161
vt 0.325405 0.589619
vt 0.335345 0.622324
vt 0.324846 0.637155
vt 0.327176 0.583557
vt 0.111432 0.747935
vt 0.125307 0.747820
vt 0.111357 0.682691
vt 0.125307 0.682691
vn 0.0000 -1.0000 0.0000
vn 0.0000 -0.0000 1.0000
vn 1.0000 -0.0000 0.0000
vn 0.0000 0.0000 -1.0000
vn 0.0000 1.0000 0.0000
vn -1.0000 0.0000 0.0000
vn -0.6758 -0.0000 0.7371
vn 0.0000 -0.8712 0.4908
vn 0.0000 -0.8497 0.5273
vn -0.0102 0.8712 0.4908
vn 0.7016 -0.0058 0.7125
vn 0.0000 0.8497 0.5273
vn -0.7016 0.0008 0.7126
vn 0.6758 -0.0000 0.7371
s off
f 36/1/1 22/2/1 37/3/1
f 11/4/2 21/5/2 9/6/2
f 12/7/2 17/8/2 18/9/2
f 60/10/3 13/11/3 12/12/3
f 54/13/1 19/14/1 50/15/1
f 58/16/4 38/17/4 55/18/4
f 19/14/2 7/19/2 8/20/2
f 56/21/4 44/22/4 57/23/4
f 7/19/2 14/24/2 8/20/2
f 37/3/1 14/25/1 39/26/1
f 45/27/5 44/28/5 46/29/5
f 18/9/2 20/30/2 19/14/2
f 52/31/4 46/32/4 56/21/4
f 59/33/3 21/34/3 36/35/3
f 11/4/2 12/7/2 18/9/2
f 50/15/3 8/20/3 49/36/3
f 61/37/6 23/38/6 62/39/6
f 49/36/5 11/4/5 53/40/5
f 38/17/1 39/26/1 40/41/1
f 8/20/2 22/42/2 11/4/2
f 51/43/4 34/44/4 61/45/4
f 42/46/5 20/47/5 48/48/5
f 19/14/2 15/49/2 16/50/2
f 53/40/6 18/9/6 54/13/6
f 45/27/5 13/11/5 43/51/5
f 47/52/5 42/46/5 48/48/5
f 57/53/3 43/51/3 60/10/3
f 47/52/5 45/27/5 46/29/5
f 48/48/5 17/54/5 45/27/5
f 39/26/1 34/44/1 40/41/1
f 38/17/1 36/1/1 37/3/1
f 63/55/6 15/56/6 42/46/6
f 60/10/3 9/57/3 59/33/3
f 52/31/4 55/18/4 51/43/4
f 23/38/6 7/58/6 62/39/6
f 59/33/3 35/59/3 58/60/3
f 64/61/6 42/46/6 41/62/6
f 57/53/3 59/33/3 58/60/3
f 55/18/4 40/41/4 51/43/4
f 64/63/4 47/64/4 52/31/4
f 56/21/4 58/16/4 55/18/4
f 63/55/6 61/37/6 62/39/6
f 39/26/1 10/65/1 23/66/1
f 51/43/4 64/63/4 52/31/4
f 62/39/6 16/67/6 63/55/6
f 6/68/2 49/69/2 53/70/2
f 50/71/2 27/72/2 54/73/2
f 36/1/1 21/74/1 22/2/1
f 11/4/2 22/42/2 21/5/2
f 12/7/2 13/75/2 17/8/2
f 60/10/3 43/51/3 13/11/3
f 54/13/1 18/9/1 19/14/1
f 58/16/4 35/76/4 38/17/4
f 19/14/2 16/50/2 7/19/2
f 56/21/4 46/32/4 44/22/4
f 7/19/2 10/77/2 14/24/2
f 37/3/1 22/2/1 14/25/1
f 45/27/5 43/51/5 44/28/5
f 18/9/2 17/8/2 20/30/2
f 52/31/4 47/64/4 46/32/4
f 59/33/3 9/57/3 21/34/3
f 11/4/2 9/6/2 12/7/2
f 50/15/3 19/14/3 8/20/3
f 61/37/6 34/78/6 23/38/6
f 49/36/5 8/20/5 11/4/5
f 38/17/1 37/3/1 39/26/1
f 8/20/2 14/24/2 22/42/2
f 51/43/4 40/41/4 34/44/4
f 42/46/5 15/56/5 20/47/5
f 19/14/2 20/30/2 15/49/2
f 53/40/6 11/4/6 18/9/6
f 45/27/5 17/54/5 13/11/5
f 47/52/5 41/62/5 42/46/5
f 57/53/3 44/28/3 43/51/3
f 47/52/5 48/48/5 45/27/5
f 48/48/5 20/47/5 17/54/5
f 39/26/1 23/66/1 34/44/1
f 38/17/1 35/76/1 36/1/1
f 63/55/6 16/67/6 15/56/6
f 60/10/3 12/12/3 9/57/3
f 52/31/4 56/21/4 55/18/4
f 23/38/6 10/79/6 7/58/6
f 59/33/3 36/35/3 35/59/3
f 64/61/6 63/55/6 42/46/6
f 57/53/3 60/10/3 59/33/3
f 55/18/4 38/17/4 40/41/4
f 64/63/4 41/80/4 47/64/4
f 56/21/4 57/23/4 58/16/4
f 63/55/6 64/61/6 61/37/6
f 39/26/1 14/25/1 10/65/1
f 51/43/4 61/45/4 64/63/4
f 62/39/6 7/58/6 16/67/6
f 6/68/2 24/81/2 49/69/2
f 50/71/2 25/82/2 27/72/2
s 1
f 1/83/7 2/84/7 3/85/7
f 4/86/8 5/87/8 6/88/8
f 28/89/2 29/90/2 30/91/2
f 31/92/2 32/93/2 5/87/2
f 24/94/9 29/90/9 1/83/9
f 27/95/10 33/96/10 26/97/10
f 4/86/11 33/96/11 31/92/11
f 3/85/12 28/89/12 25/98/12
f 27/95/13 5/87/13 32/93/13
f 25/98/14 30/91/14 24/94/14
f 1/83/7 29/90/7 2/84/7
f 4/86/8 31/92/8 5/87/8
f 28/89/2 2/84/2 29/90/2
f 31/92/2 33/96/2 32/93/2
f 24/94/9 30/91/9 29/90/9
f 27/95/10 32/93/10 33/96/10
f 4/86/11 26/97/11 33/96/11
f 3/85/12 2/84/12 28/89/12
f 27/95/13 6/88/13 5/87/13
f 25/98/14 28/89/14 30/91/14
f 53/70/2 26/99/2 4/100/2
f 3/101/2 49/69/2 1/102/2
f 24/81/2 27/72/2 25/82/2
f 24/81/2 1/102/2 49/69/2
f 6/68/2 53/70/2 4/100/2
f 27/72/2 26/99/2 54/73/2
f 25/82/2 50/71/2 3/101/2
f 53/70/2 54/73/2 26/99/2
f 3/101/2 50/71/2 49/69/2
f 24/81/2 6/68/2 27/72/2