# Blender v3.1.2 OBJ File: ''
# www.blender.org
o przelacznik_Cube.081
v -0.018055 0.683596 -0.050746
v -0.375620 0.567105 -0.030197
v -0.018055 0.683596 -0.022504
v 0.506548 0.192714 -0.050746
v 0.506548 0.230671 -0.022504
v 0.506548 0.230373 -0.022504
v 0.506548 0.192714 0.003259
v 0.506548 0.192714 -0.022504
v -0.018055 -0.779959 -0.050746
v -0.568218 -0.779959 -0.027925
v -0.568218 -0.779959 -0.050746
v 0.405581 0.192714 -0.022504
v -0.468756 0.230373 -0.022504
v -0.468756 0.192714 -0.022504
v -0.468756 0.192714 -0.017996
v 0.627591 -0.788813 -0.022504
v 0.506548 -0.319915 -0.022504
v 0.506548 -0.319915 -0.015284
v -0.018055 0.192714 -0.050746
v 0.506548 0.231183 -0.050746
v 0.359775 0.562837 -0.023469
v -0.568218 -0.779959 -0.022504
v -0.018055 -0.779959 -0.022504
v -0.018055 -0.779959 -0.009150
v 0.577283 0.027031 -0.018166
v 0.506548 -0.319915 0.003259
v -0.468756 0.230415 0.003259
v 0.405581 0.532084 -0.022504
v -0.018055 0.532084 0.003259
v -0.367790 -0.628447 -0.022504
v -0.367790 -0.319915 0.003259
v -0.367790 -0.628447 0.003259
v 0.627591 -0.788813 0.003259
v -0.018055 -0.779959 0.003259
v -0.018055 -0.628447 0.003259
v -0.018055 -0.628447 -0.022504
v -0.547278 0.025075 -0.022504
v -0.547278 0.025075 -0.015554
v 0.506548 0.509411 -0.050746
v 0.506548 0.509922 -0.022504
v 0.577283 0.027031 -0.046408
v 0.577283 0.027031 -0.022504
v -0.018055 0.027031 -0.050746
v -0.547278 0.025075 -0.050746
v -0.468756 -0.319915 -0.050746
v 0.506548 -0.319915 -0.050746
v 0.627591 -0.788813 -0.050746
v -0.309009 -0.540240 -0.022504
v -0.247389 -0.443187 0.033996
v -0.309009 -0.408122 -0.022504
v 0.627591 -0.788813 -0.029991
v -0.468756 -0.319915 -0.022504
v -0.367790 0.532084 0.003259
v -0.367790 0.532084 -0.022504
v -0.367790 0.027031 0.003259
v -0.367790 0.027031 -0.022504
v 0.405581 -0.319915 -0.022504
v 0.405581 0.027031 -0.022504
v -0.018055 -0.319915 -0.022504
v 0.307815 -0.540240 -0.022504
v 0.131298 -0.508409 0.033996
v 0.073880 -0.540240 -0.022504
v -0.468756 0.192714 -0.050746
v -0.375620 0.567105 -0.004433
v -0.018055 0.683596 0.003259
v -0.568218 -0.779959 0.003259
v -0.375620 0.567105 -0.022504
v 0.405581 0.230051 0.003259
v 0.405581 0.192714 0.003259
v -0.468756 0.230671 -0.033784
v -0.018055 -0.319915 -0.050746
v -0.367790 -0.319915 -0.022504
v 0.405581 -0.628447 0.003259
v 0.405581 -0.628447 -0.022504
v -0.468756 -0.319915 -0.016898
v -0.018055 0.532084 -0.022504
v -0.367790 0.511342 -0.022504
v -0.367790 0.510542 0.003259
v -0.018055 0.192714 -0.022504
v -0.367790 0.192714 -0.022504
v 0.405582 0.511342 -0.022504
v 0.405581 0.532084 0.003259
v -0.018055 0.513151 -0.022504
v -0.018055 0.512640 -0.022504
v -0.468756 0.192714 0.003259
v -0.367790 0.230051 0.003259
v -0.468756 -0.319915 0.003259
v -0.468756 0.510178 -0.001803
v 0.405581 0.027031 0.003259
v 0.577283 0.027031 0.007598
v -0.547278 0.025075 0.003259
v 0.359775 0.562837 0.002295
v -0.367790 0.192714 0.003259
v 0.405581 -0.319915 0.003259
v 0.405582 0.512159 -0.022504
v 0.359775 0.562837 -0.014321
v -0.018055 0.227954 -0.022504
v -0.053934 -0.574606 -0.022504
v -0.331911 -0.373756 -0.022504
v -0.053934 -0.373756 -0.022504
v -0.331911 -0.574606 -0.022504
v 0.332090 -0.374196 -0.022504
v 0.330435 -0.574606 -0.022504
v 0.051171 -0.377484 -0.022504
v 0.050938 -0.574606 -0.022504
v -0.076835 -0.540240 -0.022504
v -0.076835 -0.408122 -0.022504
v 0.308901 -0.408835 -0.022504
v 0.074032 -0.411584 -0.022504
v -0.138456 -0.443187 0.033996
v -0.247389 -0.505175 0.033996
v -0.138456 -0.505175 0.033996
v 0.250700 -0.508409 0.033996
v 0.131376 -0.442742 0.033996
v 0.251254 -0.441339 0.033996
v -0.367790 0.512159 -0.022504
v -0.367790 0.229251 -0.022504
v 0.405581 0.228435 -0.022504
v 0.506548 0.510178 0.003259
v 0.405582 0.510542 0.003259
v 0.405581 0.229251 -0.022504
v -0.367790 0.228435 -0.022504
v -0.018055 0.227442 -0.022504
v -0.468756 0.509411 -0.055809
v -0.468756 0.509922 -0.029964
v 0.506548 0.510221 -0.022504
v -0.468756 0.510221 -0.029964
v -0.018055 0.509244 -0.050746
v 0.359775 0.562837 -0.051711
v -0.468756 0.231183 -0.050746
v 0.506548 0.230415 0.003259
v -0.018055 0.231349 -0.050746
v -0.375620 0.567105 -0.058439
vt 0.288265 0.046039
vt 0.346749 0.161489
vt 0.288267 0.204232
vt 0.402989 0.330111
vt 0.398889 0.171839
vt 0.402989 0.171842
vt 0.398921 0.171839
vt 0.402989 0.027461
vt 0.092578 0.003332
vt 0.003296 0.131226
vt 0.003296 0.003348
vt 0.098691 0.650125
vt 0.102502 0.718876
vt 0.098691 0.718876
vt 0.033411 0.499153
vt 0.037463 0.499148
vt 0.037463 0.524414
vt 0.508070 0.172141
vt 0.458364 0.171874
vt 0.458364 0.131413
vt 0.421748 0.442211
vt 0.417170 0.357111
vt 0.421328 0.357093
vt 0.003296 0.161600
vt 0.092578 0.161585
vt 0.092578 0.236417
vt 0.420333 0.147677
vt 0.458364 0.027493
vt 0.033406 0.643532
vt 0.640167 0.003297
vt 0.571419 0.147673
vt 0.571419 0.003308
vt 0.368691 0.537624
vt 0.402019 0.682024
vt 0.368691 0.682005
vt 0.197347 0.305914
vt 0.092578 0.305950
vt 0.514663 0.298753
vt 0.571376 0.154367
vt 0.571376 0.298677
vt 0.054232 0.498956
vt 0.054232 0.537905
vt 0.203942 0.046783
vt 0.227515 0.199348
vt 0.203941 0.204973
vt 0.420333 0.305946
vt 0.420333 0.171991
vt 0.439656 0.442135
vt 0.440001 0.345041
vt 0.054232 0.340689
vt 0.140522 0.468421
vt 0.092627 0.340808
vt 0.140522 0.340530
vt 0.526879 0.441765
vt 0.476735 0.356858
vt 0.527319 0.337003
vt 0.749777 0.003297
vt 0.739911 0.320055
vt 0.735560 0.003297
vt 0.458364 0.330143
vt 0.508070 0.214098
vt 0.508070 0.330410
vt 0.140522 0.498797
vt 0.092627 0.499075
vt 0.514663 0.147683
vt 0.514663 0.003318
vt 0.457395 0.537676
vt 0.439497 0.682046
vt 0.439497 0.537665
vt 0.684724 0.003297
vt 0.656055 0.319958
vt 0.646760 0.003297
vt 0.477516 0.515104
vt 0.527319 0.531031
vt 0.422108 0.515339
vt 0.440291 0.528003
vt 0.346750 0.305799
vt 0.288268 0.348542
vt 0.003296 0.305965
vt 0.197347 0.161549
vt 0.197347 0.119596
vt 0.346749 0.204575
vt 0.238270 0.529770
vt 0.234314 0.513365
vt 0.238351 0.513385
vt 0.197347 0.003296
vt 0.033379 0.435941
vt 0.037463 0.340881
vt 0.477155 0.441976
vt 0.640074 0.154276
vt 0.640074 0.298586
vt 0.092627 0.530493
vt 0.274475 0.700986
vt 0.292304 0.556584
vt 0.292304 0.700963
vt 0.491814 0.537696
vt 0.494055 0.682078
vt 0.491728 0.682077
vt 0.326592 0.700917
vt 0.328824 0.556536
vt 0.328824 0.700914
vt 0.074227 0.734794
vt 0.074227 0.734794
vt 0.074227 0.734794
vt 0.239051 0.371493
vt 0.234933 0.387858
vt 0.234974 0.371472
vt 0.345631 0.349014
vt 0.288918 0.349090
vt 0.294487 0.371769
vt 0.327771 0.388321
vt 0.294406 0.388154
vt 0.343875 0.445159
vt 0.327151 0.513827
vt 0.327491 0.445077
vt 0.362098 0.320716
vt 0.256268 0.513474
vt 0.255852 0.541444
vt 0.293706 0.530046
vt 0.344316 0.549943
vt 0.256887 0.387967
vt 0.257243 0.358840
vt 0.344316 0.355876
vt 0.513769 0.598918
vt 0.517032 0.537625
vt 0.517032 0.606376
vt 0.238970 0.387878
vt 0.293787 0.513661
vt 0.092627 0.643453
vt 0.054232 0.643335
vt 0.420333 0.003297
vt 0.074227 0.710530
vt 0.074227 0.712772
vt 0.074227 0.710619
vt 0.237141 0.701035
vt 0.274475 0.556607
vt 0.508070 0.027760
vt 0.037463 0.643526
vt 0.203940 0.701079
vt 0.237141 0.556657
vt 0.227516 0.250590
vt 0.227517 0.343658
vt 0.402019 0.537644
vt 0.140522 0.643176
vt 0.036662 0.718877
vt 0.009119 0.724699
vt 0.003297 0.718876
vt 0.030839 0.769812
vt 0.030839 0.724700
vt 0.003297 0.775633
vt 0.036662 0.775635
vt 0.009119 0.769811
vt 0.003297 0.650125
vt 0.030792 0.662053
vt 0.009119 0.662320
vt 0.036662 0.650126
vt 0.030436 0.707642
vt 0.009119 0.707679
vt 0.012835 0.728415
vt 0.027123 0.766095
vt 0.027123 0.728416
vt 0.012835 0.766094
vt 0.027046 0.665816
vt 0.012835 0.665991
vt 0.012835 0.703956
vt 0.026748 0.703932
vt 0.350909 0.399614
vt 0.357612 0.381936
vt 0.357612 0.399615
vt 0.358162 0.375253
vt 0.351060 0.355888
vt 0.358162 0.355876
vt 0.720405 0.337003
vt 0.692708 0.653672
vt 0.682728 0.337003
vt 0.638036 0.653595
vt 0.666985 0.337003
vt 0.676134 0.653595
vt 0.747863 0.337003
vt 0.758241 0.653746
vt 0.750992 0.653746
vt 0.691317 0.319900
vt 0.719244 0.003296
vt 0.728967 0.319900
vt 0.770212 0.320046
vt 0.759293 0.003296
vt 0.766358 0.003296
vt 0.726998 0.653755
vt 0.737779 0.337003
vt 0.741270 0.653755
vt 0.092098 0.718880
vt 0.074181 0.775637
vt 0.461342 0.537678
vt 0.457395 0.682056
vt 0.203942 0.349283
vt 0.220220 0.349182
vt 0.220313 0.349260
vt 0.098691 0.775633
vt 0.296236 0.700957
vt 0.296322 0.556579
vt 0.074227 0.728200
vt 0.074227 0.728200
vt 0.074227 0.728200
vt 0.074227 0.700186
vt 0.074227 0.703937
vt 0.074227 0.700131
vt 0.362098 0.018216
vt 0.362097 0.162978
vt 0.135391 0.650127
vt 0.133288 0.718877
vt 0.133236 0.650127
vt 0.203940 0.204972
vt 0.362096 0.162977
vt 0.135391 0.775635
vt 0.133236 0.775635
vt 0.387536 0.442356
vt 0.381258 0.381188
vt 0.387098 0.357238
vt 0.417951 0.515357
vt 0.461428 0.682059
vt 0.003301 0.615203
vt 0.003297 0.457390
vt 0.204601 0.387707
vt 0.205046 0.371198
vt 0.203981 0.513213
vt 0.234193 0.529750
vt 0.203940 0.529599
vt 0.074227 0.747980
vt 0.074227 0.747980
vt 0.074227 0.747980
vt 0.074227 0.728200
vt 0.074227 0.728200
vt 0.133343 0.718877
vt 0.102446 0.718876
vt 0.386919 0.516066
vt 0.074227 0.741387
vt 0.074227 0.741387
vt 0.074227 0.741387
vt 0.368691 0.171822
vt 0.398916 0.027459
vt 0.003329 0.457390
vt 0.368723 0.171822
vt 0.398833 0.330108
vt 0.368778 0.330091
vt 0.417572 0.442229
vt 0.033324 0.340886
vt 0.380110 0.501283
vt 0.346747 0.003296
vt 0.102554 0.650125
vt 0.640167 0.147662
vt 0.514663 0.154442
vt 0.227513 0.041156
vt 0.746582 0.320055
vt 0.675432 0.319958
vt 0.494055 0.537697
vt 0.326506 0.556539
vt 0.345724 0.349092
vt 0.500648 0.537624
vt 0.203940 0.556701
vt 0.350909 0.381936
vt 0.350909 0.375343
vt 0.710386 0.653672
vt 0.647539 0.337003
vt 0.762066 0.337003
vt 0.701580 0.003296
vt 0.756370 0.320046
vt 0.731083 0.337003
vt 0.074227 0.721607
vt 0.074227 0.719365
vt 0.074227 0.719454
vt 0.074227 0.747980
vt 0.102554 0.775633
vt 0.135391 0.718877
vt 0.368691 0.442436
vt 0.074227 0.747980
vt 0.074227 0.741387
vt 0.368695 0.027441
vt 0.003384 0.312558
vt 0.074181 0.650128
vt 0.092098 0.650129
vt 0.092098 0.775638
vn -0.3098 0.9508 0.0000
vn 1.0000 0.0000 0.0000
vn -1.0000 0.0000 -0.0000
vn 0.7071 -0.0000 0.7071
vn -0.0069 -1.0000 0.0000
vn 0.0000 -1.0000 0.0000
vn -0.0000 -0.0000 1.0000
vn 0.0000 0.0095 1.0000
vn 0.9683 0.2499 0.0000
vn -0.0000 0.0000 -1.0000
vn 0.9798 -0.1998 0.0000
vn -0.0038 -1.0000 0.0000
vn -0.0137 -0.9999 0.0000
vn 0.0000 1.0000 0.0000
vn -0.9056 0.4242 0.0000
vn 0.3392 0.9406 -0.0170
vn 0.9197 0.3926 0.0000
vn 0.0073 -0.0231 -0.9997
vn -0.9774 0.2113 0.0000
vn -0.0008 -0.0012 -1.0000
vn -0.6758 -0.0000 0.7371
vn 0.0003 -0.0000 1.0000
vn 0.1959 -0.0009 0.9806
vn 0.0000 -0.8712 0.4908
vn 0.0033 0.0049 -1.0000
vn 0.3044 0.9525 0.0000
vn -0.9751 -0.2219 0.0000
vn -0.9536 -0.0001 -0.3012
vn -0.5000 0.8660 0.0000
vn -0.0001 1.0000 -0.0000
vn 0.0013 -0.0000 1.0000
vn 0.0012 -0.0000 1.0000
vn -0.0911 0.1942 0.9767
vn -0.0851 0.1958 0.9770
vn -0.0907 0.1943 0.9767
vn -0.0253 0.0154 0.9996
vn 0.0000 0.0313 0.9995
vn -0.5214 0.8533 0.0001
vn -0.5214 0.8533 0.0007
vn -0.5215 0.8532 0.0000
vn 0.0000 -0.8497 0.5273
vn -0.0102 0.8712 0.4908
vn 0.7016 -0.0058 0.7125
vn 0.0000 0.8497 0.5273
vn -0.7016 0.0008 0.7126
vn 0.6758 0.0000 0.7371
vn -0.0039 -0.0062 1.0000
vn 0.7500 0.6614 0.0000
vn -0.9458 -0.0000 -0.3249
vn 0.0001 -1.0000 -0.0000
vn -0.5232 0.8521 -0.0169
vn 0.3376 0.9413 0.0006
vn 0.3375 0.9413 0.0003
vn -0.0025 0.0000 -1.0000
vn 0.3375 0.9413 0.0000
vn 0.0000 -0.0180 -0.9998
vn -0.0501 0.0181 0.9986
vn 0.6849 0.0000 0.7286
vn 0.0000 -1.0000 0.0001
vn -0.7805 -0.6252 -0.0000
vn 0.0000 0.3827 -0.9239
vn 0.0112 -0.0182 -0.9998
vn 0.0000 1.0000 -0.0001
vn 0.0112 -0.0635 -0.9979
vn 0.3420 0.9397 0.0000
vn 0.0073 0.0110 -0.9999
vn -0.0848 0.1956 0.9770
vn -0.0501 -0.0000 0.9987
vn 0.0026 -0.0000 1.0000
vn -0.0253 -0.0074 0.9997
vn -0.5212 0.8534 0.0004
vn -0.0000 1.0000 0.0001
vn -0.0000 -1.0000 -0.0001
vn 0.0100 0.0463 0.9989
vn -0.5266 0.8501 0.0000
vn 0.3377 0.9413 0.0000
vn -0.5212 0.8534 0.0000
vn 0.0066 0.0000 -1.0000
vn -0.0026 0.0000 -1.0000
vn -0.6853 -0.0000 -0.7282
vn 0.0215 0.0000 -0.9998
s 1
f 1/1/1 2/2/1 3/3/1
f 4/4/2 5/5/3 8/6/2
f 6/7/4 7/8/2 8/6/2
f 9/9/5 10/10/6 11/11/6
f 12/12/7 97/13/7 79/14/8
f 13/15/3 14/16/3 15/17/3
f 16/18/9 17/19/9 18/20/9
f 19/21/10 20/22/10 4/23/10
f 22/24/6 23/25/5 24/26/5
f 25/27/11 26/28/11 18/20/11
f 15/17/3 27/29/3 13/15/3
f 28/30/12 29/31/6 76/32/6
f 30/33/2 31/34/2 32/35/2
f 24/26/5 33/36/13 34/37/5
f 30/38/14 35/39/14 36/40/14
f 15/17/15 37/41/15 38/42/15
f 39/43/16 21/44/16 40/45/16
f 41/46/17 8/6/17 42/47/17
f 43/48/18 4/23/18 41/49/18
f 14/16/15 44/50/15 37/41/15
f 10/51/19 45/52/19 11/53/19
f 9/54/10 46/55/20 47/56/10
f 48/57/21 49/58/21 50/59/21
f 46/60/9 51/61/9 47/62/9
f 22/63/19 52/64/19 10/51/19
f 76/32/6 53/65/6 54/66/22
f 80/67/23 55/68/2 56/69/2
f 25/27/11 17/19/11 42/47/11
f 60/70/24 61/71/24 62/72/24
f 45/73/10 9/54/10 11/74/10
f 63/75/10 43/48/25 44/76/10
f 3/3/1 64/77/1 65/78/1
f 24/26/5 66/79/6 22/24/6
f 16/80/13 23/25/5 51/81/13
f 67/82/1 3/3/1 2/2/1
f 7/83/7 68/84/7 69/85/7
f 51/81/13 9/9/5 47/86/13
f 70/87/3 63/88/3 14/16/3
f 21/44/26 1/1/26 3/3/26
f 45/73/10 43/48/25 71/89/10
f 36/40/14 73/90/14 74/91/14
f 37/41/27 45/52/27 52/64/27
f 43/48/25 46/55/20 71/89/10
f 41/46/11 17/19/11 46/60/11
f 75/92/27 37/41/27 52/64/27
f 58/93/3 69/94/3 12/95/3
f 77/96/2 53/97/2 78/98/2
f 81/99/28 82/100/3 28/101/29
f 83/102/6 76/103/30 84/104/14
f 85/105/7 86/106/7 27/107/7
f 65/78/31 53/108/7 29/109/32
f 87/110/7 32/111/7 31/112/7
f 34/113/7 73/114/7 35/115/7
f 88/116/33 53/108/34 64/77/35
f 7/83/36 89/117/36 90/118/36
f 26/119/7 73/114/7 33/120/7
f 87/110/7 55/121/7 91/122/7
f 34/113/7 32/111/7 66/123/7
f 92/124/37 29/125/37 82/126/37
f 85/105/7 55/121/7 93/127/7
f 26/119/7 89/117/7 94/128/7
f 67/82/38 88/116/39 64/77/40
f 38/42/27 87/129/27 91/130/27
f 25/27/17 7/8/17 90/131/17
f 81/132/28 28/133/29 95/134/10
f 57/135/3 89/136/3 58/93/3
f 18/20/9 33/137/9 16/18/9
f 38/42/15 85/138/15 15/17/15
f 74/139/3 94/140/3 57/135/3
f 96/141/26 65/78/26 92/142/26
f 72/143/2 55/68/2 31/34/2
f 75/92/19 66/144/19 87/129/19
f 59/145/7 98/146/7 36/147/7
f 59/145/7 99/148/7 100/149/7
f 30/150/7 99/148/7 72/151/7
f 36/147/7 101/152/7 30/150/7
f 74/153/7 102/154/7 103/155/7
f 59/145/7 102/154/7 57/156/7
f 36/147/7 104/157/7 59/145/7
f 36/147/7 103/155/7 105/158/7
f 100/149/7 106/159/7 98/146/7
f 100/149/7 50/160/7 107/161/7
f 101/152/7 50/160/7 99/148/7
f 98/146/7 48/162/7 101/152/7
f 103/155/7 108/163/7 60/164/7
f 104/157/7 108/163/7 102/154/7
f 104/157/7 62/165/7 109/166/7
f 103/155/7 62/165/7 105/158/7
f 110/167/7 111/168/7 112/169/7
f 113/170/7 114/171/7 61/172/7
f 106/173/41 111/174/41 48/175/41
f 109/176/42 115/177/42 108/178/42
f 60/179/43 115/180/43 113/181/43
f 50/182/44 110/183/44 107/184/44
f 109/185/45 61/186/45 114/187/45
f 107/188/46 112/189/46 106/190/46
f 79/191/8 56/192/47 59/145/7
f 117/193/48 93/194/2 80/67/23
f 119/195/7 82/196/7 120/197/7
f 97/13/7 80/198/23 79/14/8
f 121/199/3 69/94/3 68/200/3
f 117/201/48 80/202/23 122/203/49
f 123/204/14 79/205/50 97/206/6
f 2/2/51 124/207/51 125/208/51
f 28/209/12 84/210/7 95/211/7
f 6/7/4 8/6/2 5/5/3
f 96/141/52 119/195/52 126/212/53
f 127/213/54 2/2/54 125/208/54
f 126/212/53 21/44/55 96/141/52
f 84/210/7 54/214/22 116/215/7
f 128/216/56 129/217/56 39/218/56
f 130/219/10 19/21/10 63/75/10
f 77/96/2 86/220/2 117/193/48
f 68/200/3 81/99/28 121/199/3
f 13/15/3 88/221/3 127/222/3
f 27/107/57 78/223/57 88/224/57
f 120/225/7 131/226/7 119/227/7
f 81/228/58 118/229/58 121/230/58
f 117/201/59 116/231/60 77/232/14
f 84/210/6 83/233/6 123/234/61
f 128/216/62 130/219/62 124/235/62
f 6/236/59 40/237/6 126/238/63
f 126/239/2 131/240/2 6/7/4
f 125/241/3 13/15/3 127/222/3
f 40/242/2 20/243/2 39/244/2
f 128/216/10 20/22/10 132/245/10
f 125/241/3 130/246/3 70/87/3
f 133/247/64 128/216/64 124/235/64
f 97/13/3 123/234/61 83/233/6
f 1/1/1 133/248/1 2/2/1
f 4/4/2 20/243/2 5/5/3
f 6/7/4 131/240/2 7/8/2
f 9/9/5 23/25/5 10/10/6
f 12/12/7 118/249/7 97/13/7
f 13/15/3 70/87/3 14/16/3
f 16/18/9 51/61/9 17/19/9
f 19/21/10 132/245/10 20/22/10
f 3/3/26 96/141/26 21/44/26
f 22/24/6 10/10/6 23/25/5
f 25/27/11 90/131/11 26/28/11
f 15/17/3 85/138/3 27/29/3
f 28/30/12 82/250/6 29/31/6
f 30/33/2 72/143/2 31/34/2
f 24/26/5 16/80/13 33/36/13
f 30/38/14 32/251/14 35/39/14
f 15/17/15 14/16/15 37/41/15
f 39/43/65 129/252/65 21/44/65
f 41/46/17 4/4/17 8/6/17
f 43/48/25 19/21/10 4/23/10
f 14/16/15 63/88/15 44/50/15
f 10/51/19 52/64/19 45/52/19
f 9/54/10 71/89/10 46/55/20
f 48/57/21 111/253/21 49/58/21
f 46/60/9 17/19/9 51/61/9
f 22/63/19 75/92/19 52/64/19
f 76/32/6 29/31/6 53/65/6
f 80/67/23 93/194/2 55/68/2
f 25/27/11 18/20/11 17/19/11
f 60/70/24 113/254/24 61/71/24
f 45/73/10 71/89/10 9/54/10
f 63/75/10 19/21/10 43/48/25
f 3/3/1 67/82/1 64/77/1
f 24/26/5 34/37/5 66/79/6
f 16/80/13 24/26/5 23/25/5
f 7/83/7 131/226/7 68/84/7
f 51/81/13 23/25/5 9/9/5
f 70/87/3 130/246/3 63/88/3
f 21/44/26 129/252/26 1/1/26
f 45/73/10 44/76/10 43/48/25
f 8/6/17 25/27/17 42/47/17
f 36/40/14 35/39/14 73/90/14
f 37/41/27 44/50/27 45/52/27
f 43/48/25 41/49/66 46/55/20
f 41/46/11 42/47/11 17/19/11
f 75/92/27 38/42/27 37/41/27
f 58/93/3 89/136/3 69/94/3
f 77/96/2 54/255/2 53/97/2
f 81/99/28 120/256/3 82/100/3
f 85/105/7 93/127/7 86/106/7
f 65/78/67 64/77/35 53/108/34
f 87/110/7 66/123/7 32/111/7
f 34/113/7 33/120/7 73/114/7
f 88/116/68 78/257/68 53/108/68
f 7/83/7 69/85/7 89/117/7
f 26/119/7 94/128/7 73/114/7
f 87/110/7 31/112/7 55/121/7
f 34/113/7 35/115/7 32/111/7
f 92/124/69 65/258/31 29/125/32
f 85/105/7 91/122/7 55/121/7
f 26/119/70 90/118/70 89/117/70
f 67/82/38 127/213/71 88/116/39
f 38/42/27 75/92/27 87/129/27
f 25/27/17 8/6/17 7/8/17
f 57/135/3 94/140/3 89/136/3
f 18/20/9 26/28/9 33/137/9
f 38/42/15 91/130/15 85/138/15
f 74/139/3 73/259/3 94/140/3
f 96/141/26 3/3/26 65/78/26
f 72/143/2 56/69/2 55/68/2
f 75/92/19 22/63/19 66/144/19
f 59/145/7 100/149/7 98/146/7
f 59/145/7 72/151/7 99/148/7
f 30/150/7 101/152/7 99/148/7
f 36/147/7 98/146/7 101/152/7
f 74/153/7 57/156/7 102/154/7
f 59/145/7 104/157/7 102/154/7
f 36/147/7 105/158/7 104/157/7
f 36/147/7 74/153/7 103/155/7
f 100/149/7 107/161/7 106/159/7
f 100/149/7 99/148/7 50/160/7
f 101/152/7 48/162/7 50/160/7
f 98/146/7 106/159/7 48/162/7
f 103/155/7 102/154/7 108/163/7
f 104/157/7 109/166/7 108/163/7
f 104/157/7 105/158/7 62/165/7
f 103/155/7 60/164/7 62/165/7
f 110/167/7 49/260/7 111/168/7
f 113/170/7 115/261/7 114/171/7
f 106/173/41 112/262/41 111/174/41
f 109/176/42 114/263/42 115/177/42
f 60/179/43 108/264/43 115/180/43
f 50/182/44 49/265/44 110/183/44
f 109/185/45 62/266/45 61/186/45
f 107/188/46 110/267/46 112/189/46
f 54/268/72 77/269/14 116/270/60
f 117/193/48 86/220/2 93/194/2
f 12/271/73 121/230/72 118/229/14
f 119/195/74 92/142/74 82/196/74
f 97/13/7 122/272/49 80/198/23
f 121/199/3 12/95/3 69/94/3
f 2/2/75 133/248/75 124/207/75
f 28/209/12 76/273/6 84/210/7
f 96/141/52 92/142/76 119/195/52
f 127/213/71 67/82/38 2/2/77
f 126/212/78 40/45/78 21/44/78
f 84/210/7 76/273/6 54/214/22
f 128/216/79 1/274/79 129/217/79
f 130/219/10 132/245/10 19/21/10
f 77/96/2 78/98/2 86/220/2
f 68/200/3 120/256/3 81/99/28
f 13/15/3 27/29/3 88/221/3
f 27/107/7 86/106/7 78/223/7
f 120/225/7 68/84/7 131/226/7
f 81/228/28 95/275/10 118/229/80
f 117/201/14 122/203/73 116/231/72
f 118/249/7 95/211/7 84/210/7
f 97/13/7 118/249/7 84/210/7
f 123/234/61 97/13/6 84/210/6
f 128/216/10 132/245/10 130/219/10
f 6/236/4 5/276/3 40/237/2
f 126/239/2 119/277/2 131/240/2
f 125/241/3 70/87/3 13/15/3
f 40/242/2 5/5/3 20/243/2
f 128/216/10 39/218/10 20/22/10
f 125/241/3 124/278/3 130/246/3
f 133/247/81 1/274/81 128/216/81
f 84/210/7 116/215/7 122/272/49
f 84/210/7 122/272/49 97/13/7
f 83/233/6 84/210/14 97/13/3
f 59/145/7 57/156/7 58/279/7
f 58/279/7 12/280/7 79/191/8
f 79/191/8 80/281/23 56/192/47
f 56/192/47 72/151/7 59/145/7
f 59/145/7 58/279/7 79/191/8
