# Blender v3.0.0 OBJ File: 'Swiat (3).blend111'
# www.blender.org
mtllib podloga9_10.mtl
o Podloga.NR11.009_Cube.021
v -5.000000 -0.250000 -4.500000
v -4.900000 0.320000 -4.410000
v 5.000000 -0.250000 -4.500000
v 4.900000 0.320000 -4.410000
v -5.000000 -0.250000 4.500000
v -4.900000 0.320000 4.410000
v 5.000000 -0.250000 4.500000
v 4.900000 0.320000 4.410000
v -5.000000 0.250000 -4.500000
v 5.000000 0.250000 -4.500000
v 5.000000 0.250000 4.500000
v -5.000000 0.250000 4.500000
vt 0.625000 0.000000
vt 0.375000 0.250000
vt 0.375000 0.000000
vt 0.625000 0.250000
vt 0.375000 0.500000
vt 0.625000 0.500000
vt 0.375000 0.750000
vt 0.625000 0.750000
vt 0.375000 1.000000
vt 0.125000 0.750000
vt 0.125000 0.500000
vt 0.872500 0.502500
vt 0.627500 0.747500
vt 0.627500 0.502500
vt 0.875000 0.750000
vt 0.872500 0.747500
vt 0.875000 0.500000
vt 0.625000 1.000000
vn 0.0000 0.0000 -1.0000
vn 1.0000 0.0000 0.0000
vn 0.0000 0.0000 1.0000
vn -1.0000 0.0000 0.0000
vn 0.0000 -1.0000 0.0000
vn 0.0000 1.0000 0.0000
vn 0.0000 0.7894 -0.6139
vn 0.5735 0.8192 0.0000
vn 0.0000 0.7894 0.6139
vn -0.5735 0.8192 0.0000
usemtl Material.021
s off
f 9/1/1 3/2/1 1/3/1
f 10/4/2 7/5/2 3/2/2
f 11/6/3 5/7/3 7/5/3
f 12/8/4 1/9/4 5/7/4
f 7/5/5 1/10/5 3/11/5
f 4/12/6 6/13/6 8/14/6
f 4/12/7 9/15/7 2/16/7
f 8/14/8 10/17/8 4/12/8
f 6/13/9 11/6/9 8/14/9
f 2/16/10 12/8/10 6/13/10
f 9/1/1 10/4/1 3/2/1
f 10/4/2 11/6/2 7/5/2
f 11/6/3 12/8/3 5/7/3
f 12/8/4 9/18/4 1/9/4
f 7/5/5 5/7/5 1/10/5
f 4/12/6 2/16/6 6/13/6
f 4/12/7 10/17/7 9/15/7
f 8/14/8 11/6/8 10/17/8
f 6/13/9 12/8/9 11/6/9
f 2/16/10 9/15/10 12/8/10
