# Blender v2.91.0 OBJ File: 'lordsaveme.blend'
# www.blender.org
o back_Cylinder.011_Cylinder.001
v -0.726032 0.610768 -0.024320
v -0.901626 0.914907 -0.024320
v -0.715372 1.237508 -0.024320
v -0.901626 0.306629 -0.024320
v -0.726032 0.002490 -0.024320
v -0.901626 -0.301649 -0.024320
v -0.723145 -0.610787 -0.024320
v -0.715373 -1.242527 -0.024320
v -0.901626 -0.919926 -0.024320
v 0.359282 1.237508 -0.024320
v -0.187238 1.538908 -0.024320
v 0.185269 1.538908 -0.024320
v -0.361251 1.237508 -0.024320
v 0.183989 -1.538808 -0.024320
v -0.188518 -1.538808 -0.024320
v -0.359576 -1.242527 -0.024320
v 0.899659 0.914907 -0.024320
v 0.713405 1.237508 -0.024320
v 0.899659 0.306628 -0.024320
v 0.724064 0.002490 -0.024320
v 0.724065 0.610768 -0.024320
v 0.899659 -0.301649 -0.024320
v 0.721177 -0.610788 -0.024320
v 0.899659 -0.919926 -0.024320
v 0.713405 -1.242527 -0.024320
v 0.355047 -1.242527 -0.024320
vt 0.000000 0.000000
vt 0.000000 0.000000
vt 0.000000 0.000000
vt 0.000000 0.000000
vt 0.000000 0.000000
vt 0.000000 0.000000
vt 0.000000 0.000000
vt 0.000000 0.000000
vt 0.000000 0.000000
vt 0.000000 0.000000
vt 0.000000 0.000000
vt 0.000000 0.000000
vt 0.000000 0.000000
vt 0.000000 0.000000
vt 0.000000 0.000000
vt 0.000000 0.000000
vt 0.000000 0.000000
vt 0.000000 0.000000
vt 0.000000 0.000000
vt 0.000000 0.000000
vt 0.000000 0.000000
vt 0.000000 0.000000
vt 0.000000 0.000000
vt 0.000000 0.000000
vt 0.000000 0.000000
vt 0.000000 0.000000
vn 0.0000 -0.0000 1.0000
s off
f 1/1/1 20/2/1 21/3/1
f 1/1/1 4/4/1 5/5/1
f 5/5/1 6/6/1 7/7/1
f 7/7/1 9/8/1 16/9/1
f 9/8/1 8/10/1 16/9/1
f 16/9/1 15/11/1 14/12/1
f 1/1/1 5/5/1 20/2/1
f 5/5/1 7/7/1 23/13/1
f 3/14/1 2/15/1 1/1/1
f 12/16/1 11/17/1 13/18/1
f 13/18/1 3/14/1 1/1/1
f 5/5/1 23/13/1 20/2/1
f 7/7/1 16/9/1 26/19/1
f 16/9/1 14/12/1 26/19/1
f 26/19/1 25/20/1 23/13/1
f 25/20/1 24/21/1 23/13/1
f 23/13/1 22/22/1 20/2/1
f 7/7/1 26/19/1 23/13/1
f 12/16/1 13/18/1 10/23/1
f 13/18/1 1/1/1 10/23/1
f 17/24/1 18/25/1 21/3/1
f 18/25/1 10/23/1 21/3/1
f 20/2/1 19/26/1 21/3/1
f 10/23/1 1/1/1 21/3/1
