# Blender v3.0.0 OBJ File: ''
# www.blender.org
mtllib NWM.mtl
o Cube
v -0.998749 1.004319 0.996918
v -1.001242 -0.995670 1.003073
v -0.998756 0.998164 -1.003073
v -1.001250 -1.001825 -0.996918
v 1.001250 1.001825 0.996918
v 0.998756 -0.998164 1.003073
v 1.001242 0.995670 -1.003073
v 0.998749 -1.004319 -0.996918
v -1.000000 5.964511 0.985276
v -1.000000 3.964517 0.990214
v -1.000000 5.959573 -1.014717
v -1.000000 3.959579 -1.009779
v 1.000000 5.964511 0.985276
v 1.000000 3.964517 0.990214
v 1.000000 5.959573 -1.014717
v 1.000000 3.959579 -1.009779
v -1.000000 1.042921 5.958119
v -1.000000 -0.957040 5.970488
v -1.000000 1.030552 3.958157
v -1.000000 -0.969410 3.970526
v 1.000000 1.042921 5.958119
v 1.000000 -0.957040 5.970488
v 1.000000 1.030552 3.958157
v 1.000000 -0.969410 3.970526
v -1.000000 0.990190 -4.013501
v -1.000000 -1.009804 -4.008610
v -1.000000 0.985300 -6.013495
v -1.000000 -1.014694 -6.008604
v 1.000000 0.990190 -4.013501
v 1.000000 -1.009804 -4.008610
v 1.000000 0.985300 -6.013495
v 1.000000 -1.014694 -6.008604
v 3.913049 0.990833 0.996918
v 3.913024 -1.009157 1.003073
v 3.913049 0.984678 -1.003073
v 3.913024 -1.015312 -0.996918
v 5.913049 0.990808 0.996918
v 5.913024 -1.009182 1.003073
v 5.913049 0.984653 -1.003073
v 5.913024 -1.015337 -0.996918
v -6.013526 0.963844 0.996918
v -6.008588 -1.036140 1.003073
v -6.013511 0.957690 -1.003073
v -6.008573 -1.042295 -0.996918
v -4.013532 0.968783 0.996918
v -4.008593 -1.031201 1.003073
v -4.013516 0.962628 -1.003073
v -4.008578 -1.037356 -0.996918
v -0.032965 8.445262 0.012114
v -0.032965 8.445100 -0.053816
v 0.032965 8.445262 0.012114
v 0.032965 8.445100 -0.053816
vt 0.876001 0.751001
vt 0.998999 0.873999
vt 0.998999 0.751001
vt 0.998999 0.501001
vt 0.876001 0.623999
vt 0.998999 0.623999
vt 0.623999 0.876001
vt 0.501001 0.998999
vt 0.623999 0.998999
vt 0.876001 0.376001
vt 0.998999 0.498999
vt 0.998999 0.376001
vt 0.376001 0.876001
vt 0.498999 0.998999
vt 0.498999 0.876001
vt 0.251001 0.876001
vt 0.373999 0.998999
vt 0.373999 0.876001
vt 0.876001 0.126001
vt 0.936499 0.373999
vt 0.936499 0.126001
vt 0.751001 0.001001
vt 0.873999 0.123999
vt 0.873999 0.001001
vt 0.501001 0.501001
vt 0.623999 0.623999
vt 0.623999 0.501001
vt 0.626001 0.001001
vt 0.748999 0.123999
vt 0.748999 0.001001
vt 0.001001 0.626001
vt 0.123999 0.748999
vt 0.123999 0.626001
vt 0.126001 0.626001
vt 0.248999 0.748999
vt 0.248999 0.626001
vt 0.626001 0.126001
vt 0.748999 0.248999
vt 0.748999 0.126001
vt 0.626001 0.251001
vt 0.748999 0.373999
vt 0.748999 0.251001
vt 0.251001 0.626001
vt 0.373999 0.748999
vt 0.373999 0.626001
vt 0.376001 0.626001
vt 0.498999 0.748999
vt 0.498999 0.626001
vt 0.626001 0.376001
vt 0.748999 0.498999
vt 0.748999 0.376001
vt 0.626001 0.501001
vt 0.748999 0.623999
vt 0.748999 0.501001
vt 0.501001 0.626001
vt 0.623999 0.748999
vt 0.623999 0.626001
vt 0.626001 0.626001
vt 0.748999 0.748999
vt 0.748999 0.626001
vt 0.001001 0.751001
vt 0.123999 0.873999
vt 0.123999 0.751001
vt 0.876001 0.626001
vt 0.998999 0.748999
vt 0.998999 0.626001
vt 0.751001 0.126001
vt 0.873999 0.248999
vt 0.873999 0.126001
vt 0.126001 0.751001
vt 0.248999 0.873999
vt 0.248999 0.751001
vt 0.751001 0.251001
vt 0.873999 0.373999
vt 0.873999 0.251001
vt 0.251001 0.751001
vt 0.373999 0.873999
vt 0.373999 0.751001
vt 0.376001 0.751001
vt 0.498999 0.873999
vt 0.498999 0.751001
vt 0.751001 0.376001
vt 0.873999 0.498999
vt 0.873999 0.376001
vt 0.501001 0.751001
vt 0.623999 0.873999
vt 0.623999 0.751001
vt 0.751001 0.501001
vt 0.873999 0.623999
vt 0.873999 0.501001
vt 0.873999 0.626001
vt 0.751001 0.748999
vt 0.873999 0.748999
vt 0.626001 0.751001
vt 0.748999 0.873999
vt 0.748999 0.751001
vt 0.751001 0.751001
vt 0.873999 0.873999
vt 0.873999 0.751001
vt 0.998999 0.001001
vt 0.876001 0.123999
vt 0.998999 0.123999
vt 0.001001 0.876001
vt 0.123999 0.998999
vt 0.123999 0.876001
vt 0.248999 0.876001
vt 0.126001 0.998999
vt 0.248999 0.998999
vt 0.248999 0.248999
vt 0.248999 0.002002
vt 0.002002 0.248999
vt 0.001001 0.001001
vt 0.001001 0.247998
vt 0.247998 0.001001
vt 0.498999 0.498999
vt 0.498999 0.252002
vt 0.252002 0.498999
vt 0.251001 0.251001
vt 0.251001 0.497998
vt 0.497998 0.251001
vt 0.001001 0.623999
vt 0.248999 0.501001
vt 0.001001 0.501001
vt 0.623999 0.498999
vt 0.501001 0.251001
vt 0.501001 0.498999
vt 0.251001 0.623999
vt 0.498999 0.501001
vt 0.251001 0.501001
vt 0.623999 0.248999
vt 0.501001 0.001001
vt 0.501001 0.248999
vt 0.498999 0.001001
vt 0.251001 0.248999
vt 0.498999 0.248999
vt 0.248999 0.251001
vt 0.001001 0.498999
vt 0.248999 0.498999
vt 0.876001 0.876001
vt 0.881811 0.881811
vt 0.881811 0.876001
vt 0.873999 0.936499
vt 0.626001 0.876001
vt 0.626001 0.936499
vt 0.938501 0.126001
vt 0.998999 0.373999
vt 0.998999 0.126001
vt 0.873999 0.938501
vt 0.626001 0.998999
vt 0.873999 0.998999
vt 0.876001 0.873999
vt 0.876001 0.501001
vt 0.501001 0.876001
vt 0.876001 0.498999
vt 0.376001 0.998999
vt 0.251001 0.998999
vt 0.876001 0.373999
vt 0.751001 0.123999
vt 0.501001 0.623999
vt 0.626001 0.123999
vt 0.001001 0.748999
vt 0.126001 0.748999
vt 0.626001 0.248999
vt 0.626001 0.373999
vt 0.251001 0.748999
vt 0.376001 0.748999
vt 0.626001 0.498999
vt 0.626001 0.623999
vt 0.501001 0.748999
vt 0.626001 0.748999
vt 0.001001 0.873999
vt 0.876001 0.748999
vt 0.751001 0.248999
vt 0.126001 0.873999
vt 0.751001 0.373999
vt 0.251001 0.873999
vt 0.376001 0.873999
vt 0.751001 0.498999
vt 0.501001 0.873999
vt 0.751001 0.623999
vt 0.751001 0.626001
vt 0.626001 0.873999
vt 0.751001 0.873999
vt 0.876001 0.001001
vt 0.001001 0.998999
vt 0.126001 0.876001
vt 0.248999 0.623999
vt 0.623999 0.251001
vt 0.498999 0.623999
vt 0.623999 0.001001
vt 0.251001 0.001001
vt 0.001001 0.251001
vt 0.876001 0.881811
vt 0.873999 0.876001
vt 0.938501 0.373999
vt 0.626001 0.938501
vn 0.0012 1.0000 -0.0031
vn -0.0000 -0.0031 -1.0000
vn 1.0000 -0.0012 0.0000
vn -0.0012 -1.0000 0.0031
vn -1.0000 0.0012 -0.0000
vn 0.0000 0.0031 1.0000
vn 0.9318 0.3629 -0.0009
vn 0.0000 -0.0025 -1.0000
vn 1.0000 0.0000 0.0000
vn 0.0000 -1.0000 0.0025
vn -1.0000 0.0000 0.0000
vn 0.0000 0.0025 1.0000
vn 0.0000 -1.0000 0.0062
vn 0.0000 0.0062 1.0000
vn 0.0000 1.0000 -0.0062
vn 0.0000 -0.0062 -1.0000
vn 0.0000 1.0000 -0.0024
vn 0.0000 -0.0024 -1.0000
vn 0.0000 -1.0000 0.0024
vn 0.0000 0.0024 1.0000
vn 0.0000 1.0000 -0.0031
vn -0.0000 -1.0000 0.0031
vn 0.0025 -1.0000 0.0031
vn -1.0000 -0.0025 -0.0000
vn -0.0025 1.0000 -0.0031
vn 1.0000 0.0025 0.0000
vn 0.0038 0.9999 -0.0097
vn -0.0038 -1.0000 0.0018
vn -0.0118 0.9999 -0.0027
vn -0.0118 0.9999 -0.0088
vn -0.0012 -1.0000 0.0018
vn 0.0000 1.0000 -0.0089
vn -0.0038 -1.0000 0.0031
vn -0.0118 0.9999 -0.0031
vn -0.7071 -0.0019 -0.7071
vn 0.7071 -0.0013 -0.7071
vn 0.0000 1.0000 -0.0025
vn -0.9318 0.3629 -0.0009
vn 0.0000 0.3652 0.9309
vn 0.0000 0.3606 -0.9327
vn 0.0000 -1.0000 0.0026
vn 0.0012 1.0000 -0.0097
usemtl Material
s off
f 5/1/1 3/2/1 1/3/1
f 4/4/2 7/5/2 8/6/2
f 8/7/3 5/8/3 6/9/3
f 2/10/4 8/11/4 6/12/4
f 1/13/5 4/14/5 2/15/5
f 5/16/6 2/17/6 6/18/6
f 15/19/7 51/20/7 13/21/7
f 11/22/8 16/23/8 12/24/8
f 15/25/9 14/26/9 16/27/9
f 10/28/10 16/29/10 14/30/10
f 9/31/11 12/32/11 10/33/11
f 13/34/12 10/35/12 14/36/12
f 19/37/13 21/38/13 17/39/13
f 24/40/14 19/41/14 20/42/14
f 22/43/11 23/44/11 24/45/11
f 24/46/15 18/47/15 22/48/15
f 20/49/9 17/50/9 18/51/9
f 18/52/16 21/53/16 22/54/16
f 29/55/17 27/56/17 25/57/17
f 27/58/18 32/59/18 28/60/18
f 31/61/9 30/62/9 32/63/9
f 26/64/19 32/65/19 30/66/19
f 25/67/11 28/68/11 26/69/11
f 29/70/20 26/71/20 30/72/20
f 37/73/21 35/74/21 33/75/21
f 35/76/2 40/77/2 36/78/2
f 39/79/9 38/80/9 40/81/9
f 34/82/22 40/83/22 38/84/22
f 33/85/11 36/86/11 34/87/11
f 37/88/6 34/89/6 38/90/6
f 41/91/23 47/92/23 45/93/23
f 48/94/6 43/95/6 44/96/6
f 46/97/24 47/98/24 48/99/24
f 46/100/25 44/101/25 42/102/25
f 44/103/26 41/104/26 42/105/26
f 46/106/2 41/107/2 45/108/2
f 6/109/27 24/110/27 34/111/27
f 8/112/28 30/113/28 36/114/28
f 4/115/29 26/116/29 48/117/29
f 2/118/30 46/119/30 20/120/30
f 3/121/31 29/122/31 7/123/31
f 23/124/32 1/125/32 19/126/32
f 7/127/33 33/128/33 5/129/33
f 45/130/34 3/131/34 47/132/34
f 16/133/35 1/134/35 10/135/35
f 14/136/36 3/137/36 12/138/36
f 51/139/37 50/140/37 49/141/37
f 11/142/38 49/143/38 50/144/38
f 13/145/39 49/146/39 9/147/39
f 11/148/40 52/149/40 15/150/40
f 5/1/1 7/151/1 3/2/1
f 4/4/2 3/152/2 7/5/2
f 8/7/3 7/153/3 5/8/3
f 2/10/4 4/154/4 8/11/4
f 1/13/5 3/155/5 4/14/5
f 5/16/6 1/156/6 2/17/6
f 15/19/7 52/157/7 51/20/7
f 11/22/8 15/158/8 16/23/8
f 15/25/9 13/159/9 14/26/9
f 10/28/10 12/160/10 16/29/10
f 9/31/11 11/161/11 12/32/11
f 13/34/12 9/162/12 10/35/12
f 19/37/13 23/163/13 21/38/13
f 24/40/14 23/164/14 19/41/14
f 22/43/11 21/165/11 23/44/11
f 24/46/15 20/166/15 18/47/15
f 20/49/9 19/167/9 17/50/9
f 18/52/16 17/168/16 21/53/16
f 29/55/17 31/169/17 27/56/17
f 27/58/18 31/170/18 32/59/18
f 31/61/9 29/171/9 30/62/9
f 26/64/19 28/172/19 32/65/19
f 25/67/11 27/173/11 28/68/11
f 29/70/20 25/174/20 26/71/20
f 37/73/21 39/175/21 35/74/21
f 35/76/2 39/176/2 40/77/2
f 39/79/9 37/177/9 38/80/9
f 34/82/22 36/178/22 40/83/22
f 33/85/11 35/179/11 36/86/11
f 37/88/6 33/180/6 34/89/6
f 41/91/23 43/181/23 47/92/23
f 48/94/6 47/182/6 43/95/6
f 46/97/24 45/183/24 47/98/24
f 46/100/25 48/184/25 44/101/25
f 44/103/26 43/185/26 41/104/26
f 46/106/2 42/186/2 41/107/2
f 3/121/41 25/187/41 29/122/41
f 23/124/42 5/188/42 1/125/42
f 7/127/33 35/189/33 33/128/33
f 45/130/34 1/190/34 3/131/34
f 16/133/35 7/191/35 1/134/35
f 14/136/36 5/192/36 3/137/36
f 51/139/17 52/193/17 50/140/17
f 11/142/38 9/194/38 49/143/38
f 13/145/39 51/195/39 49/146/39
f 11/148/40 50/196/40 52/149/40
