# Blender v3.0.0 OBJ File: 'Swiat (3).blend111'
# www.blender.org
mtllib rurysufitowe.mtl
o Rurki.NR1.001_Cube.032
v -0.500000 -1.250000 5.000000
v -0.500000 1.250000 5.000000
v -0.500000 -1.250000 -5.000000
v -0.500000 1.250000 -5.000000
v 0.166325 -1.250000 5.000000
v 1.131404 1.250000 5.000000
v 0.166324 -1.250000 -5.000000
v 1.131403 1.250000 -5.000000
v 1.070440 1.092077 -4.803244
v 0.227287 -1.092077 -4.803244
v 0.227288 -1.092077 4.803244
v 1.070441 1.092077 4.803244
v -0.424354 1.085661 -4.803242
v -0.394662 -1.091032 -4.803243
v -0.394661 -1.091032 4.803243
v -0.424353 1.085661 4.803243
v 0.031616 -0.040454 4.841666
v 0.031617 -0.040454 -4.844160
v -0.118855 -0.070385 4.841666
v -0.118855 -0.070385 -4.844164
v -0.246420 -0.155621 4.841667
v -0.246419 -0.155621 -4.844164
v -0.331654 -0.283184 4.841667
v -0.331654 -0.283184 -4.844163
v -0.361585 -0.433656 4.841667
v -0.361584 -0.433656 -4.844163
v -0.331654 -0.584127 4.841667
v -0.331654 -0.584127 -4.844163
v -0.246420 -0.711691 4.841667
v -0.246419 -0.711691 -4.844164
v -0.118855 -0.796926 4.841666
v -0.118855 -0.796926 -4.844159
v 0.031616 -0.826857 4.841666
v 0.031617 -0.826857 -4.844160
v 0.182087 -0.796926 4.841670
v 0.182088 -0.796926 -4.844161
v 0.309652 -0.711691 4.841670
v 0.309652 -0.711691 -4.844161
v 0.394887 -0.584128 4.841669
v 0.394887 -0.584128 -4.844161
v 0.424817 -0.433656 4.841669
v 0.424818 -0.433656 -4.844161
v 0.394887 -0.283184 4.841669
v 0.394887 -0.283184 -4.844161
v 0.309652 -0.155621 4.841670
v 0.309652 -0.155621 -4.844161
v 0.182087 -0.070385 4.841665
v 0.182088 -0.070385 -4.844161
v 0.281970 1.020958 4.841666
v 0.281971 1.020958 -4.844160
v 0.104945 0.985745 4.841667
v 0.104946 0.985745 -4.844164
v -0.045131 0.885468 4.841667
v -0.045130 0.885468 -4.844164
v -0.145407 0.735394 4.841667
v -0.145406 0.735393 -4.844163
v -0.180619 0.558368 4.841667
v -0.180619 0.558368 -4.844163
v -0.145407 0.381343 4.841667
v -0.145406 0.381343 -4.844163
v -0.045131 0.231268 4.841667
v -0.045130 0.231268 -4.844164
v 0.104945 0.130991 4.841667
v 0.104946 0.130991 -4.844160
v 0.281970 0.095779 4.841666
v 0.281971 0.095779 -4.844160
v 0.458995 0.130991 4.841670
v 0.458996 0.130991 -4.844161
v 0.609071 0.231267 4.841670
v 0.609071 0.231268 -4.844161
v 0.709347 0.381342 4.841670
v 0.709348 0.381342 -4.844161
v 0.744560 0.558368 4.841670
v 0.744561 0.558368 -4.844162
v 0.709347 0.735393 4.841670
v 0.709348 0.735393 -4.844161
v 0.609071 0.885468 4.841670
v 0.609071 0.885468 -4.844161
v 0.458995 0.985745 4.841665
v 0.458996 0.985745 -4.844161
vt 0.812096 0.566304
vt 0.599418 0.354141
vt 0.812096 0.354141
vt 0.220714 0.346124
vt 0.433392 0.204754
vt 0.433392 0.346124
vt 0.599418 0.786485
vt 0.797225 0.782310
vt 0.810563 0.786485
vt 0.000000 0.204754
vt 0.212678 0.346124
vt 0.000000 0.346124
vt 0.961845 0.354141
vt 0.820132 0.566304
vt 0.820132 0.354141
vt 0.654106 0.346124
vt 0.441428 0.000000
vt 0.654106 0.000000
vt 0.000000 0.354141
vt 0.204309 0.671282
vt 0.000000 0.671282
vt 0.612756 0.578496
vt 0.612756 0.782311
vt 0.797225 0.578496
vt 0.810563 0.574321
vt 0.599418 0.574322
vt 0.847358 0.000000
vt 0.662142 0.203814
vt 0.662142 0.000000
vt 0.405882 0.533345
vt 0.591382 0.671282
vt 0.406198 0.665300
vt 0.212345 0.492078
vt 0.397845 0.354141
vt 0.397845 0.671282
vt 0.855394 0.203815
vt 0.987669 0.000000
vt 0.987669 0.203815
vt 0.320586 0.884797
vt 0.288584 0.679299
vt 0.320586 0.679299
vt 0.261454 0.884797
vt 0.261454 0.679299
vt 0.243326 0.884797
vt 0.243326 0.679299
vt 0.774471 0.794502
vt 0.761671 1.000000
vt 0.761671 0.794502
vt 0.748870 0.794502
vt 0.973118 0.779819
vt 0.954991 0.574322
vt 0.973118 0.574322
vt 0.954991 0.779819
vt 0.927861 0.574322
vt 0.927861 0.779819
vt 0.895859 0.574322
vt 0.895859 0.779819
vt 0.863857 0.574322
vt 0.863857 0.779819
vt 0.836727 0.574322
vt 0.836727 0.779819
vt 0.818599 0.574322
vt 0.782508 0.794502
vt 0.795261 1.000000
vt 0.782508 1.000000
vt 0.795261 0.794502
vt 0.808109 1.000000
vt 0.397845 0.679299
vt 0.379718 0.884797
vt 0.379718 0.679299
vt 0.679220 0.934594
vt 0.714121 0.955505
vt 0.688600 0.953479
vt 0.352588 0.679299
vt 0.613875 0.953479
vt 0.604495 0.934594
vt 0.639396 0.955505
vt 0.496775 0.679299
vt 0.459126 0.884797
vt 0.459126 0.679299
vt 0.427208 0.884797
vt 0.427208 0.679299
vt 0.405882 0.884797
vt 0.405882 0.679299
vt 0.235290 0.679299
vt 0.220230 0.884797
vt 0.220230 0.679299
vt 0.205170 0.679299
vt 0.000000 0.679299
vt 0.021327 0.884797
vt 0.000000 0.884797
vt 0.021327 0.679299
vt 0.053244 0.884797
vt 0.053244 0.679299
vt 0.090894 0.884797
vt 0.090894 0.679299
vt 0.128543 0.884797
vt 0.128543 0.679299
vt 0.160461 0.884797
vt 0.160461 0.679299
vt 0.181787 0.884797
vt 0.969881 0.354141
vt 0.984885 0.559639
vt 0.969881 0.559639
vt 0.984885 0.354141
vt 1.000000 0.559639
vt 0.587669 0.679299
vt 0.566342 0.884797
vt 0.566342 0.679299
vt 0.824572 0.952650
vt 0.865632 0.977252
vt 0.835607 0.974868
vt 0.534424 0.679299
vt 0.496775 0.884797
vt 0.936520 0.977251
vt 0.922101 0.957054
vt 0.966544 0.974868
vt 0.599418 0.566304
vt 0.220714 0.000000
vt 0.212678 0.000000
vt 0.961845 0.566304
vt 0.441428 0.346124
vt 0.204309 0.354141
vt 0.847358 0.203815
vt 0.591382 0.354141
vt 0.212661 0.360123
vt 0.855394 0.000000
vt 0.288584 0.884797
vt 0.774471 1.000000
vt 0.748870 1.000000
vt 0.818599 0.779819
vt 0.808109 0.794502
vt 0.397845 0.884797
vt 0.674144 0.907041
vt 0.735757 0.911931
vt 0.674144 0.875015
vt 0.740833 0.880309
vt 0.679220 0.843393
vt 0.740833 0.848283
vt 0.688600 0.816988
vt 0.735757 0.820730
vt 0.700856 0.799819
vt 0.714121 0.794502
vt 0.726377 0.801845
vt 0.726377 0.938337
vt 0.700856 0.960822
vt 0.352588 0.884797
vt 0.599418 0.907041
vt 0.599418 0.875015
vt 0.666108 0.880309
vt 0.604495 0.843393
vt 0.666108 0.848283
vt 0.613875 0.816988
vt 0.626130 0.799819
vt 0.661031 0.820730
vt 0.639395 0.794502
vt 0.651651 0.801845
vt 0.661031 0.911931
vt 0.651651 0.938337
vt 0.626130 0.960822
vt 0.235290 0.884797
vt 0.205170 0.884797
vt 0.181787 0.679299
vt 1.000000 0.354141
vt 0.587669 0.884797
vt 0.818599 0.920235
vt 0.891085 0.925988
vt 0.818599 0.882558
vt 0.897057 0.888786
vt 0.824572 0.845355
vt 0.897057 0.851109
vt 0.835607 0.814290
vt 0.891085 0.818693
vt 0.850025 0.794092
vt 0.865632 0.787836
vt 0.880050 0.796475
vt 0.880050 0.957054
vt 0.850025 0.983507
vt 0.534424 0.884797
vt 0.911066 0.925988
vt 0.905094 0.888786
vt 0.983552 0.882558
vt 0.905094 0.851109
vt 0.977580 0.845355
vt 0.911066 0.818693
vt 0.922101 0.796475
vt 0.966544 0.814290
vt 0.936520 0.787836
vt 0.952126 0.794092
vt 0.983552 0.920235
vt 0.977580 0.952650
vt 0.952126 0.983507
vn -1.0000 0.0000 0.0000
vn 0.0000 0.0000 -1.0000
vn 0.9329 -0.3601 -0.0000
vn 0.0000 0.0000 1.0000
vn 0.0000 -1.0000 0.0000
vn 0.0000 1.0000 0.0000
vn 0.0043 -1.0000 0.0000
vn 0.9999 0.0136 -0.0000
vn 0.0017 1.0000 -0.0000
vn -0.1951 0.9808 -0.0000
vn -0.5556 0.8315 -0.0000
vn -0.8315 0.5556 -0.0000
vn -0.9808 0.1951 -0.0000
vn -0.9808 -0.1951 -0.0000
vn -0.8315 -0.5556 -0.0000
vn -0.5556 -0.8315 -0.0000
vn -0.1951 -0.9808 -0.0000
vn 0.1951 -0.9808 0.0000
vn 0.5556 -0.8315 0.0000
vn 0.8315 -0.5556 0.0000
vn 0.9808 -0.1951 0.0000
vn 0.9808 0.1951 0.0000
vn 0.8315 0.5556 0.0000
vn 0.5556 0.8315 0.0000
vn 0.1951 0.9808 0.0000
usemtl Material.013
s off
f 2/1/1 3/2/1 1/3/1
f 4/4/2 7/5/2 3/6/2
f 5/7/3 12/8/3 6/9/3
f 5/10/4 2/11/4 1/12/4
f 7/13/5 1/14/5 3/15/5
f 4/16/6 6/17/6 8/18/6
f 9/19/7 16/20/7 13/21/7
f 5/7/3 10/22/3 11/23/3
f 6/9/3 9/24/3 8/25/3
f 7/26/3 9/24/3 10/22/3
f 13/27/8 15/28/8 14/29/8
f 10/30/4 13/31/4 14/32/4
f 11/33/2 16/34/2 12/35/2
f 11/36/9 14/37/9 15/38/9
f 18/39/10 19/40/10 17/41/10
f 19/40/11 22/42/11 21/43/11
f 21/43/12 24/44/12 23/45/12
f 23/46/13 26/47/13 25/48/13
f 26/47/14 27/49/14 25/48/14
f 28/50/15 29/51/15 27/52/15
f 30/53/16 31/54/16 29/51/16
f 32/55/17 33/56/17 31/54/17
f 34/57/18 35/58/18 33/56/18
f 36/59/19 37/60/19 35/58/19
f 38/61/20 39/62/20 37/60/20
f 40/63/21 41/64/21 39/65/21
f 42/66/22 43/67/22 41/64/22
f 43/68/23 46/69/23 45/70/23
f 22/71/2 28/72/2 24/73/2
f 46/69/24 47/74/24 45/70/24
f 47/74/25 18/39/25 17/41/25
f 43/75/4 45/76/4 39/77/4
f 49/78/10 52/79/10 51/80/10
f 51/80/11 54/81/11 53/82/11
f 53/82/12 56/83/12 55/84/12
f 55/85/13 58/86/13 57/87/13
f 58/86/14 59/88/14 57/87/14
f 60/89/15 61/90/15 59/91/15
f 62/92/16 63/93/16 61/90/16
f 64/94/17 65/95/17 63/93/17
f 66/96/18 67/97/18 65/95/18
f 68/98/19 69/99/19 67/97/19
f 70/100/20 71/101/20 69/99/20
f 72/102/21 73/103/21 71/104/21
f 74/105/22 75/106/22 73/103/22
f 75/107/23 78/108/23 77/109/23
f 54/110/2 60/111/2 56/112/2
f 78/108/24 79/113/24 77/109/24
f 79/113/25 50/114/25 49/78/25
f 75/115/4 77/116/4 71/117/4
f 2/1/1 4/118/1 3/2/1
f 4/4/2 8/119/2 7/5/2
f 5/7/3 11/23/3 12/8/3
f 5/10/4 6/120/4 2/11/4
f 7/13/5 5/121/5 1/14/5
f 4/16/6 2/122/6 6/17/6
f 9/19/7 12/123/7 16/20/7
f 5/7/3 7/26/3 10/22/3
f 6/9/3 12/8/3 9/24/3
f 7/26/3 8/25/3 9/24/3
f 13/27/8 16/124/8 15/28/8
f 10/30/4 9/125/4 13/31/4
f 11/33/2 15/126/2 16/34/2
f 11/36/9 10/127/9 14/37/9
f 18/39/10 20/128/10 19/40/10
f 19/40/11 20/128/11 22/42/11
f 21/43/12 22/42/12 24/44/12
f 23/46/13 24/129/13 26/47/13
f 26/47/14 28/130/14 27/49/14
f 28/50/15 30/53/15 29/51/15
f 30/53/16 32/55/16 31/54/16
f 32/55/17 34/57/17 33/56/17
f 34/57/18 36/59/18 35/58/18
f 36/59/19 38/61/19 37/60/19
f 38/61/20 40/131/20 39/62/20
f 40/63/21 42/66/21 41/64/21
f 42/66/22 44/132/22 43/67/22
f 43/68/23 44/133/23 46/69/23
f 22/71/2 20/134/2 32/135/2
f 20/134/2 18/136/2 34/137/2
f 18/136/2 48/138/2 36/139/2
f 48/138/2 46/140/2 38/141/2
f 46/140/2 44/142/2 38/141/2
f 44/142/2 42/143/2 40/144/2
f 38/141/2 44/142/2 40/144/2
f 38/141/2 36/139/2 48/138/2
f 36/139/2 34/137/2 18/136/2
f 34/137/2 32/135/2 20/134/2
f 32/135/2 30/145/2 22/71/2
f 30/145/2 28/72/2 22/71/2
f 28/72/2 26/146/2 24/73/2
f 46/69/24 48/147/24 47/74/24
f 47/74/25 48/147/25 18/39/25
f 47/148/4 17/149/4 33/150/4
f 17/149/4 19/151/4 31/152/4
f 19/151/4 21/153/4 31/152/4
f 21/153/4 23/154/4 29/155/4
f 31/152/4 21/153/4 29/155/4
f 23/154/4 25/156/4 27/157/4
f 27/157/4 29/155/4 23/154/4
f 31/152/4 33/150/4 17/149/4
f 33/150/4 35/158/4 47/148/4
f 35/158/4 37/159/4 47/148/4
f 37/159/4 39/77/4 45/76/4
f 47/148/4 37/159/4 45/76/4
f 39/77/4 41/160/4 43/75/4
f 49/78/10 50/114/10 52/79/10
f 51/80/11 52/79/11 54/81/11
f 53/82/12 54/81/12 56/83/12
f 55/85/13 56/161/13 58/86/13
f 58/86/14 60/162/14 59/88/14
f 60/89/15 62/92/15 61/90/15
f 62/92/16 64/94/16 63/93/16
f 64/94/17 66/96/17 65/95/17
f 66/96/18 68/98/18 67/97/18
f 68/98/19 70/100/19 69/99/19
f 70/100/20 72/163/20 71/101/20
f 72/102/21 74/105/21 73/103/21
f 74/105/22 76/164/22 75/106/22
f 75/107/23 76/165/23 78/108/23
f 54/110/2 52/166/2 64/167/2
f 52/166/2 50/168/2 66/169/2
f 50/168/2 80/170/2 68/171/2
f 80/170/2 78/172/2 70/173/2
f 78/172/2 76/174/2 70/173/2
f 76/174/2 74/175/2 72/176/2
f 70/173/2 76/174/2 72/176/2
f 70/173/2 68/171/2 80/170/2
f 68/171/2 66/169/2 50/168/2
f 66/169/2 64/167/2 52/166/2
f 64/167/2 62/177/2 54/110/2
f 62/177/2 60/111/2 54/110/2
f 60/111/2 58/178/2 56/112/2
f 78/108/24 80/179/24 79/113/24
f 79/113/25 80/179/25 50/114/25
f 79/180/4 49/181/4 65/182/4
f 49/181/4 51/183/4 63/184/4
f 51/183/4 53/185/4 63/184/4
f 53/185/4 55/186/4 61/187/4
f 63/184/4 53/185/4 61/187/4
f 55/186/4 57/188/4 59/189/4
f 59/189/4 61/187/4 55/186/4
f 63/184/4 65/182/4 49/181/4
f 65/182/4 67/190/4 79/180/4
f 67/190/4 69/191/4 79/180/4
f 69/191/4 71/117/4 77/116/4
f 79/180/4 69/191/4 77/116/4
f 71/117/4 73/192/4 75/115/4
